<?xml version="1.0" standalone="no"?>
<!DOCTYPE svg PUBLIC "-//W3C//DTD SVG 1.1//EN" "http://www.w3.org/Graphics/SVG/1.1/DTD/svg11.dtd" >
<svg>
<metadata>
Created by FontForge 20120731 at Sat Jun 29 22:04:26 2019
 By www
Copyright 1990 as an unpublished work by Bitstream Inc.  All rights reserved.  Confidential.
</metadata>
<defs>
<font id="ErasITCbyBT-Light" horiz-adv-x="500" >
  <font-face 
    font-family="ITC Eras"
    font-weight="300"
    font-style="italic"
    font-stretch="normal"
    units-per-em="1000"
    panose-1="0 0 0 0 0 0 0 0 0 0"
    ascent="800"
    descent="-200"
    x-height="498"
    cap-height="662"
    bbox="-170 -236 1170 918"
    underline-thickness="29"
    underline-position="-91"
    slope="3"
    stemh="30"
    stemv="35"
    unicode-range="U+0020-FB02"
  />
<missing-glyph horiz-adv-x="250" 
 />
    <glyph glyph-name=".notdef" horiz-adv-x="250" 
 />
    <glyph glyph-name="space" unicode=" " horiz-adv-x="250" 
 />
    <glyph glyph-name="exclam" unicode="!" horiz-adv-x="250" 
d="M136 49l-2 -49h-49l3 49h48zM96 99l12 450c1 30 1 67 2 113h49c-2 -26 -7 -71 -10 -136l-23 -427h-30z" />
    <glyph glyph-name="quotedbl" unicode="&#x22;" horiz-adv-x="269" 
d="M91 700v-270h-42v270h42zM220 700v-270h-42v270h42z" />
    <glyph glyph-name="numbersign" unicode="#" horiz-adv-x="769" 
d="M447 710l-85 -243h132l86 243h54l-85 -243h157l-15 -44h-158l-49 -138h170l-15 -44h-171l-85 -241h-55l86 241h-132l-87 -241h-54l85 241h-163l15 44h164l49 138h-176l14 44h178l86 243h54zM478 423h-132l-48 -138h131z" />
    <glyph glyph-name="dollar" unicode="$" 
d="M101 78v44c44 -26 86 -39 132 -39c81 0 129 37 129 95c0 33 -14 61 -48 90l-112 96c-51 44 -77 82 -77 128c0 68 49 116 138 124v51h37l-3 -50c34 -2 64 -7 90 -17l3 -37c-32 16 -66 24 -103 24c-72 0 -121 -37 -121 -93c0 -29 17 -59 50 -88l92 -81
c55 -48 91 -81 91 -140c0 -75 -44 -118 -132 -135l-2 -53h-35l2 50c-47 4 -90 14 -131 31z" />
    <glyph glyph-name="percent" unicode="%" horiz-adv-x="838" 
d="M217 -14l349 676h40l-347 -676h-42zM475 161c0 143 66 228 168 228c95 0 143 -56 143 -166c0 -145 -61 -225 -166 -225c-90 0 -145 61 -145 163zM648 360c-82 0 -134 -72 -134 -197c0 -86 45 -138 107 -138c79 0 126 74 126 199c0 88 -38 136 -99 136zM225 637
c-82 0 -133 -72 -133 -197c0 -86 44 -138 106 -138c79 0 127 73 127 198c0 88 -39 137 -100 137zM51 437c0 143 66 228 168 228c95 0 143 -57 143 -167c0 -145 -61 -225 -166 -225c-90 0 -145 62 -145 164z" />
    <glyph glyph-name="ampersand" unicode="&#x26;" horiz-adv-x="624" 
d="M599 269c0 -87 -28 -155 -89 -209l56 -60h-51l-33 35c-59 -33 -120 -48 -190 -48c-171 0 -272 88 -272 214c0 97 60 166 176 199c-30 44 -47 82 -47 125c0 90 69 150 189 150c43 0 85 -4 129 -14l2 -41c-48 15 -90 24 -130 24c-93 0 -153 -50 -153 -119
c0 -55 37 -101 90 -168l213 -269c51 46 75 105 75 181h35zM458 63l-240 308c-104 -25 -159 -86 -159 -171c0 -103 96 -181 238 -181c60 0 110 13 161 44z" />
    <glyph glyph-name="quoteright" unicode="&#x2019;" horiz-adv-x="250" 
d="M192 662l-84 -150h-24l46 150h62z" />
    <glyph glyph-name="parenleft" unicode="(" horiz-adv-x="244" 
d="M209 700c-51 -170 -83 -331 -83 -496c0 -122 15 -251 40 -392h-32c-31 137 -51 262 -51 381c0 158 32 327 95 507h31z" />
    <glyph glyph-name="parenright" unicode=")" horiz-adv-x="244" 
d="M32 -188c51 170 83 331 83 496c0 122 -15 251 -40 392h32c31 -137 51 -262 51 -381c0 -158 -32 -327 -95 -507h-31z" />
    <glyph glyph-name="asterisk" unicode="*" 
d="M112 384l122 110l-152 66l17 35l143 -76v157h43l-17 -158l153 65l13 -37l-160 -53l113 -118l-29 -26l-105 126l-111 -120z" />
    <glyph glyph-name="plus" unicode="+" horiz-adv-x="833" 
d="M436 595v-278h273v-39h-273v-278h-39v278h-273v39h273v278h39z" />
    <glyph glyph-name="comma" unicode="," horiz-adv-x="250" 
d="M147 51l-84 -151h-24l46 151h62z" />
    <glyph glyph-name="hyphen" unicode="-" horiz-adv-x="381" 
d="M51 270h276v-31h-276v31z" />
    <glyph glyph-name="period" unicode="." horiz-adv-x="250" 
d="M144 53l-3 -53h-57l3 53h57z" />
    <glyph glyph-name="slash" unicode="/" horiz-adv-x="312" 
d="M25 -93h-36l272 769h36z" />
    <glyph glyph-name="zero" unicode="0" 
d="M43 275c0 261 84 402 228 402c119 0 184 -99 184 -291c0 -260 -82 -400 -221 -400c-117 0 -191 104 -191 289zM273 646c-113 0 -186 -132 -186 -370c0 -163 65 -258 149 -258c108 0 176 133 176 370c0 169 -53 258 -139 258z" />
    <glyph glyph-name="one" unicode="1" 
d="M255 0h-49c6 49 10 90 12 123l21 375c1 17 2 56 2 118c-16 -10 -33 -19 -52 -28v40c18 10 35 22 53 34h45c-5 -66 -8 -120 -10 -162l-16 -293c-3 -48 -5 -117 -6 -207z" />
    <glyph glyph-name="two" unicode="2" 
d="M25 0l2 41l106 115c159 171 257 282 257 380c0 72 -55 110 -164 110c-57 0 -109 -8 -160 -29l8 38c52 14 102 22 152 22c135 0 202 -50 202 -142c0 -85 -69 -185 -196 -321l-170 -182h179c46 0 98 1 156 8l-2 -40h-370z" />
    <glyph glyph-name="three" unicode="3" 
d="M78 658c48 12 95 19 143 19c126 0 195 -57 195 -155c0 -89 -51 -154 -138 -173c95 -12 147 -66 147 -158c0 -125 -94 -205 -243 -205c-55 0 -107 9 -161 27l-3 44c55 -26 105 -38 152 -38c139 0 213 59 213 166c0 100 -54 147 -168 147c-18 0 -43 -2 -74 -4l2 32h22
c139 0 209 54 209 156c0 88 -52 133 -158 133c-49 0 -97 -9 -144 -27z" />
    <glyph glyph-name="four" unicode="4" 
d="M332 119v-3v-116h-46c7 70 11 111 11 124l5 130h-262v44l210 295c16 23 32 46 47 69h63c-7 -109 -11 -171 -12 -189l-8 -185h34c9 0 32 1 68 4v-40c-14 1 -27 2 -38 2h-21h-45zM75 288h228l17 342z" />
    <glyph glyph-name="five" unicode="5" 
d="M434 623c-37 4 -64 5 -81 5h-209l-26 -251c47 7 88 12 124 12c133 0 205 -65 205 -174c0 -134 -101 -229 -280 -229c-33 0 -71 5 -112 17l-2 45c44 -18 84 -27 124 -27c133 0 227 80 227 194c0 95 -59 139 -180 139c-34 0 -84 -5 -148 -16l30 324h328v-39z" />
    <glyph glyph-name="six" unicode="6" 
d="M258 662h54c-151 -188 -233 -331 -233 -472c0 -106 63 -171 160 -171c105 0 174 74 174 191c0 94 -54 147 -145 147c-29 0 -60 -6 -96 -15l9 36c30 8 60 12 91 12c113 0 181 -64 181 -177c0 -141 -83 -227 -215 -227c-121 0 -201 79 -201 203c0 130 76 282 221 473z" />
    <glyph glyph-name="seven" unicode="7" 
d="M210 122c-21 -45 -36 -86 -49 -122h-52l222 474c19 41 43 91 67 151h-238c-11 0 -38 -1 -82 -5v45c53 -3 88 -3 106 -3h256v-44z" />
    <glyph glyph-name="eight" unicode="8" 
d="M252 324c-114 0 -180 -62 -180 -157c0 -88 61 -148 164 -148c107 0 174 62 174 162c0 87 -56 143 -158 143zM256 354c89 0 151 62 151 154c0 83 -55 138 -139 138c-97 0 -157 -63 -157 -159c0 -83 53 -133 145 -133zM162 341c-60 27 -92 78 -92 149c0 110 82 186 198 186
c110 0 180 -69 180 -170c0 -78 -38 -133 -113 -165c72 -17 116 -75 116 -157c0 -120 -79 -198 -212 -198c-134 0 -208 65 -208 180c0 86 44 145 131 175z" />
    <glyph glyph-name="nine" unicode="9" 
d="M237 0h-57c148 194 232 339 232 472c0 109 -59 171 -154 171c-99 0 -169 -67 -169 -166c0 -94 56 -147 154 -147c36 0 70 6 102 18l-11 -36c-36 -10 -70 -16 -101 -16c-118 0 -187 66 -187 177c0 117 89 203 212 203c117 0 195 -78 195 -202c0 -126 -76 -277 -216 -474z
" />
    <glyph glyph-name="colon" unicode=":" horiz-adv-x="273" 
d="M173 438h-56l3 60h57zM154 59l-3 -59h-57l3 59h57z" />
    <glyph glyph-name="semicolon" unicode=";" horiz-adv-x="273" 
d="M166 438h-57l3 60h56zM160 51l-84 -151h-24l46 151h62z" />
    <glyph glyph-name="less" unicode="&#x3c;" horiz-adv-x="833" 
d="M704 505l-510 -207l510 -207v-43l-575 235v30l575 236v-44z" />
    <glyph glyph-name="equal" unicode="=" horiz-adv-x="833" 
d="M709 406v-39h-585v39h585zM709 229v-39h-585v39h585z" />
    <glyph glyph-name="greater" unicode="&#x3e;" horiz-adv-x="833" 
d="M704 313v-30l-575 -235v43l510 207l-510 207v44z" />
    <glyph glyph-name="question" unicode="?" horiz-adv-x="491" 
d="M234 49l-3 -49h-48l3 49h48zM191 93l7 132c2 35 8 62 30 86l70 78c54 60 81 111 81 152c0 67 -56 109 -166 109c-54 0 -104 -8 -155 -27l8 38c47 15 99 22 154 22c128 0 196 -54 196 -142c0 -51 -31 -107 -91 -176l-69 -80c-17 -19 -21 -42 -23 -71l-6 -121h-36z" />
    <glyph glyph-name="at" unicode="@" horiz-adv-x="1000" 
d="M595 228l31 124c-14 64 -53 99 -114 99c-99 0 -175 -102 -175 -233c0 -76 40 -120 106 -120c72 0 132 51 152 130zM636 404l30 63h39l-67 -270c-7 -26 -10 -44 -10 -53c0 -28 20 -45 57 -45c31 0 66 13 99 37c64 47 109 139 109 239c0 176 -140 296 -354 296
c-110 0 -203 -32 -278 -94c-100 -83 -151 -194 -151 -328c0 -211 154 -350 397 -350c103 0 214 33 304 94l14 -22c-95 -71 -201 -107 -316 -107c-124 0 -225 31 -303 90c-99 75 -147 173 -147 301c0 106 34 202 97 279c93 114 226 174 388 174c108 0 205 -32 270 -82
c83 -64 127 -149 127 -246c0 -111 -43 -204 -119 -264c-44 -35 -97 -54 -149 -54c-62 0 -94 24 -94 71c0 6 1 12 2 19c-32 -58 -84 -90 -142 -90c-100 0 -153 55 -153 159c0 151 102 266 225 266c62 0 105 -28 125 -83z" />
    <glyph glyph-name="A" unicode="A" horiz-adv-x="587" 
d="M580 0h-50c-7 33 -13 59 -19 78l-82 242h-254l-105 -220c-14 -29 -28 -61 -39 -100h-51l281 582c11 22 22 47 29 80h68c8 -35 17 -59 21 -71zM322 626l-130 -273h224z" />
    <glyph glyph-name="B" unicode="B" horiz-adv-x="541" 
d="M277 662c130 0 200 -34 200 -149c0 -81 -44 -143 -116 -163c78 -16 125 -77 125 -164c0 -63 -28 -120 -68 -150s-95 -36 -172 -36h-184c19 170 33 392 34 662h181zM115 32h131c136 0 198 38 198 160c0 98 -57 137 -171 137h-146l-9 -164c-1 -12 -1 -57 -3 -133zM128 362
h118c127 0 190 47 190 154c0 83 -49 115 -153 115h-139c-5 -58 -6 -93 -7 -105z" />
    <glyph glyph-name="C" unicode="C" horiz-adv-x="616" 
d="M581 600c-61 29 -126 43 -194 43c-187 0 -298 -117 -298 -326c0 -196 101 -297 299 -297c61 0 115 13 170 31l-7 -51c-47 -7 -100 -14 -163 -14c-225 0 -341 116 -341 331c0 225 131 359 339 359c73 0 139 -12 189 -32z" />
    <glyph glyph-name="D" unicode="D" horiz-adv-x="704" 
d="M63 0c16 142 30 364 34 662h246c83 0 148 -1 204 -43c73 -54 111 -144 111 -266c0 -105 -31 -191 -92 -254c-78 -81 -163 -99 -279 -99h-224zM114 32h107h39c72 0 134 2 193 31c105 51 164 154 164 291c0 107 -31 188 -82 229c-55 44 -108 47 -174 47h-32h-187l-21 -403
c-1 -19 -4 -85 -7 -195z" />
    <glyph glyph-name="E" unicode="E" horiz-adv-x="507" 
d="M63 0c16 143 28 364 35 662h399l-2 -38c-46 4 -86 4 -119 4h-232c-4 -51 -7 -85 -8 -103l-9 -170h181h70c7 0 31 1 74 3l-2 -36c-34 1 -66 2 -93 2h-50h-182l-8 -170c-2 -43 -4 -82 -5 -120h234h36c25 0 53 0 84 3l-4 -37h-399z" />
    <glyph glyph-name="F" unicode="F" horiz-adv-x="495" 
d="M63 0c16 143 28 364 35 662h380l-3 -38c-57 3 -90 4 -99 4h-232c-5 -28 -6 -63 -8 -103l-9 -169h181c18 0 62 2 130 3l-3 -37c-63 1 -105 2 -128 2h-182l-8 -170c-2 -42 -4 -93 -5 -154h-49z" />
    <glyph glyph-name="G" unicode="G" horiz-adv-x="705" 
d="M636 372l-14 -271c-1 -10 -2 -36 -2 -75c-85 -26 -164 -40 -253 -40c-203 0 -321 122 -321 331c0 224 132 359 335 359c78 0 149 -11 228 -40l4 -46c-57 29 -128 53 -220 53c-196 0 -305 -115 -305 -326c0 -196 102 -297 299 -297c66 0 127 15 193 40l14 280h-100
c-20 0 -44 -3 -70 -8l5 40h207z" />
    <glyph glyph-name="H" unicode="H" horiz-adv-x="706" 
d="M114 0h-51c16 128 29 349 34 662h51c-8 -67 -10 -113 -11 -137l-9 -168c88 -1 177 -1 265 -1c17 0 80 0 189 1l7 136c2 44 4 81 4 112c0 5 -1 24 -1 57h51c-28 -300 -34 -506 -34 -606c0 -5 1 -23 1 -56h-51c7 72 11 118 12 139l9 181c-93 2 -169 3 -227 3
c-60 0 -136 -1 -227 -3l-6 -105c-3 -55 -4 -126 -6 -215z" />
    <glyph glyph-name="I" unicode="I" horiz-adv-x="222" 
d="M119 0h-50c16 127 29 348 34 662h51c-9 -70 -25 -290 -35 -662z" />
    <glyph glyph-name="J" unicode="J" horiz-adv-x="384" 
d="M333 662c-7 -63 -12 -109 -13 -137l-13 -265c-10 -189 -41 -274 -219 -274c-25 0 -55 5 -88 14l1 45c32 -18 64 -24 102 -24c93 0 142 42 156 130c7 45 18 215 23 511h51z" />
    <glyph glyph-name="K" unicode="K" horiz-adv-x="471" 
d="M64 0c16 142 30 363 34 662h50c-6 -49 -10 -95 -12 -137l-14 -310c-4 -77 -6 -149 -7 -215h-51zM401 0c-31 49 -52 80 -63 93l-209 254l206 223c27 29 52 58 73 92h63l-295 -313l290 -349h-65z" />
    <glyph glyph-name="L" unicode="L" horiz-adv-x="414" 
d="M63 0c17 158 30 379 34 662h52c-6 -48 -10 -94 -12 -137l-16 -349c-2 -38 -4 -78 -4 -121v-20h194c8 0 42 2 100 5l-5 -40h-343z" />
    <glyph glyph-name="M" unicode="M" horiz-adv-x="819" 
d="M739 662c-3 -51 -4 -94 -5 -128l-8 -395v-22c0 -35 2 -73 4 -117h-52c14 163 18 369 18 617l-255 -556c-7 -15 -17 -33 -22 -61h-52c-5 17 -9 35 -15 53l-202 564l-38 -472c-1 -14 -5 -62 -12 -145h-51c23 135 47 356 67 662h58l221 -625l286 625h58z" />
    <glyph glyph-name="N" unicode="N" horiz-adv-x="706" 
d="M63 0c16 128 29 349 34 662h58l410 -613l24 444c2 37 4 75 4 112c0 5 -1 24 -1 57h51c-28 -300 -34 -506 -34 -606c0 -5 1 -23 1 -56h-57l-415 620l-18 -405c-3 -64 -5 -136 -6 -215h-51z" />
    <glyph glyph-name="O" unicode="O" horiz-adv-x="773" 
d="M372 -14c-206 0 -326 120 -326 328c0 227 127 362 341 362c220 0 340 -120 340 -332c0 -223 -127 -358 -355 -358zM88 321c0 -199 103 -302 299 -302c189 0 298 119 298 328c0 191 -105 296 -298 296c-190 0 -299 -114 -299 -322z" />
    <glyph glyph-name="P" unicode="P" horiz-adv-x="475" 
d="M61 0c16 138 27 359 34 662h196c110 0 169 -36 169 -148c0 -116 -87 -196 -227 -196c-26 0 -49 4 -73 13l-7 35c28 -10 53 -16 79 -16c110 0 184 62 184 164c0 99 -50 117 -152 117h-123c-5 -75 -7 -123 -8 -144l-14 -272c-3 -60 -7 -131 -7 -215h-51z" />
    <glyph glyph-name="Q" unicode="Q" horiz-adv-x="773" 
d="M88 321c0 -199 103 -302 299 -302c189 0 298 119 298 328c0 191 -105 296 -298 296c-190 0 -299 -114 -299 -322zM715 12c-66 -15 -174 -26 -319 -26c-232 0 -350 112 -350 328c0 227 127 362 341 362c220 0 340 -120 340 -331c0 -162 -67 -278 -183 -323
c77 7 138 22 178 39z" />
    <glyph glyph-name="R" unicode="R" horiz-adv-x="493" 
d="M63 0c16 138 27 359 34 662h196c110 0 169 -36 169 -148c0 -115 -86 -195 -221 -195l211 -319h-62c-4 26 -15 41 -24 54l-194 301c27 -4 48 -5 62 -5c110 0 184 62 184 164c0 99 -49 117 -151 117h-122c-5 -84 -9 -132 -10 -144l-13 -272c-3 -60 -8 -131 -8 -215h-51z
" />
    <glyph glyph-name="S" unicode="S" horiz-adv-x="431" 
d="M45 22l-2 43c60 -28 109 -46 158 -46c93 0 149 52 149 122c0 41 -23 79 -69 121l-105 97c-66 61 -106 110 -106 174c0 82 69 143 166 143c47 0 89 -8 126 -23l4 -38c-35 19 -77 28 -124 28c-85 0 -132 -45 -132 -107c0 -40 22 -82 66 -123l122 -112
c58 -53 88 -93 88 -160c0 -89 -71 -156 -189 -156c-48 0 -97 15 -152 37z" />
    <glyph glyph-name="T" unicode="T" horiz-adv-x="477" 
d="M463 625c-33 4 -60 6 -82 6h-112c-6 -74 -7 -118 -8 -130l-14 -286c-3 -58 -4 -130 -5 -215h-50c19 209 29 412 29 603v27h-113c-27 0 -53 -1 -78 -5l2 37h435z" />
    <glyph glyph-name="U" unicode="U" horiz-adv-x="661" 
d="M139 662c-9 -57 -10 -103 -12 -137l-14 -276c0 -4 -1 -8 -1 -14c0 -143 69 -215 207 -215c82 0 152 30 182 68c33 42 37 99 41 175l12 230c2 34 3 69 3 105c0 21 -1 42 -1 64h48c-3 -41 -6 -87 -9 -138l-15 -299c-8 -164 -83 -239 -265 -239c-156 0 -240 79 -240 233
c0 69 13 216 14 443h50z" />
    <glyph glyph-name="V" unicode="V" horiz-adv-x="591" 
d="M321 80c-10 -21 -24 -46 -33 -80h-63c-2 30 -8 53 -14 71l-191 591h48c5 -34 13 -59 19 -78l175 -540l255 518c12 25 28 56 41 100h50z" />
    <glyph glyph-name="W" unicode="W" horiz-adv-x="843" 
d="M434 357l101 -304l231 509c4 8 15 41 35 100h49l-266 -582c-6 -13 -15 -39 -27 -80h-48c-15 57 -28 93 -33 110l-67 205l-89 -191c-11 -24 -31 -64 -52 -124h-51c-3 29 -11 52 -17 71l-178 591h46c4 -34 13 -59 19 -78l161 -531l147 308l-92 301h50c3 -25 8 -48 14 -68
l54 -188l82 168c3 6 15 36 33 88h45z" />
    <glyph glyph-name="X" unicode="X" horiz-adv-x="576" 
d="M291 315l-197 -253c-14 -18 -30 -37 -44 -62h-56l275 343l-218 319h62c6 -19 13 -37 24 -53l158 -233l181 233c11 14 21 31 30 53h55l-245 -315l233 -347h-60c-10 26 -19 44 -27 56z" />
    <glyph glyph-name="Y" unicode="Y" horiz-adv-x="434" 
d="M1 662h58c4 -21 12 -40 22 -59l140 -254l157 254c9 15 21 33 27 59h53l-222 -355l-12 -220c-1 -13 -1 -21 -1 -25c0 -16 0 -36 2 -62h-51c6 31 8 60 10 87l13 222z" />
    <glyph glyph-name="Z" unicode="Z" horiz-adv-x="492" 
d="M11 0v51l419 579h-290c-28 0 -56 -2 -84 -7l3 39h410v-47l-422 -580h290c27 0 62 2 104 7v-42h-430z" />
    <glyph glyph-name="bracketleft" unicode="[" horiz-adv-x="244" 
d="M190 -197h-135c7 69 11 112 12 130l30 585c2 43 4 86 4 129v29h135l-2 -38h-91l-42 -797h91z" />
    <glyph glyph-name="backslash" unicode="\" horiz-adv-x="312" 
d="M248 -93h-37l-144 769h37z" />
    <glyph glyph-name="bracketright" unicode="]" horiz-adv-x="244" 
d="M45 676h136c-7 -69 -11 -112 -12 -130l-31 -585c-2 -43 -4 -86 -4 -129v-29h-134l2 38h91l41 797h-90z" />
    <glyph glyph-name="asciicircum" unicode="^" horiz-adv-x="1000" 
d="M528 712l264 -272h-61l-231 229l-232 -229h-61l263 272h58z" />
    <glyph glyph-name="underscore" unicode="_" 
d="M500 -197v-39h-500v39h500z" />
    <glyph glyph-name="quoteleft" unicode="&#x2018;" horiz-adv-x="250" 
d="M83 526l84 150h24l-46 -150h-62z" />
    <glyph glyph-name="a" unicode="a" horiz-adv-x="483" 
d="M305 0c-45 -9 -88 -13 -124 -13c-89 0 -148 50 -148 131c0 66 38 112 101 133l124 41c91 30 125 51 125 100c0 60 -44 92 -129 92c-48 0 -103 -12 -162 -36l8 36c38 15 86 27 146 27c129 0 170 -43 170 -132c0 -13 0 -27 -1 -40l-11 -255v-84h-46c5 46 10 93 12 141
l7 169c-22 -19 -48 -31 -80 -41l-109 -34c-83 -26 -118 -59 -118 -117c0 -68 43 -101 131 -101c34 0 70 8 111 20z" />
    <glyph glyph-name="b" unicode="b" horiz-adv-x="538" 
d="M126 457c-9 -69 -14 -140 -14 -208c0 -158 52 -237 163 -237c114 0 180 85 180 241s-62 231 -193 231c-46 0 -90 -9 -136 -27zM101 106c-3 -31 -4 -66 -4 -106h-44c21 136 31 356 38 662h44c-5 -60 -10 -118 -13 -175c47 16 92 25 140 25c155 0 231 -83 231 -251
c0 -175 -82 -276 -214 -276c-83 0 -139 39 -178 121z" />
    <glyph glyph-name="c" unicode="c" horiz-adv-x="431" 
d="M419 458c-48 16 -89 23 -126 23c-137 0 -213 -100 -213 -249c0 -135 70 -214 191 -214c47 0 92 9 133 26l-7 -43c-37 -10 -74 -14 -111 -14c-158 0 -245 86 -245 241c0 179 94 283 257 283c38 0 77 -5 119 -15z" />
    <glyph glyph-name="d" unicode="d" horiz-adv-x="534" 
d="M433 500c3 54 6 102 6 143v19h45c-12 -115 -24 -336 -31 -662h-39l5 86c-32 -63 -96 -100 -166 -100c-134 0 -207 82 -207 227c0 183 104 299 277 299c32 0 68 -4 110 -12zM424 284l7 183c-38 10 -76 15 -115 15c-142 0 -233 -101 -233 -278c0 -116 64 -185 161 -185
c78 0 136 41 162 108c12 33 15 84 18 157z" />
    <glyph glyph-name="e" unicode="e" horiz-adv-x="473" 
d="M91 320h310v6c0 101 -48 154 -136 154c-95 0 -156 -54 -174 -160zM388 11c-43 -17 -83 -25 -116 -25c-149 0 -231 89 -231 249c0 174 87 277 227 277c106 0 171 -70 171 -196c0 -9 0 -19 -1 -28h-352c-2 -27 -4 -46 -4 -58c0 -133 72 -209 190 -209c35 0 73 10 116 30
v-40z" />
    <glyph glyph-name="f" unicode="f" horiz-adv-x="252" 
d="M136 468l-15 -312c-2 -50 -4 -75 -4 -78c0 -16 1 -42 3 -78h-49c12 97 14 180 17 250l10 218h-62l1 30h62c1 121 40 179 135 179c23 0 47 -2 74 -10v-34c-24 7 -47 11 -69 11c-80 0 -100 -41 -102 -146h148l-2 -30h-147z" />
    <glyph glyph-name="g" unicode="g" horiz-adv-x="534" 
d="M475 490c-22 -342 -21 -539 -35 -591c-21 -81 -94 -123 -216 -123c-46 0 -96 6 -152 17l-1 41c51 -18 100 -26 151 -26c157 0 194 65 194 247v30c-29 -62 -92 -99 -163 -99c-134 0 -207 82 -207 227c0 184 104 299 277 299c45 0 95 -8 152 -22zM424 284l5 183
c-36 10 -72 15 -109 15c-148 0 -237 -101 -237 -278c0 -116 64 -185 161 -185c78 0 136 41 162 108c11 28 16 80 18 157z" />
    <glyph glyph-name="h" unicode="h" horiz-adv-x="539" 
d="M54 0c22 238 31 434 31 584c0 20 0 46 -1 78h48c-5 -59 -10 -147 -16 -265c46 77 107 115 189 115c111 0 168 -53 168 -156c0 -52 -9 -171 -14 -356h-43c19 205 22 320 22 343c0 92 -46 138 -135 138c-84 0 -156 -55 -181 -148c-9 -32 -19 -144 -21 -333h-47z" />
    <glyph glyph-name="i" unicode="i" horiz-adv-x="181" 
d="M120 498c-12 -218 -17 -384 -18 -498h-46c12 111 22 278 23 498h41zM82 617l2 45h44l-2 -45h-44z" />
    <glyph glyph-name="j" unicode="j" horiz-adv-x="181" 
d="M121 498c-19 -348 -19 -539 -21 -573c-7 -104 -58 -150 -174 -150c-32 0 -63 4 -93 13l-3 41c37 -14 76 -21 108 -21c130 0 126 99 131 273l5 167c2 75 4 158 4 250h43zM83 617l3 45h42l-2 -45h-43z" />
    <glyph glyph-name="k" unicode="k" horiz-adv-x="449" 
d="M133 662c-11 -96 -14 -191 -18 -284l-9 -185c-2 -41 -6 -98 -6 -171v-22h-47c12 91 16 174 20 250l12 256c1 30 2 62 2 94c0 7 0 28 -1 62h47zM379 0c-7 15 -14 27 -25 38l-232 244l204 182c12 11 23 22 30 34h62l-243 -217l270 -281h-66z" />
    <glyph glyph-name="l" unicode="l" horiz-adv-x="181" 
d="M132 662c-20 -227 -31 -448 -33 -662h-47c27 280 34 486 34 600c0 9 -1 30 -2 62h48z" />
    <glyph glyph-name="m" unicode="m" horiz-adv-x="818" 
d="M375 0c13 103 20 215 20 332c0 97 -20 149 -114 149c-76 0 -140 -51 -161 -145c-8 -34 -17 -146 -19 -336h-44c14 143 23 310 24 498h39l-7 -101c43 77 104 115 179 115c76 0 125 -38 139 -109c46 73 98 109 168 109c103 0 154 -54 154 -160c0 -16 -8 -133 -15 -352h-43
c17 184 20 303 20 346c0 90 -31 136 -115 136c-54 0 -108 -31 -137 -79c-28 -46 -42 -151 -42 -316c0 -7 -1 -36 -2 -87h-44z" />
    <glyph glyph-name="n" unicode="n" horiz-adv-x="539" 
d="M56 0c16 166 25 333 26 498h40l-6 -101c46 77 107 115 189 115c111 0 168 -53 168 -156c0 -52 -9 -171 -14 -356h-43c19 205 22 320 22 343c0 92 -46 138 -135 138c-84 0 -156 -55 -181 -148c-9 -32 -19 -144 -21 -333h-45z" />
    <glyph glyph-name="o" unicode="o" horiz-adv-x="535" 
d="M42 238c0 170 88 274 234 274c137 0 217 -90 217 -250c0 -174 -89 -276 -226 -276c-148 0 -225 88 -225 252zM275 481c-126 0 -194 -85 -194 -250c0 -142 67 -215 180 -215c126 0 192 84 192 250c0 142 -62 215 -178 215z" />
    <glyph glyph-name="p" unicode="p" horiz-adv-x="538" 
d="M41 -211c21 142 31 372 38 690c67 20 128 33 187 33c151 0 227 -84 227 -251c0 -175 -82 -276 -213 -276c-87 0 -145 40 -176 123l-10 -177c-3 -48 -3 -95 -4 -142h-49zM126 457c-9 -69 -14 -144 -14 -220c0 -149 57 -225 163 -225c114 0 180 85 180 241
s-62 231 -193 231c-46 0 -90 -9 -136 -27z" />
    <glyph glyph-name="q" unicode="q" horiz-adv-x="534" 
d="M475 490c-7 -116 -11 -184 -12 -201l-13 -295c-3 -62 -6 -130 -6 -205h-44c9 97 13 196 16 298c-28 -63 -91 -101 -163 -101c-133 0 -207 82 -207 227c0 184 104 299 277 299c45 0 95 -8 152 -22zM424 284l5 183c-36 10 -72 15 -109 15c-148 0 -237 -101 -237 -278
c0 -116 64 -185 161 -185c76 0 135 39 162 107c12 29 16 81 18 158z" />
    <glyph glyph-name="r" unicode="r" horiz-adv-x="270" 
d="M118 424c29 57 75 87 137 87c9 0 20 -1 33 -2l2 -34c-11 1 -20 2 -29 2c-156 0 -158 -145 -160 -477h-45c18 204 25 363 25 476v22h40z" />
    <glyph glyph-name="s" unicode="s" horiz-adv-x="373" 
d="M16 48c48 -22 94 -33 143 -33c85 0 132 39 132 96c0 31 -16 53 -47 78l-109 88c-54 43 -80 82 -80 126c0 66 57 109 163 109c43 0 79 -5 107 -16l3 -35c-29 12 -64 23 -106 23c-85 0 -131 -32 -131 -80c0 -26 17 -57 48 -82l114 -93c50 -41 74 -78 74 -127
c0 -66 -58 -117 -161 -117c-41 0 -91 8 -149 23z" />
    <glyph glyph-name="t" unicode="t" horiz-adv-x="302" 
d="M141 584l-6 -86h150v-35c-21 2 -38 3 -51 3h-101c-10 -152 -15 -261 -15 -330c0 -82 18 -116 84 -116c30 0 57 5 85 14l-7 -33c-28 -8 -55 -12 -83 -12c-84 0 -118 34 -118 118c0 73 7 192 16 359h-70v32h73v77z" />
    <glyph glyph-name="u" unicode="u" horiz-adv-x="539" 
d="M487 498c-16 -166 -25 -333 -26 -498h-41l7 101c-46 -77 -107 -114 -189 -114c-111 0 -169 52 -169 155c0 52 9 170 14 356h44c-19 -205 -23 -319 -23 -342c0 -92 46 -139 135 -139c84 0 156 55 181 148c9 32 20 144 22 333h45z" />
    <glyph glyph-name="v" unicode="v" horiz-adv-x="447" 
d="M250 50c-7 -16 -14 -32 -19 -50h-50c-2 21 -5 38 -9 48l-159 450h50c2 -26 7 -51 15 -74l133 -380l168 382c9 21 17 46 22 72h47z" />
    <glyph glyph-name="w" unicode="w" horiz-adv-x="778" 
d="M249 50c-6 -15 -10 -31 -12 -50h-57c-4 26 -8 42 -10 48l-157 450h48c4 -29 9 -54 16 -74l135 -388l145 390c3 8 9 32 18 72h54c3 -25 7 -50 13 -74l104 -388l168 390c8 18 15 42 23 72h43l-191 -448c-7 -16 -12 -32 -15 -50h-58c-3 24 -8 40 -10 48l-106 402z" />
    <glyph glyph-name="x" unicode="x" horiz-adv-x="384" 
d="M331 0c-6 23 -16 39 -24 52l-110 188l-118 -168c-17 -24 -31 -47 -45 -72h-46l187 269l-138 229h46c12 -27 25 -49 37 -69l79 -127l95 138c10 14 21 32 33 58h47l-158 -226l166 -272h-51z" />
    <glyph glyph-name="y" unicode="y" horiz-adv-x="436" 
d="M184 -84c-45 -100 -87 -144 -166 -144c-14 0 -35 3 -62 10l-2 40c28 -11 53 -16 73 -16c65 0 106 55 148 173l-159 519h47c4 -33 11 -57 16 -74l120 -391l173 393c6 15 15 39 24 72h48z" />
    <glyph glyph-name="z" unicode="z" horiz-adv-x="431" 
d="M8 0v45l364 421h-237c-23 0 -51 0 -83 -6v38h353v-43l-364 -424h256c16 0 44 3 84 10v-41h-373z" />
    <glyph glyph-name="braceleft" unicode="{" 
d="M414 678h-18c-95 0 -112 -32 -112 -129v-118c0 -99 -15 -149 -95 -172c81 -24 95 -73 95 -172v-118c0 -97 17 -128 111 -128h19v-43h-21c-133 0 -159 47 -159 183v117c0 101 -32 140 -126 140c-7 0 -14 -1 -22 -1v44c9 -1 17 -1 24 -1c92 0 124 39 124 140v117
c0 136 26 184 159 184h21v-43z" />
    <glyph glyph-name="bar" unicode="|" 
d="M272 764v-1000h-44v1000h44z" />
    <glyph glyph-name="braceright" unicode="}" 
d="M266 537v-117c0 -101 32 -140 126 -140c7 0 14 1 22 1v-44c-8 0 -15 1 -22 1c-94 0 -126 -39 -126 -140v-117c0 -136 -26 -183 -159 -183h-21v43h19c94 0 111 31 111 128v118c0 99 15 148 96 172c-81 23 -96 73 -96 172v118c0 97 -17 129 -112 129h-18v43h21
c133 0 159 -48 159 -184z" />
    <glyph glyph-name="asciitilde" unicode="~" horiz-adv-x="833" 
d="M747 316c-67 -47 -129 -72 -189 -72c-53 0 -97 18 -141 34c-48 17 -92 35 -141 35c-59 0 -118 -28 -189 -78v45c67 47 129 72 189 72c52 0 96 -18 141 -34c47 -17 91 -35 141 -35c59 0 118 28 189 78v-45z" />
    <glyph glyph-name="exclamdown" unicode="&#xa1;" horiz-adv-x="250" 
d="M104 613l3 49h48l-2 -49h-49zM145 563l-13 -450v-50c0 -19 0 -40 -1 -63h-49c4 49 8 94 10 136l22 427h31z" />
    <glyph glyph-name="cent" unicode="&#xa2;" 
d="M278 560c-111 -20 -178 -108 -178 -241c0 -122 57 -197 155 -216c10 162 18 314 23 457zM405 84c-37 -10 -74 -16 -112 -16h-9v-66h-35l4 69c-121 15 -192 104 -192 244c0 158 83 261 219 279l3 63h32l-3 -60c39 -1 74 -8 111 -21v-38c-37 19 -73 28 -114 28
c-10 -155 -19 -311 -24 -468c42 0 83 6 126 21z" />
    <glyph glyph-name="sterling" unicode="&#xa3;" 
d="M184 323c8 -28 12 -54 12 -80c0 -62 -24 -119 -73 -174c19 6 37 9 55 9c72 0 150 -61 216 -61c25 0 51 7 81 20l-5 -40c-22 -10 -42 -14 -64 -14c-95 0 -176 60 -238 60c-42 0 -76 -15 -113 -47v55c70 55 105 121 105 191c0 27 -3 53 -10 81h-91l1 32h81
c-20 67 -48 118 -48 169c0 93 70 152 201 152c45 0 86 -7 122 -20v-34c-40 17 -81 24 -129 24c-99 0 -157 -47 -157 -124c0 -29 12 -63 26 -106l20 -61h194l-2 -32h-184z" />
    <glyph glyph-name="fraction" unicode="&#x2044;" horiz-adv-x="167" 
d="M291 676h42l-455 -690h-45z" />
    <glyph glyph-name="yen" unicode="&#xa5;" horiz-adv-x="434" 
d="M1 662h58c4 -21 12 -40 22 -59l140 -254l157 254c9 15 21 33 27 59h53l-142 -227h68c9 0 32 0 72 1l-2 -31c-42 1 -94 1 -156 1l-45 -70h95h33c6 0 29 0 69 1v-31c-51 1 -101 1 -152 1h-62l-12 -220c-1 -13 -1 -21 -1 -25c0 -16 0 -36 2 -62h-51c5 30 8 59 10 87l13 220
h-106c-10 0 -43 0 -99 -1l3 30h186l-38 70h-74c-11 0 -34 0 -71 -1l2 31c40 -1 83 -1 127 -1z" />
    <glyph glyph-name="florin" unicode="&#x192;" 
d="M453 650c-23 14 -45 21 -65 21c-51 0 -75 -50 -101 -188l-15 -81h116v-31h-122l-63 -334c-34 -178 -57 -260 -144 -260c-27 0 -56 7 -86 23l11 38c27 -18 49 -28 71 -28c46 0 72 44 91 145l79 416h-104v31h109l27 129c25 116 55 171 130 171c23 0 46 -6 71 -17z" />
    <glyph glyph-name="section" unicode="&#xa7;" 
d="M295 68c74 37 110 82 110 139s-33 101 -102 136l-109 55c-70 -36 -107 -87 -107 -141s33 -93 102 -131zM92 -201l-3 42c40 -16 76 -30 121 -30c75 0 129 48 129 123c0 45 -27 84 -65 104l-113 60c-74 39 -112 91 -112 154s40 120 120 167c-37 30 -56 68 -56 113
c0 88 70 152 170 152c35 0 76 -7 120 -22v-41c-46 18 -87 28 -127 28c-69 0 -124 -50 -124 -111c0 -50 26 -89 76 -116l107 -56c72 -38 107 -87 107 -150c0 -70 -39 -126 -117 -167c38 -35 54 -69 54 -117c0 -90 -67 -156 -183 -156c-38 0 -72 7 -104 23z" />
    <glyph glyph-name="currency" unicode="&#xa4;" horiz-adv-x="606" 
d="M175 588c39 31 81 46 128 46s90 -15 129 -46l100 101l29 -29l-101 -100c30 -38 45 -82 45 -128c0 -47 -15 -90 -45 -128l101 -100l-29 -29l-100 101c-38 -30 -82 -45 -129 -45c-48 0 -90 15 -128 45l-101 -101l-28 29l101 100c-30 38 -45 82 -45 128s15 90 45 128
l-101 100l28 29zM466 433c0 89 -72 161 -162 161s-162 -73 -162 -161c0 -89 72 -162 162 -162s162 73 162 162z" />
    <glyph glyph-name="quotesingle" unicode="'" horiz-adv-x="139" 
d="M91 700v-270h-42v270h42z" />
    <glyph glyph-name="quotedblleft" unicode="&#x201c;" horiz-adv-x="406" 
d="M83 526l84 150h24l-46 -150h-62zM238 526l84 150h25l-47 -150h-62z" />
    <glyph glyph-name="guillemotleft" unicode="&#xab;" horiz-adv-x="314" 
d="M294 431l-82 -180l70 -179h-26l-83 179l95 180h26zM163 431l-82 -180l69 -179h-25l-83 179l95 180h26z" />
    <glyph glyph-name="guilsinglleft" unicode="&#x2039;" horiz-adv-x="185" 
d="M163 431l-82 -180l69 -179h-25l-83 179l95 180h26z" />
    <glyph glyph-name="guilsinglright" unicode="&#x203a;" horiz-adv-x="185" 
d="M23 72l82 180l-70 179h25l84 -179l-95 -180h-26z" />
    <glyph glyph-name="fi" unicode="&#xfb01;" horiz-adv-x="440" 
d="M136 468l-15 -312c-2 -50 -4 -75 -4 -78c0 -16 1 -42 3 -78h-49c12 97 14 180 17 250l10 218h-62l1 30h62c1 121 40 179 135 179c23 0 47 -2 74 -10v-34c-24 7 -47 11 -69 11c-80 0 -100 -41 -102 -146h148l-2 -30h-147zM337 617l3 45h44l-2 -45h-45zM376 498
c-12 -218 -18 -384 -19 -498h-45c12 111 21 277 22 498h42z" />
    <glyph glyph-name="fl" unicode="&#xfb02;" horiz-adv-x="440" 
d="M136 468l-15 -312c-2 -50 -4 -75 -4 -78c0 -16 1 -42 3 -78h-49c12 97 14 180 17 250l10 218h-62l1 30h62c1 121 40 179 135 179c23 0 47 -2 74 -10v-34c-24 7 -47 11 -69 11c-80 0 -100 -41 -102 -146h148l-2 -30h-147zM389 662c-20 -227 -31 -449 -33 -662h-47
c27 280 34 486 34 600c0 9 -1 30 -2 62h48z" />
    <glyph glyph-name="endash" unicode="&#x2013;" 
d="M0 240v29h500v-29h-500z" />
    <glyph glyph-name="dagger" unicode="&#x2020;" 
d="M272 235c-17 -127 -27 -276 -35 -446h-23c6 125 11 245 11 358c0 27 -1 60 -5 98c13 45 16 106 20 183l-168 -16l2 48l168 -14l-2 230h49l-24 -229l160 13l-3 -48l-158 16c0 -23 -1 -49 -1 -75c0 -35 2 -74 9 -118z" />
    <glyph glyph-name="daggerdbl" unicode="&#x2021;" 
d="M219 235c13 48 18 112 21 193l-168 -16l2 48l168 -14l-2 230h49l-24 -229l160 13l-3 -48l-158 16c-1 -27 -1 -52 -1 -75c0 -41 2 -81 8 -121c-12 -57 -17 -121 -20 -194l169 16l-3 -48l-168 14l2 -230h-48l23 229l-159 -13l2 48l159 -15v74c0 34 -1 74 -9 122z" />
    <glyph glyph-name="periodcentered" unicode="&#xb7;" horiz-adv-x="250" 
d="M87 331c0 21 16 37 37 37s37 -16 37 -37s-16 -37 -37 -37s-37 16 -37 37z" />
    <glyph glyph-name="paragraph" unicode="&#xb6;" 
d="M455 691h-63v-691h-34v691h-94v-691h-34v382c-116 5 -186 73 -186 170c0 100 75 170 193 170h218v-31z" />
    <glyph glyph-name="bullet" unicode="&#x2022;" horiz-adv-x="590" 
d="M150 372c0 80 65 144 145 144c79 0 144 -64 144 -144c0 -79 -65 -145 -145 -145s-144 65 -144 145z" />
    <glyph glyph-name="quotesinglbase" unicode="&#x201a;" horiz-adv-x="250" 
d="M149 51l-84 -151h-24l46 151h62z" />
    <glyph glyph-name="quotedblbase" unicode="&#x201e;" horiz-adv-x="406" 
d="M160 51l-84 -151h-24l46 151h62zM317 51l-85 -151h-24l47 151h62z" />
    <glyph glyph-name="quotedblright" unicode="&#x201d;" horiz-adv-x="406" 
d="M191 662l-84 -150h-24l46 150h62zM347 662l-85 -150h-24l46 150h63z" />
    <glyph glyph-name="guillemotright" unicode="&#xbb;" horiz-adv-x="314" 
d="M21 72l82 180l-70 179h25l84 -179l-95 -180h-26zM152 72l82 180l-70 179h26l83 -179l-95 -180h-26z" />
    <glyph glyph-name="ellipsis" unicode="&#x2026;" horiz-adv-x="1000" 
d="M186 53l-3 -53h-57l3 53h57zM519 53l-3 -53h-57l3 53h57zM853 53l-3 -53h-57l3 53h57z" />
    <glyph glyph-name="perthousand" unicode="&#x2030;" horiz-adv-x="1225" 
d="M217 -14l348 676h43l-350 -676h-41zM476 151c0 156 62 238 167 238c95 0 144 -57 144 -166c0 -145 -62 -226 -167 -226c-88 0 -144 62 -144 154zM648 360c-82 0 -134 -72 -134 -197c0 -86 45 -138 107 -138c79 0 126 74 126 199c0 88 -38 136 -99 136zM860 161
c0 143 65 228 167 228c94 0 143 -57 143 -165c0 -146 -61 -227 -166 -227c-89 0 -144 61 -144 164zM1032 360c-82 0 -133 -72 -133 -197c0 -86 44 -138 106 -138c79 0 126 74 126 199c0 88 -38 136 -99 136zM52 437c0 143 65 228 168 228c94 0 143 -56 143 -164
c0 -147 -61 -228 -166 -228c-89 0 -145 62 -145 164zM225 637c-82 0 -133 -72 -133 -197c0 -86 44 -138 106 -138c79 0 127 73 127 198c0 88 -39 137 -100 137z" />
    <glyph glyph-name="questiondown" unicode="&#xbf;" horiz-adv-x="491" 
d="M295 577l-7 -133c-2 -35 -7 -62 -29 -86l-71 -77c-54 -60 -81 -112 -81 -153c0 -67 56 -108 166 -108c54 0 104 7 155 26l-7 -38c-47 -15 -100 -22 -155 -22c-128 0 -196 54 -196 142c0 51 31 108 91 177l70 79c17 19 20 43 22 72l6 121h36zM303 669l-3 -49h-48l3 49h48z
" />
    <glyph glyph-name="grave" unicode="`" 
d="M320 557h-30l-125 159h53z" />
    <glyph glyph-name="acute" unicode="&#xb4;" 
d="M210 556l102 160h53l-125 -160h-30z" />
    <glyph glyph-name="circumflex" unicode="&#x2c6;" 
d="M142 557l99 159h48l100 -159h-31l-93 132l-93 -132h-30z" />
    <glyph glyph-name="tilde" unicode="&#x2dc;" 
d="M394 670c-17 -48 -37 -69 -75 -69c-11 0 -21 1 -32 4l-56 14c-8 2 -16 3 -24 3c-19 0 -32 -11 -45 -34h-28c15 47 38 70 75 70c8 0 18 -2 28 -4l56 -14c12 -3 22 -4 29 -4c21 0 35 11 45 34h27z" />
    <glyph glyph-name="macron" unicode="&#xaf;" 
d="M155 609v35h219v-35h-219z" />
    <glyph glyph-name="breve" unicode="&#x2d8;" 
d="M140 694l23 1c6 -58 37 -81 101 -81c65 0 95 22 102 81l23 -1c-6 -80 -46 -116 -125 -116s-117 35 -124 116z" />
    <glyph glyph-name="dotaccent" unicode="&#x2d9;" 
d="M256 606v60h48v-60h-48z" />
    <glyph glyph-name="dieresis" unicode="&#xa8;" 
d="M155 599v55h46v-55h-46zM328 599v55h46v-55h-46z" />
    <glyph glyph-name="ring" unicode="&#x2da;" 
d="M168 668c0 62 50 112 112 112s111 -50 111 -112s-49 -112 -111 -112s-112 50 -112 112zM197 669c0 -46 37 -83 83 -83s82 37 82 83c0 47 -35 82 -82 82c-46 0 -83 -36 -83 -82z" />
    <glyph glyph-name="cedilla" unicode="&#xb8;" 
d="M142 -202v27c39 -10 75 -16 110 -16c44 0 69 20 69 52c0 39 -26 56 -79 56c-7 0 -15 0 -23 -1v84h20v-59h11c67 0 99 -26 99 -76c0 -52 -36 -82 -100 -82c-35 0 -70 6 -107 15z" />
    <glyph glyph-name="hungarumlaut" unicode="&#x2dd;" 
d="M200 566l73 159h48l-96 -159h-25zM310 566l83 159h47l-105 -159h-25z" />
    <glyph glyph-name="ogonek" unicode="&#x2db;" 
d="M259 0c-53 -45 -81 -81 -81 -118c0 -39 21 -54 67 -54h32v-27h-27c-65 0 -98 25 -98 75c0 42 28 81 83 124h24z" />
    <glyph glyph-name="caron" unicode="&#x2c7;" 
d="M141 716h31l92 -132l93 132h31l-100 -159h-47z" />
    <glyph glyph-name="emdash" unicode="&#x2014;" horiz-adv-x="1000" 
d="M0 269h1000v-29h-1000v29z" />
    <glyph glyph-name="AE" unicode="&#xc6;" horiz-adv-x="821" 
d="M36 0h-53l313 592c11 20 21 42 27 70h463l-2 -38c-46 4 -86 4 -119 4h-268l58 -273h142h70c7 0 31 1 74 3l-2 -36c-34 1 -65 2 -92 2h-51h-134l37 -173c7 -31 15 -70 26 -117h110h36c25 0 54 0 85 3l-5 -37h-267c-2 23 -5 49 -11 78l-52 246h-226l-117 -224
c-10 -19 -27 -50 -42 -100zM358 626l-147 -271h203z" />
    <glyph glyph-name="ordfeminine" unicode="&#xaa;" horiz-adv-x="362" 
d="M229 314c-34 -6 -66 -9 -93 -9c-67 0 -111 35 -111 92c0 46 28 78 76 93l93 28c68 21 93 36 93 70c0 42 -33 65 -96 65c-36 0 -78 -9 -122 -25l6 25c29 10 65 19 110 19c96 0 127 -30 127 -93c0 -9 0 -19 -1 -28l-8 -178v-59h-34c3 32 7 65 9 99l5 118
c-17 -13 -36 -22 -60 -29l-82 -24c-62 -18 -88 -41 -88 -81c0 -48 32 -71 98 -71c25 0 52 5 83 14z" />
    <glyph glyph-name="Lslash" unicode="&#x141;" horiz-adv-x="419" 
d="M68 0c11 105 19 206 23 303c-31 -20 -60 -39 -86 -57l2 43c21 12 49 30 85 54c6 94 8 200 9 319h52c-7 -67 -10 -113 -11 -137l-8 -159c67 43 121 79 164 108l-3 -44c-39 -24 -93 -59 -162 -104l-8 -150c-2 -39 -3 -86 -3 -141h194c8 0 41 2 100 5l-5 -40h-343z" />
    <glyph glyph-name="Oslash" unicode="&#xd8;" horiz-adv-x="773" 
d="M200 66l331 552c-49 19 -94 25 -144 25c-190 0 -299 -114 -299 -322c0 -119 32 -198 112 -255zM228 51c51 -23 99 -32 153 -32c196 0 304 118 304 328c0 122 -38 203 -125 256zM126 -56l55 90c-91 58 -135 150 -135 281c0 225 126 361 341 361c57 0 109 -6 161 -28l46 75
h39l-55 -90c91 -44 149 -149 149 -289c0 -223 -126 -358 -353 -358c-57 0 -109 7 -165 32l-45 -74h-38z" />
    <glyph glyph-name="OE" unicode="&#x152;" horiz-adv-x="903" 
d="M500 35c18 231 26 429 28 594c-58 9 -105 14 -140 14c-192 0 -300 -114 -300 -322c0 -196 106 -303 285 -303c35 0 77 7 127 17zM672 0c-89 0 -138 0 -148 -1c-54 -5 -107 -13 -158 -13c-199 0 -320 121 -320 328c0 229 126 362 349 362c52 0 130 -14 240 -14h261l-2 -38
c-46 4 -85 4 -118 4h-200c-4 -50 -6 -85 -7 -103l-10 -170h149h70c7 0 31 1 74 3l-3 -36c-34 1 -65 2 -92 2h-51h-148l-8 -170c-2 -43 -5 -82 -6 -120h202h36c25 0 53 0 84 3l-4 -37h-190z" />
    <glyph glyph-name="ordmasculine" unicode="&#xba;" horiz-adv-x="401" 
d="M32 481c0 119 66 191 175 191c103 0 163 -63 163 -175c0 -121 -67 -193 -170 -193c-111 0 -168 62 -168 177zM206 651c-94 0 -145 -60 -145 -175c0 -100 50 -151 135 -151c94 0 144 59 144 175c0 100 -47 151 -134 151z" />
    <glyph glyph-name="ae" unicode="&#xe6;" horiz-adv-x="796" 
d="M412 320h310v6c0 101 -48 154 -136 154c-95 0 -156 -54 -174 -160zM366 305c-37 -26 -67 -35 -88 -42l-86 -28c-81 -27 -118 -53 -118 -119s44 -99 131 -99c34 0 70 8 111 20l-7 -37c-38 -8 -74 -13 -109 -13c-104 0 -163 48 -163 129c0 67 32 108 103 133l122 43
c90 32 125 50 125 100c0 58 -42 91 -124 91c-50 0 -109 -11 -167 -35l8 37c47 18 97 27 150 27c97 0 153 -32 161 -86c30 52 94 86 170 86c112 0 174 -69 174 -197c0 -9 0 -18 -1 -27h-352c-2 -27 -3 -46 -3 -58c0 -133 71 -209 189 -209c35 0 72 10 115 30v-40
c-40 -16 -81 -25 -122 -25c-140 0 -225 95 -225 244c0 19 2 44 6 75z" />
    <glyph glyph-name="dotlessi" unicode="&#x131;" horiz-adv-x="181" 
d="M120 498c-12 -218 -17 -384 -18 -498h-46c12 111 22 278 23 498h41z" />
    <glyph glyph-name="lslash" unicode="&#x142;" horiz-adv-x="190" 
d="M137 662c-9 -92 -16 -193 -21 -302c30 19 60 39 92 61l-2 -40c-29 -18 -60 -38 -92 -59c-6 -115 -10 -213 -10 -295v-27h-48c12 98 20 199 24 304c-34 -22 -59 -39 -75 -50l1 40c17 10 42 25 75 48c7 106 9 193 9 258c0 7 0 28 -1 62h48z" />
    <glyph glyph-name="oslash" unicode="&#xf8;" horiz-adv-x="535" 
d="M164 37c32 -16 62 -24 96 -24c127 0 195 85 195 251c0 78 -12 133 -52 172zM140 54l240 400c-32 21 -64 29 -103 29c-130 0 -198 -85 -198 -251c0 -82 17 -138 61 -178zM396 481l39 65h34l-50 -83c51 -48 74 -112 74 -202c0 -174 -87 -275 -234 -275c-40 0 -74 7 -110 25
l-44 -72h-34l53 89c-59 47 -82 117 -82 221c0 158 90 263 233 263c44 0 82 -9 121 -31z" />
    <glyph glyph-name="oe" unicode="&#x153;" horiz-adv-x="882" 
d="M275 481c-127 0 -194 -85 -194 -250c0 -142 64 -215 180 -215c125 0 192 83 192 248c0 145 -58 217 -178 217zM500 320h310v6c0 101 -48 154 -136 154c-95 0 -156 -54 -174 -160zM495 288c-2 -27 -3 -46 -3 -58c0 -133 71 -209 189 -209c35 0 73 10 116 30v-40
c-41 -16 -81 -25 -123 -25c-99 0 -167 45 -205 135c-39 -88 -109 -135 -202 -135c-148 0 -225 88 -225 253c0 169 88 273 233 273c104 0 172 -48 201 -143c36 96 103 143 202 143c105 0 170 -70 170 -196c0 -9 0 -18 -1 -28h-352z" />
    <glyph glyph-name="germandbls" unicode="&#xdf;" horiz-adv-x="532" 
d="M58 0c28 290 22 473 31 544c10 82 78 134 183 134c99 0 150 -48 150 -145v-10c0 -36 -2 -50 -42 -59c-45 -11 -71 -20 -71 -60c0 -27 16 -48 47 -73l69 -55c44 -35 67 -83 67 -134c0 -106 -62 -158 -188 -158c-30 0 -57 3 -85 14l-4 39c28 -15 65 -23 107 -23
c88 0 135 46 135 125c0 66 -31 89 -66 119l-59 50c-37 32 -56 64 -56 96c0 51 35 78 108 90c2 9 4 17 4 24c0 91 -22 134 -115 134c-47 0 -87 -14 -114 -40c-38 -36 -36 -85 -39 -147l-15 -319c-2 -37 -3 -86 -4 -146h-43z" />
    <glyph glyph-name="Aacute" unicode="&#xc1;" horiz-adv-x="587" 
d="M580 0h-50c-7 33 -13 59 -19 78l-82 242h-254l-105 -220c-14 -29 -28 -61 -39 -100h-51l281 582c11 22 22 47 29 80h68c8 -35 17 -59 21 -71zM322 626l-130 -273h224zM261 715l102 160h53l-125 -160h-30z" />
    <glyph glyph-name="Acircumflex" unicode="&#xc2;" horiz-adv-x="587" 
d="M580 0h-50c-7 33 -13 59 -19 78l-82 242h-254l-105 -220c-14 -29 -28 -61 -39 -100h-51l281 582c11 22 22 47 29 80h68c8 -35 17 -59 21 -71zM322 626l-130 -273h224zM193 716l99 159h48l100 -159h-31l-93 132l-93 -132h-30z" />
    <glyph glyph-name="Adieresis" unicode="&#xc4;" horiz-adv-x="587" 
d="M580 0h-50c-7 33 -13 59 -19 78l-82 242h-254l-105 -220c-14 -29 -28 -61 -39 -100h-51l281 582c11 22 22 47 29 80h68c8 -35 17 -59 21 -71zM322 626l-130 -273h224zM206 758v55h46v-55h-46zM379 758v55h46v-55h-46z" />
    <glyph glyph-name="Agrave" unicode="&#xc0;" horiz-adv-x="587" 
d="M580 0h-50c-7 33 -13 59 -19 78l-82 242h-254l-105 -220c-14 -29 -28 -61 -39 -100h-51l281 582c11 22 22 47 29 80h68c8 -35 17 -59 21 -71zM322 626l-130 -273h224zM371 716h-30l-125 159h53z" />
    <glyph glyph-name="Aring" unicode="&#xc5;" horiz-adv-x="587" 
d="M322 626l-130 -273h224zM580 0h-50c-9 45 -16 71 -18 78l-83 242h-254l-106 -220c-11 -24 -24 -57 -38 -100h-51l281 582c11 22 22 47 29 80h68c8 -35 17 -59 21 -71zM218 806c0 62 49 112 111 112s112 -50 112 -112s-50 -111 -112 -111s-111 49 -111 111zM247 807
c0 -46 36 -82 82 -82s83 36 83 82c0 47 -36 82 -83 82c-46 0 -82 -36 -82 -82z" />
    <glyph glyph-name="Atilde" unicode="&#xc3;" horiz-adv-x="587" 
d="M580 0h-50c-7 33 -13 59 -19 78l-82 242h-254l-105 -220c-14 -29 -28 -61 -39 -100h-51l281 582c11 22 22 47 29 80h68c8 -35 17 -59 21 -71zM322 626l-130 -273h224zM445 829c-17 -48 -37 -69 -75 -69c-11 0 -21 1 -32 4l-56 14c-8 2 -16 3 -24 3c-19 0 -32 -11 -45 -34
h-28c15 47 38 70 75 70c8 0 18 -2 28 -4l56 -14c12 -3 22 -4 29 -4c21 0 35 11 45 34h27z" />
    <glyph glyph-name="Ccedilla" unicode="&#xc7;" horiz-adv-x="616" 
d="M581 600c-61 29 -126 43 -194 43c-187 0 -298 -117 -298 -326c0 -196 101 -297 299 -297c61 0 115 13 170 31l-7 -51c-47 -7 -100 -14 -163 -14c-225 0 -341 116 -341 331c0 225 131 359 339 359c73 0 139 -12 189 -32zM257 -202v27c39 -10 75 -16 110 -16
c44 0 69 20 69 52c0 39 -26 56 -79 56c-7 0 -15 0 -23 -1v84h20v-59h11c67 0 99 -26 99 -76c0 -52 -36 -82 -100 -82c-35 0 -70 6 -107 15z" />
    <glyph glyph-name="Eacute" unicode="&#xc9;" horiz-adv-x="507" 
d="M63 0c16 143 28 364 35 662h399l-2 -38c-46 4 -86 4 -119 4h-232c-4 -51 -7 -85 -8 -103l-9 -170h181h70c7 0 31 1 74 3l-2 -36c-34 1 -66 2 -93 2h-50h-182l-8 -170c-2 -43 -4 -82 -5 -120h234h36c25 0 53 0 84 3l-4 -37h-399zM242 715l102 160h53l-125 -160h-30z" />
    <glyph glyph-name="Ecircumflex" unicode="&#xca;" horiz-adv-x="507" 
d="M63 0c16 143 28 364 35 662h399l-2 -38c-46 4 -86 4 -119 4h-232c-4 -51 -7 -85 -8 -103l-9 -170h181h70c7 0 31 1 74 3l-2 -36c-34 1 -66 2 -93 2h-50h-182l-8 -170c-2 -43 -4 -82 -5 -120h234h36c25 0 53 0 84 3l-4 -37h-399zM174 716l99 159h48l100 -159h-31l-93 132
l-93 -132h-30z" />
    <glyph glyph-name="Edieresis" unicode="&#xcb;" horiz-adv-x="507" 
d="M63 0c16 143 28 364 35 662h399l-2 -38c-46 4 -86 4 -119 4h-232c-4 -51 -7 -85 -8 -103l-9 -170h181h70c7 0 31 1 74 3l-2 -36c-34 1 -66 2 -93 2h-50h-182l-8 -170c-2 -43 -4 -82 -5 -120h234h36c25 0 53 0 84 3l-4 -37h-399zM187 758v55h46v-55h-46zM360 758v55h46
v-55h-46z" />
    <glyph glyph-name="Egrave" unicode="&#xc8;" horiz-adv-x="507" 
d="M63 0c16 143 28 364 35 662h399l-2 -38c-46 4 -86 4 -119 4h-232c-4 -51 -7 -85 -8 -103l-9 -170h181h70c7 0 31 1 74 3l-2 -36c-34 1 -66 2 -93 2h-50h-182l-8 -170c-2 -43 -4 -82 -5 -120h234h36c25 0 53 0 84 3l-4 -37h-399zM352 716h-30l-125 159h53z" />
    <glyph glyph-name="Iacute" unicode="&#xcd;" horiz-adv-x="222" 
d="M119 0h-50c16 127 29 348 34 662h51c-9 -70 -25 -290 -35 -662zM79 715l102 160h53l-125 -160h-30z" />
    <glyph glyph-name="Icircumflex" unicode="&#xce;" horiz-adv-x="222" 
d="M119 0h-50c16 127 29 348 34 662h51c-9 -70 -25 -290 -35 -662zM11 716l99 159h48l100 -159h-31l-93 132l-93 -132h-30z" />
    <glyph glyph-name="Idieresis" unicode="&#xcf;" horiz-adv-x="222" 
d="M119 0h-50c16 127 29 348 34 662h51c-9 -70 -25 -290 -35 -662zM24 758v55h46v-55h-46zM197 758v55h46v-55h-46z" />
    <glyph glyph-name="Igrave" unicode="&#xcc;" horiz-adv-x="222" 
d="M119 0h-50c16 127 29 348 34 662h51c-9 -70 -25 -290 -35 -662zM189 716h-30l-125 159h53z" />
    <glyph glyph-name="Ntilde" unicode="&#xd1;" horiz-adv-x="706" 
d="M63 0c16 128 29 349 34 662h58l410 -613l24 444c2 37 4 75 4 112c0 5 -1 24 -1 57h51c-28 -300 -34 -506 -34 -606c0 -5 1 -23 1 -56h-57l-415 620l-18 -405c-3 -64 -5 -136 -6 -215h-51zM505 829c-17 -48 -37 -69 -75 -69c-11 0 -21 1 -32 4l-56 14c-8 2 -16 3 -24 3
c-19 0 -32 -11 -45 -34h-28c15 47 38 70 75 70c8 0 18 -2 28 -4l56 -14c12 -3 22 -4 29 -4c21 0 35 11 45 34h27z" />
    <glyph glyph-name="Oacute" unicode="&#xd3;" horiz-adv-x="773" 
d="M372 -14c-206 0 -326 120 -326 328c0 227 127 362 341 362c220 0 340 -120 340 -332c0 -223 -127 -358 -355 -358zM88 321c0 -199 103 -302 299 -302c189 0 298 119 298 328c0 191 -105 296 -298 296c-190 0 -299 -114 -299 -322zM354 715l102 160h53l-125 -160h-30z" />
    <glyph glyph-name="Ocircumflex" unicode="&#xd4;" horiz-adv-x="773" 
d="M372 -14c-206 0 -326 120 -326 328c0 227 127 362 341 362c220 0 340 -120 340 -332c0 -223 -127 -358 -355 -358zM88 321c0 -199 103 -302 299 -302c189 0 298 119 298 328c0 191 -105 296 -298 296c-190 0 -299 -114 -299 -322zM286 716l99 159h48l100 -159h-31
l-93 132l-93 -132h-30z" />
    <glyph glyph-name="Odieresis" unicode="&#xd6;" horiz-adv-x="773" 
d="M372 -14c-206 0 -326 120 -326 328c0 227 127 362 341 362c220 0 340 -120 340 -332c0 -223 -127 -358 -355 -358zM88 321c0 -199 103 -302 299 -302c189 0 298 119 298 328c0 191 -105 296 -298 296c-190 0 -299 -114 -299 -322zM299 758v55h46v-55h-46zM472 758v55h46
v-55h-46z" />
    <glyph glyph-name="Ograve" unicode="&#xd2;" horiz-adv-x="773" 
d="M372 -14c-206 0 -326 120 -326 328c0 227 127 362 341 362c220 0 340 -120 340 -332c0 -223 -127 -358 -355 -358zM88 321c0 -199 103 -302 299 -302c189 0 298 119 298 328c0 191 -105 296 -298 296c-190 0 -299 -114 -299 -322zM464 716h-30l-125 159h53z" />
    <glyph glyph-name="Otilde" unicode="&#xd5;" horiz-adv-x="773" 
d="M372 -14c-206 0 -326 120 -326 328c0 227 127 362 341 362c220 0 340 -120 340 -332c0 -223 -127 -358 -355 -358zM88 321c0 -199 103 -302 299 -302c189 0 298 119 298 328c0 191 -105 296 -298 296c-190 0 -299 -114 -299 -322zM538 829c-17 -48 -37 -69 -75 -69
c-11 0 -21 1 -32 4l-56 14c-8 2 -16 3 -24 3c-19 0 -32 -11 -45 -34h-28c15 47 38 70 75 70c8 0 18 -2 28 -4l56 -14c12 -3 22 -4 29 -4c21 0 35 11 45 34h27z" />
    <glyph glyph-name="Scaron" unicode="&#x160;" horiz-adv-x="431" 
d="M45 22l-2 43c60 -28 109 -46 158 -46c93 0 149 52 149 122c0 41 -23 79 -69 121l-105 97c-66 61 -106 110 -106 174c0 82 69 143 166 143c47 0 89 -8 126 -23l4 -38c-35 19 -77 28 -124 28c-85 0 -132 -45 -132 -107c0 -40 22 -82 66 -123l122 -112
c58 -53 88 -93 88 -160c0 -89 -71 -156 -189 -156c-48 0 -97 15 -152 37zM114 875h31l92 -132l93 132h31l-100 -159h-47z" />
    <glyph glyph-name="Uacute" unicode="&#xda;" horiz-adv-x="661" 
d="M139 662c-9 -57 -10 -103 -12 -137l-14 -276c0 -4 -1 -8 -1 -14c0 -143 69 -215 207 -215c82 0 152 30 182 68c33 42 37 99 41 175l12 230c2 34 3 69 3 105c0 21 -1 42 -1 64h48c-3 -41 -6 -87 -9 -138l-15 -299c-8 -164 -83 -239 -265 -239c-156 0 -240 79 -240 233
c0 69 13 216 14 443h50zM298 715l102 160h53l-125 -160h-30z" />
    <glyph glyph-name="Ucircumflex" unicode="&#xdb;" horiz-adv-x="661" 
d="M139 662c-9 -57 -10 -103 -12 -137l-14 -276c0 -4 -1 -8 -1 -14c0 -143 69 -215 207 -215c82 0 152 30 182 68c33 42 37 99 41 175l12 230c2 34 3 69 3 105c0 21 -1 42 -1 64h48c-3 -41 -6 -87 -9 -138l-15 -299c-8 -164 -83 -239 -265 -239c-156 0 -240 79 -240 233
c0 69 13 216 14 443h50zM230 716l99 159h48l100 -159h-31l-93 132l-93 -132h-30z" />
    <glyph glyph-name="Udieresis" unicode="&#xdc;" horiz-adv-x="661" 
d="M139 662c-9 -57 -10 -103 -12 -137l-14 -276c0 -4 -1 -8 -1 -14c0 -143 69 -215 207 -215c82 0 152 30 182 68c33 42 37 99 41 175l12 230c2 34 3 69 3 105c0 21 -1 42 -1 64h48c-3 -41 -6 -87 -9 -138l-15 -299c-8 -164 -83 -239 -265 -239c-156 0 -240 79 -240 233
c0 69 13 216 14 443h50zM243 758v55h46v-55h-46zM416 758v55h46v-55h-46z" />
    <glyph glyph-name="Ugrave" unicode="&#xd9;" horiz-adv-x="661" 
d="M139 662c-9 -57 -10 -103 -12 -137l-14 -276c0 -4 -1 -8 -1 -14c0 -143 69 -215 207 -215c82 0 152 30 182 68c33 42 37 99 41 175l12 230c2 34 3 69 3 105c0 21 -1 42 -1 64h48c-3 -41 -6 -87 -9 -138l-15 -299c-8 -164 -83 -239 -265 -239c-156 0 -240 79 -240 233
c0 69 13 216 14 443h50zM408 716h-30l-125 159h53z" />
    <glyph glyph-name="Ydieresis" unicode="&#x178;" horiz-adv-x="434" 
d="M1 662h58c4 -21 12 -40 22 -59l140 -254l157 254c9 15 21 33 27 59h53l-222 -355l-12 -220c-1 -13 -1 -21 -1 -25c0 -16 0 -36 2 -62h-51c6 31 8 60 10 87l13 222zM130 758v55h46v-55h-46zM303 758v55h46v-55h-46z" />
    <glyph glyph-name="Zcaron" unicode="&#x17d;" horiz-adv-x="492" 
d="M11 0v51l419 579h-290c-28 0 -56 -2 -84 -7l3 39h410v-47l-422 -580h290c27 0 62 2 104 7v-42h-430zM145 875h31l92 -132l93 132h31l-100 -159h-47z" />
    <glyph glyph-name="aacute" unicode="&#xe1;" horiz-adv-x="483" 
d="M305 0c-45 -9 -88 -13 -124 -13c-89 0 -148 50 -148 131c0 66 38 112 101 133l124 41c91 30 125 51 125 100c0 60 -44 92 -129 92c-48 0 -103 -12 -162 -36l8 36c38 15 86 27 146 27c129 0 170 -43 170 -132c0 -13 0 -27 -1 -40l-11 -255v-84h-46c5 46 10 93 12 141
l7 169c-22 -19 -48 -31 -80 -41l-109 -34c-83 -26 -118 -59 -118 -117c0 -68 43 -101 131 -101c34 0 70 8 111 20zM202 556l102 160h53l-125 -160h-30z" />
    <glyph glyph-name="acircumflex" unicode="&#xe2;" horiz-adv-x="483" 
d="M305 0c-45 -9 -88 -13 -124 -13c-89 0 -148 50 -148 131c0 66 38 112 101 133l124 41c91 30 125 51 125 100c0 60 -44 92 -129 92c-48 0 -103 -12 -162 -36l8 36c38 15 86 27 146 27c129 0 170 -43 170 -132c0 -13 0 -27 -1 -40l-11 -255v-84h-46c5 46 10 93 12 141
l7 169c-22 -19 -48 -31 -80 -41l-109 -34c-83 -26 -118 -59 -118 -117c0 -68 43 -101 131 -101c34 0 70 8 111 20zM134 557l99 159h48l100 -159h-31l-93 132l-93 -132h-30z" />
    <glyph glyph-name="adieresis" unicode="&#xe4;" horiz-adv-x="483" 
d="M305 0c-45 -9 -88 -13 -124 -13c-89 0 -148 50 -148 131c0 66 38 112 101 133l124 41c91 30 125 51 125 100c0 60 -44 92 -129 92c-48 0 -103 -12 -162 -36l8 36c38 15 86 27 146 27c129 0 170 -43 170 -132c0 -13 0 -27 -1 -40l-11 -255v-84h-46c5 46 10 93 12 141
l7 169c-22 -19 -48 -31 -80 -41l-109 -34c-83 -26 -118 -59 -118 -117c0 -68 43 -101 131 -101c34 0 70 8 111 20zM147 599v55h46v-55h-46zM320 599v55h46v-55h-46z" />
    <glyph glyph-name="agrave" unicode="&#xe0;" horiz-adv-x="483" 
d="M305 0c-45 -9 -88 -13 -124 -13c-89 0 -148 50 -148 131c0 66 38 112 101 133l124 41c91 30 125 51 125 100c0 60 -44 92 -129 92c-48 0 -103 -12 -162 -36l8 36c38 15 86 27 146 27c129 0 170 -43 170 -132c0 -13 0 -27 -1 -40l-11 -255v-84h-46c5 46 10 93 12 141
l7 169c-22 -19 -48 -31 -80 -41l-109 -34c-83 -26 -118 -59 -118 -117c0 -68 43 -101 131 -101c34 0 70 8 111 20zM312 557h-30l-125 159h53z" />
    <glyph glyph-name="aring" unicode="&#xe5;" horiz-adv-x="483" 
d="M305 0c-45 -9 -88 -13 -124 -13c-89 0 -148 50 -148 131c0 66 38 112 101 133l124 41c91 30 125 51 125 100c0 60 -44 92 -129 92c-48 0 -103 -12 -162 -36l8 36c38 15 86 27 146 27c129 0 170 -43 170 -132c0 -13 0 -27 -1 -40l-11 -255v-84h-46c5 46 10 93 12 141
l7 169c-22 -19 -48 -31 -80 -41l-109 -34c-83 -26 -118 -59 -118 -117c0 -68 43 -101 131 -101c34 0 70 8 111 20zM159 656c0 62 50 112 112 112s112 -50 112 -112s-50 -112 -112 -112s-112 50 -112 112zM188 656c0 -46 37 -82 83 -82s82 36 82 82c0 47 -35 82 -82 82
c-46 0 -83 -36 -83 -82z" />
    <glyph glyph-name="atilde" unicode="&#xe3;" horiz-adv-x="483" 
d="M305 0c-45 -9 -88 -13 -124 -13c-89 0 -148 50 -148 131c0 66 38 112 101 133l124 41c91 30 125 51 125 100c0 60 -44 92 -129 92c-48 0 -103 -12 -162 -36l8 36c38 15 86 27 146 27c129 0 170 -43 170 -132c0 -13 0 -27 -1 -40l-11 -255v-84h-46c5 46 10 93 12 141
l7 169c-22 -19 -48 -31 -80 -41l-109 -34c-83 -26 -118 -59 -118 -117c0 -68 43 -101 131 -101c34 0 70 8 111 20zM386 670c-17 -48 -37 -69 -75 -69c-11 0 -21 1 -32 4l-56 14c-8 2 -16 3 -24 3c-19 0 -32 -11 -45 -34h-28c15 47 38 70 75 70c8 0 18 -2 28 -4l56 -14
c12 -3 22 -4 29 -4c21 0 35 11 45 34h27z" />
    <glyph glyph-name="ccedilla" unicode="&#xe7;" horiz-adv-x="431" 
d="M419 458c-48 16 -89 23 -126 23c-137 0 -213 -100 -213 -249c0 -135 70 -214 191 -214c47 0 92 9 133 26l-7 -43c-37 -10 -74 -14 -111 -14c-158 0 -245 86 -245 241c0 179 94 283 257 283c38 0 77 -5 119 -15zM150 -202v27c39 -10 75 -16 110 -16c44 0 69 20 69 52
c0 39 -26 56 -79 56c-7 0 -15 0 -23 -1v84h20v-59h11c67 0 99 -26 99 -76c0 -52 -36 -82 -100 -82c-35 0 -70 6 -107 15z" />
    <glyph glyph-name="eacute" unicode="&#xe9;" horiz-adv-x="473" 
d="M91 320h310v6c0 101 -48 154 -136 154c-95 0 -156 -54 -174 -160zM388 11c-43 -17 -83 -25 -116 -25c-149 0 -231 89 -231 249c0 174 87 277 227 277c106 0 171 -70 171 -196c0 -9 0 -19 -1 -28h-352c-2 -27 -4 -46 -4 -58c0 -133 72 -209 190 -209c35 0 73 10 116 30
v-40zM197 556l102 160h53l-125 -160h-30z" />
    <glyph glyph-name="ecircumflex" unicode="&#xea;" horiz-adv-x="473" 
d="M91 320h310v6c0 101 -48 154 -136 154c-95 0 -156 -54 -174 -160zM388 11c-43 -17 -83 -25 -116 -25c-149 0 -231 89 -231 249c0 174 87 277 227 277c106 0 171 -70 171 -196c0 -9 0 -19 -1 -28h-352c-2 -27 -4 -46 -4 -58c0 -133 72 -209 190 -209c35 0 73 10 116 30
v-40zM129 557l99 159h48l100 -159h-31l-93 132l-93 -132h-30z" />
    <glyph glyph-name="edieresis" unicode="&#xeb;" horiz-adv-x="473" 
d="M91 320h310v6c0 101 -48 154 -136 154c-95 0 -156 -54 -174 -160zM388 11c-43 -17 -83 -25 -116 -25c-149 0 -231 89 -231 249c0 174 87 277 227 277c106 0 171 -70 171 -196c0 -9 0 -19 -1 -28h-352c-2 -27 -4 -46 -4 -58c0 -133 72 -209 190 -209c35 0 73 10 116 30
v-40zM142 599v55h46v-55h-46zM315 599v55h46v-55h-46z" />
    <glyph glyph-name="egrave" unicode="&#xe8;" horiz-adv-x="473" 
d="M91 320h310v6c0 101 -48 154 -136 154c-95 0 -156 -54 -174 -160zM388 11c-43 -17 -83 -25 -116 -25c-149 0 -231 89 -231 249c0 174 87 277 227 277c106 0 171 -70 171 -196c0 -9 0 -19 -1 -28h-352c-2 -27 -4 -46 -4 -58c0 -133 72 -209 190 -209c35 0 73 10 116 30
v-40zM307 557h-30l-125 159h53z" />
    <glyph glyph-name="iacute" unicode="&#xed;" horiz-adv-x="181" 
d="M120 498c-12 -218 -17 -384 -18 -498h-46c12 111 22 278 23 498h41zM51 556l102 160h53l-125 -160h-30z" />
    <glyph glyph-name="icircumflex" unicode="&#xee;" horiz-adv-x="181" 
d="M120 498c-12 -218 -17 -384 -18 -498h-46c12 111 22 278 23 498h41zM-17 557l99 159h48l100 -159h-31l-93 132l-93 -132h-30z" />
    <glyph glyph-name="idieresis" unicode="&#xef;" horiz-adv-x="181" 
d="M120 498c-12 -218 -17 -384 -18 -498h-46c12 111 22 278 23 498h41zM-4 599v55h46v-55h-46zM169 599v55h46v-55h-46z" />
    <glyph glyph-name="igrave" unicode="&#xec;" horiz-adv-x="181" 
d="M120 498c-12 -218 -17 -384 -18 -498h-46c12 111 22 278 23 498h41zM161 557h-30l-125 159h53z" />
    <glyph glyph-name="ntilde" unicode="&#xf1;" horiz-adv-x="539" 
d="M56 0c16 166 25 333 26 498h40l-6 -101c46 77 107 115 189 115c111 0 168 -53 168 -156c0 -52 -9 -171 -14 -356h-43c19 205 22 320 22 343c0 92 -46 138 -135 138c-84 0 -156 -55 -181 -148c-9 -32 -19 -144 -21 -333h-45zM414 670c-17 -48 -37 -69 -75 -69
c-11 0 -21 1 -32 4l-56 14c-8 2 -16 3 -24 3c-19 0 -32 -11 -45 -34h-28c15 47 38 70 75 70c8 0 18 -2 28 -4l56 -14c12 -3 22 -4 29 -4c21 0 35 11 45 34h27z" />
    <glyph glyph-name="oacute" unicode="&#xf3;" horiz-adv-x="535" 
d="M42 238c0 170 88 274 234 274c137 0 217 -90 217 -250c0 -174 -89 -276 -226 -276c-148 0 -225 88 -225 252zM275 481c-126 0 -194 -85 -194 -250c0 -142 67 -215 180 -215c126 0 192 84 192 250c0 142 -62 215 -178 215zM228 556l102 160h53l-125 -160h-30z" />
    <glyph glyph-name="ocircumflex" unicode="&#xf4;" horiz-adv-x="535" 
d="M42 238c0 170 88 274 234 274c137 0 217 -90 217 -250c0 -174 -89 -276 -226 -276c-148 0 -225 88 -225 252zM275 481c-126 0 -194 -85 -194 -250c0 -142 67 -215 180 -215c126 0 192 84 192 250c0 142 -62 215 -178 215zM160 557l99 159h48l100 -159h-31l-93 132
l-93 -132h-30z" />
    <glyph glyph-name="odieresis" unicode="&#xf6;" horiz-adv-x="535" 
d="M42 238c0 170 88 274 234 274c137 0 217 -90 217 -250c0 -174 -89 -276 -226 -276c-148 0 -225 88 -225 252zM275 481c-126 0 -194 -85 -194 -250c0 -142 67 -215 180 -215c126 0 192 84 192 250c0 142 -62 215 -178 215zM173 599v55h46v-55h-46zM346 599v55h46v-55h-46z
" />
    <glyph glyph-name="ograve" unicode="&#xf2;" horiz-adv-x="535" 
d="M42 238c0 170 88 274 234 274c137 0 217 -90 217 -250c0 -174 -89 -276 -226 -276c-148 0 -225 88 -225 252zM275 481c-126 0 -194 -85 -194 -250c0 -142 67 -215 180 -215c126 0 192 84 192 250c0 142 -62 215 -178 215zM338 557h-30l-125 159h53z" />
    <glyph glyph-name="otilde" unicode="&#xf5;" horiz-adv-x="535" 
d="M42 238c0 170 88 274 234 274c137 0 217 -90 217 -250c0 -174 -89 -276 -226 -276c-148 0 -225 88 -225 252zM275 481c-126 0 -194 -85 -194 -250c0 -142 67 -215 180 -215c126 0 192 84 192 250c0 142 -62 215 -178 215zM412 670c-17 -48 -37 -69 -75 -69
c-11 0 -21 1 -32 4l-56 14c-8 2 -16 3 -24 3c-19 0 -32 -11 -45 -34h-28c15 47 38 70 75 70c8 0 18 -2 28 -4l56 -14c12 -3 22 -4 29 -4c21 0 35 11 45 34h27z" />
    <glyph glyph-name="scaron" unicode="&#x161;" horiz-adv-x="373" 
d="M16 48c48 -22 94 -33 143 -33c85 0 132 39 132 96c0 31 -16 53 -47 78l-109 88c-54 43 -80 82 -80 126c0 66 57 109 163 109c43 0 79 -5 107 -16l3 -35c-29 12 -64 23 -106 23c-85 0 -131 -32 -131 -80c0 -26 17 -57 48 -82l114 -93c50 -41 74 -78 74 -127
c0 -66 -58 -117 -161 -117c-41 0 -91 8 -149 23zM78 716h31l92 -132l93 132h31l-100 -159h-47z" />
    <glyph glyph-name="uacute" unicode="&#xfa;" horiz-adv-x="539" 
d="M487 498c-16 -166 -25 -333 -26 -498h-41l7 101c-46 -77 -107 -114 -189 -114c-111 0 -169 52 -169 155c0 52 9 170 14 356h44c-19 -205 -23 -319 -23 -342c0 -92 46 -139 135 -139c84 0 156 55 181 148c9 32 20 144 22 333h45zM230 556l102 160h53l-125 -160h-30z" />
    <glyph glyph-name="ucircumflex" unicode="&#xfb;" horiz-adv-x="539" 
d="M487 498c-16 -166 -25 -333 -26 -498h-41l7 101c-46 -77 -107 -114 -189 -114c-111 0 -169 52 -169 155c0 52 9 170 14 356h44c-19 -205 -23 -319 -23 -342c0 -92 46 -139 135 -139c84 0 156 55 181 148c9 32 20 144 22 333h45zM162 557l99 159h48l100 -159h-31l-93 132
l-93 -132h-30z" />
    <glyph glyph-name="udieresis" unicode="&#xfc;" horiz-adv-x="539" 
d="M487 498c-16 -166 -25 -333 -26 -498h-41l7 101c-46 -77 -107 -114 -189 -114c-111 0 -169 52 -169 155c0 52 9 170 14 356h44c-19 -205 -23 -319 -23 -342c0 -92 46 -139 135 -139c84 0 156 55 181 148c9 32 20 144 22 333h45zM175 599v55h46v-55h-46zM348 599v55h46
v-55h-46z" />
    <glyph glyph-name="ugrave" unicode="&#xf9;" horiz-adv-x="539" 
d="M487 498c-16 -166 -25 -333 -26 -498h-41l7 101c-46 -77 -107 -114 -189 -114c-111 0 -169 52 -169 155c0 52 9 170 14 356h44c-19 -205 -23 -319 -23 -342c0 -92 46 -139 135 -139c84 0 156 55 181 148c9 32 20 144 22 333h45zM340 557h-30l-125 159h53z" />
    <glyph glyph-name="ydieresis" unicode="&#xff;" horiz-adv-x="436" 
d="M184 -84c-45 -100 -87 -144 -166 -144c-14 0 -35 3 -62 10l-2 40c28 -11 53 -16 73 -16c65 0 106 55 148 173l-159 519h47c4 -33 11 -57 16 -74l120 -391l173 393c6 15 15 39 24 72h48zM123 599v55h46v-55h-46zM296 599v55h46v-55h-46z" />
    <glyph glyph-name="zcaron" unicode="&#x17e;" horiz-adv-x="431" 
d="M8 0v45l364 421h-237c-23 0 -51 0 -83 -6v38h353v-43l-364 -424h256c16 0 44 3 84 10v-41h-373zM107 716h31l92 -132l93 132h31l-100 -159h-47z" />
    <glyph glyph-name="trademark" unicode="&#x2122;" horiz-adv-x="833" 
d="M339 710v-25h-85v-234h-33v234h-87v25h205zM452 710l85 -215l79 215h50v-259h-29v234l-88 -234h-24l-93 234v-234h-29v259h49z" />
    <glyph glyph-name="copyright" unicode="&#xa9;" horiz-adv-x="833" 
d="M416 709c97 0 186 -37 254 -105c67 -67 103 -156 103 -252c0 -98 -36 -184 -103 -250c-70 -69 -160 -107 -254 -107c-95 0 -183 38 -251 106s-105 156 -105 251c0 94 37 184 106 254c66 67 153 103 250 103zM738 352c0 87 -33 167 -93 227c-62 62 -142 95 -229 95
s-166 -33 -225 -93c-62 -63 -96 -144 -96 -229s34 -165 95 -226s141 -95 226 -95c84 0 166 34 229 96c60 59 93 137 93 225zM528 448c-13 53 -54 84 -111 84c-81 0 -130 -65 -130 -181c0 -112 51 -178 130 -178c59 0 105 36 117 94h50c-7 -80 -77 -136 -170 -136
c-110 0 -184 83 -184 223c0 136 78 220 190 220c86 0 151 -52 159 -126h-51z" />
    <glyph glyph-name="logicalnot" unicode="&#xac;" horiz-adv-x="833" 
d="M709 418v-245h-39v206h-546v39h585z" />
    <glyph glyph-name="registered" unicode="&#xae;" horiz-adv-x="833" 
d="M416 709c97 0 186 -37 254 -105c67 -67 103 -156 103 -252c0 -98 -36 -184 -103 -250c-70 -69 -160 -107 -254 -107c-95 0 -183 38 -251 106s-105 156 -105 251c0 94 37 184 106 254c66 67 153 103 250 103zM738 352c0 87 -33 167 -93 227c-62 62 -142 95 -229 95
s-166 -33 -225 -93c-62 -63 -96 -144 -96 -229s34 -165 95 -226s141 -95 226 -95c84 0 166 34 229 96c60 59 93 137 93 225zM427 564c114 0 170 -34 170 -114c0 -57 -38 -100 -99 -107l93 -192h-64l-89 184h-104v-184h-56v413h149zM416 526h-82v-153h82c87 0 124 16 124 79
c0 52 -41 74 -124 74z" />
    <glyph glyph-name="minus" unicode="&#x2212;" horiz-adv-x="833" 
d="M709 318v-39h-585v39h585z" />
    <glyph glyph-name="Eth" unicode="&#xd0;" horiz-adv-x="707" 
d="M68 0c12 109 20 216 24 323h-40c-4 0 -20 0 -47 -1l2 34c17 0 27 -1 30 -1c5 0 25 1 57 1c3 50 6 151 8 306h245c83 0 149 -1 205 -43c73 -54 111 -144 111 -266c0 -105 -31 -191 -92 -254c-78 -81 -163 -99 -279 -99h-224zM119 32h107h39c72 0 133 2 192 31
c105 51 165 154 165 291c0 107 -32 188 -83 229c-55 44 -108 47 -173 47h-32h-187l-14 -274c85 0 165 0 240 1l-3 -36c-78 2 -123 2 -136 2h-103l-5 -96c-2 -44 -4 -110 -7 -195z" />
    <glyph glyph-name="Thorn" unicode="&#xde;" horiz-adv-x="479" 
d="M95 662h48c-3 -53 -5 -106 -9 -159h149c110 0 169 -36 169 -148c0 -117 -89 -196 -225 -196c-27 0 -51 4 -75 13l-7 35c27 -10 53 -16 79 -16c110 0 184 62 184 164c0 99 -50 116 -152 116h-121c-15 -191 -22 -340 -22 -450v-21h-52c17 142 27 363 34 662z" />
    <glyph glyph-name="Yacute" unicode="&#xdd;" horiz-adv-x="434" 
d="M1 662h58c4 -21 12 -40 22 -59l140 -254l157 254c9 15 21 33 27 59h53l-222 -355l-12 -220c-1 -13 -1 -21 -1 -25c0 -16 0 -36 2 -62h-51c6 31 8 60 10 87l13 222zM185 715l102 160h53l-125 -160h-30z" />
    <glyph glyph-name="brokenbar" unicode="&#xa6;" 
d="M272 699v-370h-44v370h44zM272 199v-370h-44v370h44z" />
    <glyph glyph-name="degree" unicode="&#xb0;" horiz-adv-x="329" 
d="M165 708c73 0 133 -60 133 -134c0 -73 -59 -133 -134 -133s-133 59 -133 133c0 75 60 134 134 134zM269 574c0 57 -47 104 -104 104c-58 0 -104 -46 -104 -104s47 -104 104 -104c58 0 104 47 104 104z" />
    <glyph glyph-name="divide" unicode="&#xf7;" horiz-adv-x="833" 
d="M417 515c27 0 48 -21 48 -48c0 -26 -21 -49 -48 -49s-48 22 -48 49s22 48 48 48zM709 318v-39h-585v39h585zM417 179c27 0 48 -23 48 -49c0 -27 -21 -48 -48 -48s-48 20 -48 48c0 26 22 49 48 49z" />
    <glyph glyph-name="eth" unicode="&#xf0;" horiz-adv-x="535" 
d="M423 437c-13 42 -30 83 -53 125c-43 -11 -91 -24 -144 -37l-5 29c46 9 91 20 136 32c-13 25 -28 50 -45 76l33 14c19 -28 35 -55 49 -79c24 5 45 13 66 22l8 -30c-22 -6 -42 -11 -60 -17c57 -111 86 -215 86 -317c0 -172 -85 -270 -235 -270c-138 0 -217 90 -217 246
c0 163 89 262 230 262c60 0 107 -17 151 -56zM275 461c-127 0 -194 -82 -194 -242c0 -131 70 -204 183 -204c122 0 189 81 189 240c0 136 -62 206 -178 206z" />
    <glyph glyph-name="mu" unicode="&#xb5;" horiz-adv-x="534" 
d="M159 519l-60 -288c-5 -25 -8 -47 -8 -69c0 -82 40 -126 114 -126c80 0 144 69 174 206l61 277h59l-81 -384c-7 -33 -12 -55 -12 -66c0 -20 11 -31 33 -31c2 0 8 0 19 1l-9 -47c-14 -3 -27 -6 -37 -6c-44 0 -65 20 -65 62c0 6 1 14 2 22c-28 -54 -82 -84 -152 -84
c-64 0 -113 31 -134 84l-58 -277h-59l154 726h59z" />
    <glyph glyph-name="multiply" unicode="&#xd7;" horiz-adv-x="833" 
d="M417 326l238 238l28 -28l-238 -238l238 -238l-28 -28l-238 238l-238 -238l-28 28l238 238l-238 238l28 28z" />
    <glyph glyph-name="onehalf" unicode="&#xbd;" horiz-adv-x="797" 
d="M160 292h-30c3 27 6 50 7 69l13 210c1 9 2 31 2 66c-10 -6 -21 -11 -33 -16v23c11 5 22 12 33 19h29c-3 -37 -5 -67 -7 -91l-10 -164c-2 -27 -3 -66 -4 -116zM606 676h42l-455 -690h-45zM498 0l1 23l67 64c100 96 162 158 162 213c0 40 -35 62 -104 62
c-36 0 -68 -5 -100 -16l5 21c32 8 64 12 95 12c85 0 128 -28 128 -79c0 -48 -44 -104 -124 -180l-107 -102h113c29 0 62 0 98 4l-1 -22h-233z" />
    <glyph glyph-name="onequarter" unicode="&#xbc;" horiz-adv-x="797" 
d="M160 292h-30c3 27 6 50 7 69l13 210c1 9 2 31 2 66c-10 -6 -21 -11 -33 -16v23c11 5 22 12 33 19h29c-3 -37 -5 -67 -7 -91l-10 -164c-2 -27 -3 -66 -4 -116zM606 676h42l-455 -690h-45zM691 67v-2v-65h-29c5 39 7 62 7 69l3 73h-165v25l132 165c11 13 21 26 30 39h40
c-5 -61 -7 -96 -8 -106l-5 -104h22c5 0 20 1 42 3v-23c-8 1 -17 1 -23 1h-14h-28zM529 161h144l11 192z" />
    <glyph glyph-name="onesuperior" unicode="&#xb9;" horiz-adv-x="330" 
d="M168 265h-32c4 29 6 54 8 74l13 225c1 10 2 33 2 71c-11 -6 -22 -12 -35 -17v24c12 6 24 13 35 20h30c-3 -39 -5 -72 -6 -97l-11 -176c-2 -29 -3 -70 -4 -124z" />
    <glyph glyph-name="plusminus" unicode="&#xb1;" horiz-adv-x="833" 
d="M436 567v-173h273v-39h-273v-172h-39v172h-273v39h273v173h39zM709 69v-39h-585v39h585z" />
    <glyph glyph-name="thorn" unicode="&#xfe;" horiz-adv-x="539" 
d="M104 108l-10 -177c-2 -44 -4 -91 -4 -142h-49c40 389 48 659 48 788c0 32 -1 60 -2 85h50c-7 -72 -12 -131 -15 -176c50 17 101 25 150 25c144 0 221 -86 221 -250c0 -175 -83 -276 -214 -276c-87 0 -144 41 -175 123zM124 457c-9 -81 -12 -155 -12 -218
c0 -151 55 -227 163 -227c113 0 180 85 180 241s-62 231 -193 231c-45 0 -91 -9 -138 -27z" />
    <glyph glyph-name="threequarters" unicode="&#xbe;" horiz-adv-x="797" 
d="M49 660c30 7 60 11 90 11c80 0 123 -32 123 -87c0 -50 -32 -86 -87 -97c60 -6 93 -37 93 -88c0 -70 -59 -115 -153 -115c-35 0 -68 5 -102 15l-2 25c35 -15 66 -21 96 -21c88 0 134 33 134 93c0 56 -34 82 -106 82c-11 0 -27 -1 -46 -2l1 18h14c88 0 132 30 132 87
c0 49 -33 74 -100 74c-31 0 -61 -5 -91 -15zM606 676h42l-455 -690h-45zM691 67v-2v-65h-29c5 39 7 62 7 69l3 73h-165v25l132 165c11 13 21 26 30 39h40c-5 -61 -7 -96 -8 -106l-5 -104h22c5 0 20 1 42 3v-23c-8 1 -17 1 -23 1h-14h-28zM529 161h144l11 192z" />
    <glyph glyph-name="threesuperior" unicode="&#xb3;" horiz-adv-x="330" 
d="M51 660c32 7 63 11 95 11c83 0 129 -34 129 -93c0 -53 -34 -92 -92 -104c63 -7 98 -39 98 -94c0 -75 -63 -123 -161 -123c-36 0 -70 5 -106 16l-2 26c36 -15 69 -23 100 -23c92 0 141 36 141 100c0 60 -36 88 -111 88c-12 0 -28 -1 -49 -2l1 19h15c92 0 138 32 138 94
c0 52 -34 79 -104 79c-33 0 -64 -5 -95 -16z" />
    <glyph glyph-name="twosuperior" unicode="&#xb2;" horiz-adv-x="330" 
d="M17 265l1 25l70 69c105 102 169 169 169 228c0 43 -36 66 -108 66c-37 0 -72 -5 -105 -18l5 23c34 8 67 13 100 13c89 0 133 -30 133 -85c0 -51 -45 -111 -129 -193l-112 -109h118c30 0 65 1 103 5l-1 -24h-244z" />
    <glyph glyph-name="yacute" unicode="&#xfd;" horiz-adv-x="436" 
d="M184 -84c-45 -100 -87 -144 -166 -144c-14 0 -35 3 -62 10l-2 40c28 -11 53 -16 73 -16c65 0 106 55 148 173l-159 519h47c4 -33 11 -57 16 -74l120 -391l173 393c6 15 15 39 24 72h48zM178 556l102 160h53l-125 -160h-30z" />
    </font>
</defs>
</svg>
