<?xml version="1.0" standalone="no"?>
<!DOCTYPE svg PUBLIC "-//W3C//DTD SVG 1.1//EN" "http://www.w3.org/Graphics/SVG/1.1/DTD/svg11.dtd" >
<svg>
<metadata>
Created by FontForge 20120731 at Sun Jun 30 18:17:08 2019
 By www
Copyright 1990 as an unpublished work by Bitstream Inc.  All rights reserved.  Confidential.
</metadata>
<defs>
<font id="ErasITCbyBT-Demi" horiz-adv-x="500" >
  <font-face 
    font-family="ITC Eras"
    font-weight="700"
    font-style="italic"
    font-stretch="normal"
    units-per-em="1000"
    panose-1="0 0 0 0 0 0 0 0 0 0"
    ascent="800"
    descent="-200"
    x-height="509"
    cap-height="662"
    bbox="-167 -250 1172 946"
    underline-thickness="104"
    underline-position="-53"
    slope="3"
    stemh="110"
    stemv="132"
    unicode-range="U+0020-FB02"
  />
<missing-glyph horiz-adv-x="294" 
 />
    <glyph glyph-name=".notdef" horiz-adv-x="294" 
 />
    <glyph glyph-name="space" unicode=" " horiz-adv-x="294" 
 />
    <glyph glyph-name="exclam" unicode="!" horiz-adv-x="317" 
d="M84 148h140l-8 -148h-139zM92 189l3 202c1 55 3 145 3 271h158c-5 -51 -12 -137 -19 -257l-13 -216h-132z" />
    <glyph glyph-name="quotedbl" unicode="&#x22;" horiz-adv-x="331" 
d="M39 702h94v-273h-94v273zM198 702h94v-273h-94v273z" />
    <glyph glyph-name="numbersign" unicode="#" horiz-adv-x="769" 
d="M346 715h108l-71 -203h118l72 203h108l-72 -203h138l-36 -98h-137l-41 -118h142l-35 -98h-142l-72 -203h-108l72 203h-119l-73 -203h-107l71 203h-140l37 98h138l42 118h-146l36 98h145zM346 414l-43 -118h123l42 118h-122z" />
    <glyph glyph-name="dollar" unicode="$" horiz-adv-x="588" 
d="M378 674l-2 -54c32 -3 63 -9 91 -17l11 -105c-43 11 -84 22 -131 22c-40 0 -65 -20 -65 -42c0 -23 19 -34 45 -57l79 -71c50 -45 80 -80 80 -136c0 -88 -54 -150 -143 -158v-52h-104l2 48c-29 3 -62 11 -98 24l-5 116c51 -23 95 -37 135 -37c57 0 88 22 88 58
c0 28 -20 40 -41 59l-92 82c-50 44 -75 84 -75 138c0 65 44 114 120 127v55h105z" />
    <glyph glyph-name="percent" unicode="%" horiz-adv-x="824" 
d="M617 662l-331 -662h-78l330 662h79zM203 602c-53 0 -77 -43 -77 -130c0 -70 19 -104 66 -104c56 0 79 43 79 133c0 68 -20 101 -68 101zM33 463c0 140 60 214 172 214c102 0 159 -63 159 -177c0 -138 -60 -209 -176 -209c-98 0 -155 61 -155 172zM465 164
c0 140 60 214 172 214c102 0 159 -63 159 -177c0 -138 -57 -209 -169 -209c-105 0 -162 60 -162 172zM636 302c-53 0 -78 -43 -78 -130c0 -70 20 -104 67 -104c56 0 78 43 78 133c0 68 -19 101 -67 101z" />
    <glyph glyph-name="ampersand" unicode="&#x26;" horiz-adv-x="659" 
d="M484 37c-39 -33 -108 -54 -200 -54c-169 0 -261 70 -261 183c0 92 51 156 159 207c-35 55 -54 102 -54 146c0 98 77 157 219 157c47 0 89 -5 126 -14l5 -117c-63 22 -110 32 -138 32c-53 0 -82 -30 -82 -74c0 -54 54 -118 146 -216l76 -80c10 26 15 53 15 83v8h127
c1 -9 1 -18 1 -27c0 -56 -16 -109 -48 -156l113 -115h-169zM250 287c-58 -34 -87 -66 -87 -109c0 -52 42 -88 109 -88c49 0 90 12 125 38c-48 55 -97 107 -147 159z" />
    <glyph glyph-name="quoteright" unicode="&#x2019;" horiz-adv-x="294" 
d="M66 468l59 194h142l-102 -194h-99z" />
    <glyph glyph-name="parenleft" unicode="(" horiz-adv-x="322" 
d="M125 -167c-33 132 -50 256 -50 374c0 151 28 316 85 481h123c-43 -150 -65 -311 -65 -474c0 -129 10 -256 30 -381h-123z" />
    <glyph glyph-name="parenright" unicode=")" horiz-adv-x="322" 
d="M193 688c33 -133 50 -257 50 -374c0 -151 -28 -316 -85 -481h-123c43 150 65 311 65 474c0 129 -10 256 -30 381h123z" />
    <glyph glyph-name="asterisk" unicode="*" 
d="M260 444l-77 -102l-77 63l83 81l-111 39l42 93l99 -52l-5 108h102l-8 -110l102 53l38 -98l-117 -35l85 -87l-79 -64z" />
    <glyph glyph-name="plus" unicode="+" horiz-adv-x="833" 
d="M367 596h99v-249h243v-97h-243v-250h-99v250h-243v97h243v249z" />
    <glyph glyph-name="comma" unicode="," horiz-adv-x="294" 
d="M100 148h147l-126 -239h-94z" />
    <glyph glyph-name="hyphen" unicode="-" horiz-adv-x="338" 
d="M290 206h-238l9 112h238z" />
    <glyph glyph-name="period" unicode="." horiz-adv-x="294" 
d="M81 148h139l-8 -148h-139z" />
    <glyph glyph-name="slash" unicode="/" horiz-adv-x="275" 
d="M30 -93h-73l242 755h78z" />
    <glyph glyph-name="zero" unicode="0" horiz-adv-x="588" 
d="M283 102c88 0 136 97 136 286c0 108 -44 172 -113 172c-85 0 -138 -97 -138 -272c0 -123 41 -186 115 -186zM553 375c0 -248 -107 -389 -276 -389c-159 0 -242 103 -242 305c0 242 107 385 276 385c158 0 242 -103 242 -301z" />
    <glyph glyph-name="one" unicode="1" horiz-adv-x="588" 
d="M349 0h-136c5 38 8 79 11 123l18 280c1 24 2 52 2 83v36c-20 -9 -50 -25 -88 -48l7 133c30 15 64 34 100 55h120c-7 -48 -9 -102 -12 -162l-16 -293c-3 -49 -5 -118 -6 -207z" />
    <glyph glyph-name="two" unicode="2" horiz-adv-x="588" 
d="M70 -1v123l83 71c160 136 242 230 242 295c0 50 -41 77 -119 77c-56 0 -118 -11 -190 -30l21 117c70 14 132 22 183 22c160 0 244 -59 244 -163c0 -85 -77 -181 -222 -315l-94 -86h157c48 0 93 3 136 9l-5 -120h-436z" />
    <glyph glyph-name="three" unicode="3" horiz-adv-x="588" 
d="M34 132c42 -16 97 -26 160 -26c125 0 189 35 189 99c0 58 -57 81 -175 81c-20 0 -40 -1 -63 -2l7 99c146 0 217 28 217 98c0 57 -50 85 -149 85c-60 0 -114 -9 -158 -23l29 109c69 16 136 24 203 24c152 0 227 -53 227 -160c0 -86 -47 -144 -138 -168
c99 -16 149 -71 149 -161c0 -124 -99 -201 -273 -201c-68 0 -143 11 -212 31z" />
    <glyph glyph-name="four" unicode="4" horiz-adv-x="588" 
d="M481 662c-9 -54 -14 -118 -17 -192l-7 -161h40c15 0 38 2 69 7l-3 -118c-13 2 -29 2 -48 2h-62l-4 -81c-1 -21 -1 -42 -1 -62s0 -39 1 -57h-146c8 65 11 106 11 124l2 76h-294v119l213 274c5 6 20 29 47 69h199zM162 305h167l17 263z" />
    <glyph glyph-name="five" unicode="5" horiz-adv-x="588" 
d="M52 3l-3 125c50 -13 99 -20 147 -20c124 0 188 40 188 107c0 60 -53 91 -159 91c-46 0 -97 -5 -154 -16l39 372h417v-118c-57 4 -101 6 -133 6h-159l-11 -153c24 4 45 5 64 5c147 0 240 -73 240 -190c0 -146 -107 -226 -310 -226c-61 0 -116 5 -166 17z" />
    <glyph glyph-name="six" unicode="6" horiz-adv-x="588" 
d="M277 662h158c-178 -195 -269 -337 -269 -434c0 -76 45 -119 123 -119c70 0 123 50 123 112c0 57 -46 93 -126 93c-16 0 -33 -1 -51 -4l40 104c18 3 36 4 52 4c135 0 216 -81 216 -209c0 -130 -104 -223 -259 -223c-156 0 -257 88 -257 226c0 122 92 256 250 450z" />
    <glyph glyph-name="seven" unicode="7" horiz-adv-x="588" 
d="M339 405c18 40 40 91 71 150h-231c-36 0 -70 0 -102 -4l6 115c33 -4 60 -4 80 -4h22h352v-120l-183 -420c-7 -17 -22 -58 -42 -122h-152z" />
    <glyph glyph-name="eight" unicode="8" horiz-adv-x="588" 
d="M187 486c0 -59 35 -89 107 -89c78 0 118 32 118 92c0 58 -37 86 -114 86c-72 0 -111 -32 -111 -89zM283 296c-85 0 -128 -36 -128 -103c0 -61 44 -92 132 -92c87 0 129 33 129 103c0 62 -44 92 -133 92zM162 343c-69 29 -102 74 -102 140c0 125 86 193 254 193
c159 0 238 -56 238 -168c0 -91 -48 -148 -140 -168c90 -14 136 -67 136 -154c0 -130 -91 -199 -268 -199c-167 0 -253 65 -253 185c0 90 45 148 135 171z" />
    <glyph glyph-name="nine" unicode="9" horiz-adv-x="588" 
d="M306 0h-158c176 197 272 339 272 455c0 78 -40 115 -125 115c-83 0 -126 -35 -126 -103c0 -61 41 -88 126 -88c26 0 54 3 85 10l-46 -109c-28 -4 -49 -6 -65 -6c-144 0 -228 71 -228 184c0 131 96 218 256 218c165 0 259 -83 259 -221c0 -133 -94 -264 -250 -455z" />
    <glyph glyph-name="colon" unicode=":" horiz-adv-x="317" 
d="M104 498h139l-8 -148h-139zM88 148h140l-8 -148h-139z" />
    <glyph glyph-name="semicolon" unicode=";" horiz-adv-x="317" 
d="M99 498h139l-8 -148h-139zM111 148h147l-126 -239h-93z" />
    <glyph glyph-name="less" unicode="&#x3c;" horiz-adv-x="833" 
d="M704 583v-107l-436 -178l436 -178v-107l-575 237v97z" />
    <glyph glyph-name="equal" unicode="=" horiz-adv-x="833" 
d="M124 452h585v-97h-585v97zM124 242h585v-97h-585v97z" />
    <glyph glyph-name="greater" unicode="&#x3e;" horiz-adv-x="833" 
d="M129 583l575 -236v-97l-575 -237v107l437 178l-437 178v107z" />
    <glyph glyph-name="question" unicode="?" horiz-adv-x="546" 
d="M182 179l4 82c2 44 6 64 48 99c76 63 124 93 124 135c0 49 -49 74 -146 74c-52 0 -109 -8 -171 -24l26 126c52 7 104 11 158 11c186 0 281 -61 281 -166c0 -71 -42 -112 -104 -174c-50 -50 -82 -64 -85 -105l-4 -58h-131zM179 148h139l-8 -148h-139z" />
    <glyph glyph-name="at" unicode="@" horiz-adv-x="1000" 
d="M594 342c-8 53 -38 81 -85 81c-73 0 -138 -91 -138 -206c0 -60 27 -92 77 -92c52 0 103 42 120 111zM570 133c-36 -55 -82 -80 -145 -80c-104 0 -158 58 -158 166c0 158 105 275 236 275c53 0 91 -22 115 -64l26 48h87l-72 -292c-2 -8 -3 -15 -3 -20c0 -22 15 -34 46 -34
c24 0 53 12 79 37c56 52 85 123 85 206c0 152 -128 268 -324 268c-92 0 -171 -22 -236 -66c-110 -74 -172 -189 -172 -322c0 -200 146 -329 371 -329c106 0 209 33 295 93l40 -57c-100 -75 -212 -113 -333 -113c-127 0 -232 33 -312 94c-101 78 -151 180 -151 311
c0 109 35 209 101 290c96 117 233 179 400 179c113 0 212 -32 281 -85c88 -68 131 -155 131 -265c0 -108 -44 -201 -124 -265c-46 -37 -101 -56 -158 -56c-69 0 -104 27 -105 81z" />
    <glyph glyph-name="A" unicode="A" horiz-adv-x="667" 
d="M-46 0l274 581c9 18 19 45 29 81h200c10 -38 21 -76 34 -112l198 -550h-160c-7 39 -12 65 -17 78l-67 184h-230l-74 -162c-13 -27 -24 -60 -35 -100h-152zM344 572l-88 -203h159z" />
    <glyph glyph-name="B" unicode="B" horiz-adv-x="601" 
d="M324 662c160 0 241 -29 241 -150c0 -89 -56 -150 -159 -166c111 -10 166 -61 166 -158c0 -134 -89 -188 -272 -188h-261c20 164 33 385 35 662h250zM197 116h98c90 0 134 28 134 92c0 57 -36 85 -111 85h-117l-3 -62c-1 -21 -2 -42 -2 -65c0 -16 1 -33 1 -50zM208 401h73
c94 0 141 28 141 90c0 49 -30 65 -98 65h-107c-3 -41 -4 -65 -4 -73z" />
    <glyph glyph-name="C" unicode="C" horiz-adv-x="633" 
d="M605 536c-53 18 -115 30 -185 30c-154 0 -243 -86 -243 -234c0 -143 86 -219 247 -219c52 0 108 8 168 24l-15 -137c-59 -8 -117 -15 -175 -15c-241 0 -366 116 -366 331c0 233 139 361 401 361c41 0 95 -5 162 -15z" />
    <glyph glyph-name="D" unicode="D" horiz-adv-x="727" 
d="M40 0c17 153 30 374 34 662h300c84 0 148 -2 207 -46c70 -52 110 -141 110 -259c0 -220 -132 -357 -347 -357h-304zM200 116h71c74 0 131 1 184 40c56 42 86 108 86 195c0 78 -20 134 -57 166c-34 29 -80 29 -147 29h-122l-13 -290c-1 -34 -2 -67 -2 -102v-38z" />
    <glyph glyph-name="E" unicode="E" horiz-adv-x="579" 
d="M40 0c18 163 30 384 34 662h492l-5 -121c-63 3 -103 4 -118 4h-226c-5 -18 -7 -43 -9 -75l-3 -64h202c38 0 75 0 111 4l-4 -125c-32 3 -64 3 -95 3h-46h-173l-5 -69c-2 -26 -4 -53 -4 -82v-14c28 -1 59 -2 94 -2c95 0 179 3 252 10l-5 -131h-492z" />
    <glyph glyph-name="F" unicode="F" horiz-adv-x="530" 
d="M40 0c18 163 30 384 34 662h453l-6 -121c-63 3 -103 4 -118 4h-186c-5 -18 -7 -43 -9 -75l-3 -64h163c43 0 80 1 111 4l-5 -125c-32 3 -63 3 -94 3h-46h-134l-5 -69c-3 -46 -5 -94 -5 -146c0 -24 0 -48 1 -73h-151z" />
    <glyph glyph-name="G" unicode="G" horiz-adv-x="718" 
d="M653 16c-99 -21 -192 -30 -273 -30c-218 0 -344 122 -344 330c0 228 140 361 384 361c64 0 138 -10 224 -23l4 -128c-78 27 -158 39 -225 39c-161 0 -246 -84 -246 -239c0 -143 84 -216 247 -216c36 0 68 4 97 13c6 48 9 93 9 137v18h-114l7 110h256
c-14 -116 -22 -240 -26 -372z" />
    <glyph glyph-name="H" unicode="H" horiz-adv-x="750" 
d="M192 0h-152c17 153 30 374 34 662h152c-5 -43 -9 -88 -12 -137l-6 -123c58 0 116 -1 173 -1s113 1 169 1l4 91c2 43 4 84 4 124c0 15 0 30 -1 45h153c-6 -48 -11 -94 -13 -138l-19 -377c-1 -19 -2 -43 -2 -74c0 -21 1 -46 1 -73h-153c6 66 9 112 11 139l8 142
c-58 2 -115 3 -172 3s-113 -1 -169 -3l-4 -66c-3 -58 -5 -129 -6 -215z" />
    <glyph glyph-name="I" unicode="I" horiz-adv-x="278" 
d="M234 662c-6 -48 -11 -94 -13 -138l-20 -377c-1 -14 -1 -30 -1 -50c0 -26 0 -59 1 -97h-157c18 151 31 372 35 662h155z" />
    <glyph glyph-name="J" unicode="J" horiz-adv-x="428" 
d="M-21 134c51 -19 94 -30 130 -30c80 0 107 36 117 122c3 26 11 172 15 436h150c-5 -40 -8 -86 -11 -137l-13 -243c-5 -97 1 -173 -36 -224c-33 -45 -104 -72 -204 -72c-43 0 -89 5 -139 17z" />
    <glyph glyph-name="K" unicode="K" horiz-adv-x="593" 
d="M205 347l129 164c46 59 83 108 106 151h168l-243 -313l237 -349h-175c-14 33 -33 64 -54 96zM40 0c17 153 30 374 34 662h150c-5 -44 -10 -90 -12 -137l-16 -310c-3 -59 -6 -131 -7 -215h-149z" />
    <glyph glyph-name="L" unicode="L" horiz-adv-x="486" 
d="M40 0c18 163 30 384 34 662h153c-9 -45 -11 -88 -13 -127l-14 -289c-1 -21 -2 -41 -2 -60c0 -22 2 -44 3 -67c24 -1 47 -3 69 -3c85 0 156 5 215 15l-10 -131h-435z" />
    <glyph glyph-name="M" unicode="M" horiz-adv-x="880" 
d="M536 80c-9 -26 -17 -52 -24 -80h-176c-4 26 -8 50 -13 71l-111 483l-33 -377c-3 -40 -6 -99 -9 -177h-137c23 150 43 371 57 662h229c7 -38 12 -60 13 -66l103 -455l149 436c7 22 16 50 25 85h219c-4 -66 -5 -111 -6 -137l-13 -378c0 -11 -1 -25 -1 -41
c0 -28 1 -64 3 -106h-139c6 45 8 83 9 114l8 270v55c0 30 0 63 -1 100z" />
    <glyph glyph-name="N" unicode="N" horiz-adv-x="745" 
d="M440 0c-19 59 -46 119 -74 184l-165 376l-17 -354c-4 -76 -5 -145 -6 -206h-137c17 135 27 356 39 662h220l246 -555l18 400c2 37 4 75 4 117c0 12 -1 25 -1 38h137c-6 -48 -11 -94 -13 -138l-19 -377c-1 -19 -2 -43 -2 -74c0 -21 1 -46 1 -73h-231z" />
    <glyph glyph-name="O" unicode="O" horiz-adv-x="824" 
d="M412 -14c-242 0 -376 120 -376 331c0 222 142 359 376 359c243 0 376 -120 376 -332c0 -221 -142 -358 -376 -358zM186 318c0 -137 81 -216 219 -216c150 0 232 84 232 241c0 140 -78 216 -224 216s-227 -85 -227 -241z" />
    <glyph glyph-name="P" unicode="P" horiz-adv-x="553" 
d="M39 0c17 153 30 374 34 662h255h18c49 0 89 -1 120 -16c54 -27 82 -79 82 -154c0 -131 -86 -218 -228 -218c-20 0 -40 3 -64 8l-27 108c25 -7 49 -11 74 -11c72 0 113 41 113 101c0 58 -36 75 -114 75h-85c-5 -52 -8 -84 -8 -96l-10 -257c-1 -16 -2 -83 -5 -202h-155z
" />
    <glyph glyph-name="Q" unicode="Q" horiz-adv-x="824" 
d="M183 316c0 -140 83 -219 223 -219c153 0 238 87 238 243c0 141 -80 219 -229 219c-148 0 -232 -87 -232 -243zM770 12c-88 -18 -196 -28 -323 -28c-274 0 -411 111 -411 333s142 359 376 359c240 0 379 -127 379 -318c0 -110 -46 -193 -139 -252c46 4 92 15 137 30z" />
    <glyph glyph-name="R" unicode="R" horiz-adv-x="589" 
d="M39 0c17 153 30 374 34 662h278h17c50 0 90 -1 123 -17c50 -24 82 -80 82 -159c0 -90 -53 -155 -157 -192c41 -96 85 -194 134 -294h-157l-161 379c20 -3 39 -4 58 -4c99 0 148 35 148 103c0 66 -40 78 -133 78c-25 0 -54 -1 -85 -3c-6 -29 -10 -60 -11 -94l-10 -257
c-1 -16 -2 -83 -5 -202h-155z" />
    <glyph glyph-name="S" unicode="S" horiz-adv-x="487" 
d="M140 343c-69 57 -101 102 -101 170c0 102 75 162 221 162c52 0 107 -6 166 -16l8 -118c-55 19 -101 31 -143 31c-73 0 -111 -26 -111 -67c0 -16 7 -31 21 -43l161 -134c68 -56 102 -105 102 -168c0 -103 -87 -175 -236 -175c-87 0 -158 16 -197 36l-8 128
c81 -37 148 -54 195 -54c68 0 107 26 107 66c0 18 -13 40 -38 61z" />
    <glyph glyph-name="T" unicode="T" horiz-adv-x="523" 
d="M338 556l-18 -353c-3 -53 -4 -101 -4 -143c0 -21 0 -41 1 -60h-156c22 181 35 367 39 556c-16 1 -32 1 -48 1c-46 0 -95 -2 -145 -6l7 111h527l-6 -111c-46 4 -91 6 -136 6c-21 0 -41 0 -61 -1z" />
    <glyph glyph-name="U" unicode="U" horiz-adv-x="694" 
d="M218 662c-5 -46 -7 -89 -9 -126l-12 -252c0 -10 -1 -25 -1 -43c0 -94 38 -136 143 -136c128 0 155 62 159 190l7 214c1 18 1 40 1 65c0 26 0 55 -1 88h152c-7 -51 -11 -97 -13 -138l-12 -230c-4 -74 -1 -135 -21 -182c-34 -80 -132 -126 -283 -126
c-181 0 -276 75 -276 218c0 70 15 223 17 458h149z" />
    <glyph glyph-name="V" unicode="V" horiz-adv-x="654" 
d="M697 662l-283 -582c-6 -13 -16 -39 -30 -80h-184c-4 31 -13 54 -18 71l-186 591h149c3 -23 11 -49 20 -78l139 -464l209 442c7 14 19 47 37 100h147z" />
    <glyph glyph-name="W" unicode="W" horiz-adv-x="934" 
d="M982 662l-266 -582c-6 -12 -16 -39 -29 -80h-181c-3 26 -9 52 -17 79l-38 130l-44 -119c-8 -22 -19 -51 -30 -90h-184c-4 31 -13 54 -18 71l-186 591h149c4 -27 12 -53 20 -78l142 -475l100 238l-103 315h139c4 -26 9 -56 18 -89l23 -88l22 62c14 41 27 79 37 115h127
l-136 -307l72 -246l201 453c13 29 25 62 35 100h147z" />
    <glyph glyph-name="X" unicode="X" horiz-adv-x="579" 
d="M425 0c-16 35 -26 56 -31 64l-108 189l-117 -177c-14 -22 -32 -46 -45 -76h-171l263 354l-210 308h179c2 -9 9 -20 18 -35l101 -177l95 140c11 16 25 40 41 72h173l-231 -315l221 -347h-178z" />
    <glyph glyph-name="Y" unicode="Y" horiz-adv-x="472" 
d="M-39 662h171c7 -27 18 -50 27 -70l79 -167l97 166c8 15 20 38 33 71h166l-233 -362l-5 -215v-23c0 -19 0 -39 1 -62h-150c5 64 7 101 7 112l7 186z" />
    <glyph glyph-name="Z" unicode="Z" horiz-adv-x="571" 
d="M192 124h234c12 0 45 2 100 6l-7 -130h-506l5 130l361 416h-245c-15 0 -44 -2 -86 -5l9 121h493l-5 -131z" />
    <glyph glyph-name="bracketleft" unicode="[" horiz-adv-x="322" 
d="M302 575h-89l-22 -661h93l-6 -112h-230c21 285 30 581 30 885h230z" />
    <glyph glyph-name="backslash" unicode="\" horiz-adv-x="275" 
d="M187 -93l-130 755h72l131 -755h-73z" />
    <glyph glyph-name="bracketright" unicode="]" horiz-adv-x="322" 
d="M12 -87h89l23 662h-93l5 112h231c-21 -285 -31 -581 -31 -885h-229z" />
    <glyph glyph-name="asciicircum" unicode="^" horiz-adv-x="1000" 
d="M438 713h123l235 -274h-115l-181 181l-182 -181h-115z" />
    <glyph glyph-name="underscore" unicode="_" 
d="M0 -136h500v-100h-500v100z" />
    <glyph glyph-name="quoteleft" unicode="&#x2018;" horiz-adv-x="294" 
d="M259 662l-59 -194h-142l102 194h99z" />
    <glyph glyph-name="a" unicode="a" horiz-adv-x="532" 
d="M325 0c7 32 9 68 11 106l9 143c-15 -10 -31 -18 -49 -24l-66 -22c-47 -15 -71 -26 -71 -62c0 -32 23 -52 64 -52c19 0 45 6 78 15l-30 -104c-33 -9 -62 -13 -87 -13c-101 0 -162 57 -162 147c0 78 42 125 129 150l104 31c59 17 90 30 90 60c0 32 -26 52 -75 52
c-50 0 -109 -18 -179 -51l16 122c63 16 124 26 191 26c134 0 185 -41 185 -142c0 -11 0 -26 -1 -45l-10 -253c-1 -13 -1 -41 -1 -84h-146z" />
    <glyph glyph-name="b" unicode="b" horiz-adv-x="611" 
d="M178 63l-5 -63h-134c22 267 34 488 36 662h137c-3 -36 -5 -68 -6 -95l-3 -74c35 15 81 27 138 27c147 0 231 -88 231 -247c0 -180 -95 -287 -235 -287c-70 0 -121 24 -159 77zM196 383c-5 -39 -9 -83 -9 -129c0 -92 40 -141 114 -141c82 0 131 58 131 161
c0 88 -42 134 -120 134c-34 0 -74 -8 -116 -25z" />
    <glyph glyph-name="c" unicode="c" horiz-adv-x="461" 
d="M439 385c-45 13 -84 22 -119 22c-98 0 -151 -57 -151 -163c0 -92 48 -140 140 -140c36 0 78 10 128 25l-19 -121c-51 -14 -96 -22 -137 -22c-157 0 -247 93 -247 256c0 175 101 280 267 280c41 0 87 -6 138 -19v-118z" />
    <glyph glyph-name="d" unicode="d" horiz-adv-x="606" 
d="M423 500c2 34 3 69 3 104c0 19 0 39 -1 58h144c-15 -175 -27 -396 -30 -662h-132v68c-37 -53 -96 -82 -164 -82c-136 0 -211 83 -211 231c0 186 104 298 286 298c36 0 70 -5 105 -15zM421 388c-23 8 -51 12 -83 12c-105 0 -166 -62 -166 -171c0 -81 42 -128 111 -128
c83 0 130 52 134 153z" />
    <glyph glyph-name="e" unicode="e" horiz-adv-x="523" 
d="M495 246h-317c-1 -13 -1 -21 -1 -24c0 -77 49 -120 140 -120c49 0 94 10 138 31l-27 -125c-57 -14 -107 -22 -149 -22c-155 0 -247 93 -247 252c0 175 105 284 260 284c138 0 206 -73 206 -218c0 -19 -1 -38 -3 -58zM183 334h181c0 58 -30 89 -82 89
c-51 0 -89 -34 -99 -89z" />
    <glyph glyph-name="f" unicode="f" horiz-adv-x="312" 
d="M19 509h71v33c0 93 51 134 160 134c30 0 60 -2 89 -8l9 -106c-23 6 -43 9 -64 9c-49 0 -68 -11 -68 -51v-11h99l-4 -106h-89c-6 -99 -11 -233 -16 -403h-138c13 112 21 247 23 403h-72v106z" />
    <glyph glyph-name="g" unicode="g" horiz-adv-x="606" 
d="M403 52c-38 -40 -95 -62 -162 -62c-133 0 -209 84 -209 233c0 190 103 301 288 301c70 0 148 -11 236 -30c-19 -339 -14 -538 -27 -597c-17 -74 -97 -120 -228 -120c-60 0 -134 11 -223 33l-18 124c81 -37 153 -54 209 -54c103 0 135 38 135 146c0 8 -1 17 -1 26z
M421 388c-23 8 -51 12 -83 12c-105 0 -166 -62 -166 -171c0 -81 42 -128 111 -128c83 0 131 53 134 153z" />
    <glyph glyph-name="h" unicode="h" horiz-adv-x="609" 
d="M37 0c20 189 29 409 29 662h138c-9 -72 -13 -145 -13 -217c38 54 95 78 174 78c140 0 194 -52 194 -171c0 -57 -7 -158 -7 -302v-50h-141c13 153 16 251 16 293c0 86 -22 124 -95 124c-128 0 -154 -112 -154 -357v-60h-141z" />
    <glyph glyph-name="i" unicode="i" horiz-adv-x="248" 
d="M200 500c-11 -213 -15 -380 -15 -500h-143c15 164 22 330 22 500h136zM67 540l5 122h135l-5 -122h-135z" />
    <glyph glyph-name="j" unicode="j" horiz-adv-x="258" 
d="M206 500c-5 -102 -9 -161 -9 -177l-4 -231c-1 -53 -1 -84 -1 -92c0 -69 0 -120 -20 -155c-29 -51 -83 -72 -169 -72c-45 0 -87 5 -128 15l-8 115c42 -10 75 -16 101 -16c71 0 89 36 91 122l9 326c0 16 2 71 2 165h136zM73 540l6 122h134l-5 -122h-135z" />
    <glyph glyph-name="k" unicode="k" horiz-adv-x="546" 
d="M213 662c-9 -72 -18 -212 -26 -418l-9 -244h-142c16 119 31 340 35 662h142zM195 273c66 78 124 153 176 225h161l-181 -217l198 -281h-166c-60 93 -122 185 -188 273z" />
    <glyph glyph-name="l" unicode="l" horiz-adv-x="252" 
d="M215 662c-16 -147 -24 -287 -26 -418l-3 -244h-148c16 119 30 340 34 662h143z" />
    <glyph glyph-name="m" unicode="m" horiz-adv-x="833" 
d="M37 0c17 161 25 331 25 509h130v-62c40 55 85 76 153 76c55 0 96 -18 136 -59c41 41 80 59 136 59c120 0 165 -54 165 -173c0 -61 -5 -158 -5 -291v-59h-140c13 166 17 277 17 333c0 55 -22 82 -65 82c-96 0 -115 -119 -115 -373v-42h-135c15 176 18 281 18 312
c0 70 -14 103 -67 103c-93 0 -114 -116 -114 -362v-53h-139z" />
    <glyph glyph-name="n" unicode="n" horiz-adv-x="609" 
d="M37 0c17 161 25 331 25 509h130v-62c45 55 97 76 173 76c140 0 194 -52 194 -171c0 -57 -7 -158 -7 -302v-50h-141c13 153 16 252 16 294c0 86 -22 123 -94 123c-124 0 -155 -107 -155 -342c0 -24 0 -49 1 -75h-142z" />
    <glyph glyph-name="o" unicode="o" horiz-adv-x="600" 
d="M34 243c0 173 104 280 275 280c164 0 257 -93 257 -255c0 -178 -103 -282 -277 -282c-163 0 -255 93 -255 257zM306 412c-87 0 -132 -56 -132 -168c0 -98 41 -148 121 -148c87 0 130 55 130 168c0 99 -39 148 -119 148z" />
    <glyph glyph-name="p" unicode="p" horiz-adv-x="606" 
d="M197 394c-8 -42 -10 -83 -10 -126c0 -113 32 -166 116 -166c79 0 127 58 127 163c0 98 -45 147 -137 147c-33 0 -65 -6 -96 -18zM25 -211c21 128 33 361 40 700c79 23 155 34 227 34c186 0 279 -86 279 -254c0 -170 -106 -283 -249 -283c-59 0 -108 19 -145 53l-6 -109
c-2 -45 -3 -92 -4 -141h-142z" />
    <glyph glyph-name="q" unicode="q" horiz-adv-x="606" 
d="M404 55c-43 -39 -104 -62 -161 -62c-137 0 -211 82 -211 232c0 187 104 295 292 295c65 0 143 -13 238 -31c-17 -199 -28 -432 -31 -700h-143c7 54 9 102 11 144zM421 401c-24 8 -52 12 -83 12c-105 0 -166 -62 -166 -172c0 -82 42 -130 111 -130c83 0 129 53 133 155z
" />
    <glyph glyph-name="r" unicode="r" horiz-adv-x="353" 
d="M37 0c17 161 25 331 25 509h127v-75c31 60 74 88 138 88c10 0 22 0 35 -2l3 -121c-20 3 -37 4 -50 4c-74 0 -108 -35 -123 -114c-7 -39 -12 -135 -14 -289h-141z" />
    <glyph glyph-name="s" unicode="s" horiz-adv-x="415" 
d="M25 143c67 -32 122 -47 159 -47c51 0 76 13 76 43c0 13 -8 28 -18 36l-111 88c-56 44 -90 76 -90 132c0 73 69 128 182 128c42 0 90 -7 147 -21l9 -115c-54 19 -98 30 -134 30c-39 0 -60 -11 -60 -29c0 -8 6 -20 16 -28l105 -82c57 -45 87 -81 87 -138
c0 -95 -68 -154 -196 -154c-47 0 -100 10 -160 30z" />
    <glyph glyph-name="t" unicode="t" horiz-adv-x="347" 
d="M213 183c-1 -18 -1 -28 -1 -29c0 -39 19 -59 54 -59c17 0 43 4 79 15l-22 -114c-34 -7 -69 -10 -105 -10c-100 0 -147 33 -147 110c0 21 5 61 8 122l10 188h-70l5 103h75l5 85l134 25l-5 -110h120l-5 -103h-123z" />
    <glyph glyph-name="u" unicode="u" horiz-adv-x="609" 
d="M569 509c-17 -161 -24 -331 -24 -509h-130v62c-45 -55 -97 -76 -173 -76c-140 0 -195 52 -195 171c0 57 8 160 8 307v45h140c-13 -153 -15 -251 -15 -293c0 -86 22 -124 94 -124c124 0 154 107 154 341c0 24 0 49 -1 76h142z" />
    <glyph glyph-name="v" unicode="v" horiz-adv-x="497" 
d="M139 509c10 -42 20 -79 29 -111l77 -263l87 239c5 13 20 58 46 135h150c-114 -261 -182 -431 -207 -509h-170c-16 69 -68 239 -163 509h151z" />
    <glyph glyph-name="w" unicode="w" horiz-adv-x="833" 
d="M128 509c6 -33 14 -62 22 -89l82 -286l124 375h143l87 -376l110 281c11 29 22 61 32 95h135c-29 -66 -58 -135 -88 -207l-127 -302h-152l-81 332l-111 -332h-160l-75 254c-27 92 -54 177 -80 255h139z" />
    <glyph glyph-name="x" unicode="x" horiz-adv-x="485" 
d="M178 509c16 -36 28 -59 35 -70l42 -70l46 74c11 18 26 39 38 66h172c-59 -76 -94 -121 -104 -134l-79 -102l83 -124c10 -15 44 -64 102 -149h-171c-15 34 -33 65 -51 97l-49 87l-76 -112c-18 -26 -32 -50 -42 -72h-168c17 22 55 74 114 155l87 120l-78 125
c-12 19 -37 55 -74 109h173z" />
    <glyph glyph-name="y" unicode="y" horiz-adv-x="497" 
d="M151 509l89 -302c3 -11 8 -34 15 -69c7 25 15 48 23 70l70 183c14 36 25 75 34 118h150l-240 -545c-60 -137 -120 -190 -254 -190c-34 0 -67 2 -101 8l-6 118c33 -8 66 -12 100 -12c50 0 88 22 113 64l29 50l-123 356c-9 27 -29 78 -57 151h158z" />
    <glyph glyph-name="z" unicode="z" horiz-adv-x="461" 
d="M180 113h136c25 0 63 2 116 6l-5 -119h-417l4 111l260 292h-161c-29 0 -56 -1 -82 -3l7 109h406l-4 -104z" />
    <glyph glyph-name="braceleft" unicode="{" 
d="M431 721v-102c-8 0 -16 1 -23 1c-72 0 -84 -25 -84 -98v-117c0 -88 -18 -127 -101 -146c83 -19 101 -57 101 -145v-118c0 -73 12 -97 84 -97c7 0 15 1 23 1v-102c-13 0 -25 -1 -37 -1c-60 0 -104 6 -137 24c-47 27 -51 71 -51 142v123c0 88 -29 123 -109 123
c-6 0 -13 -1 -20 -1v102c7 0 14 -1 20 -1c80 0 109 36 109 124v122c0 71 4 116 51 143c33 18 77 24 137 24c12 0 24 -1 37 -1z" />
    <glyph glyph-name="bar" unicode="|" 
d="M200 764h101v-1000h-101v1000z" />
    <glyph glyph-name="braceright" unicode="}" 
d="M70 721h33c62 0 108 -5 141 -24c46 -26 51 -71 51 -142v-123c0 -88 29 -123 109 -123c6 0 13 1 20 1v-102h-18c-82 0 -111 -33 -111 -122v-123c0 -71 -4 -116 -51 -142c-33 -18 -77 -24 -137 -24c-12 0 -24 1 -37 1v102c8 0 16 -1 23 -1c71 0 84 24 84 97v117
c0 88 17 127 101 146c-83 19 -101 58 -101 146v118c0 73 -13 97 -84 97c-7 0 -15 -1 -23 -1v102z" />
    <glyph glyph-name="asciitilde" unicode="~" horiz-adv-x="833" 
d="M747 392v-108c-65 -44 -124 -67 -185 -67c-30 0 -60 5 -90 15c-69 23 -130 49 -197 49c-59 0 -118 -27 -188 -77v108c70 47 133 70 189 70c58 0 102 -15 144 -29c48 -16 93 -36 144 -36c59 0 116 26 183 75z" />
    <glyph glyph-name="exclamdown" unicode="&#xa1;" horiz-adv-x="317" 
d="M240 514h-140l8 148h139zM232 473l-3 -202c-1 -57 -3 -147 -3 -271h-158c5 51 12 137 19 257l13 216h132z" />
    <glyph glyph-name="cent" unicode="&#xa2;" horiz-adv-x="588" 
d="M366 675l-4 -78h3c18 0 46 -8 86 -20l1 -114c-40 16 -69 24 -90 24h-7c-7 -91 -11 -195 -14 -311h10c28 0 58 7 93 21l-10 -114c-30 -11 -60 -18 -91 -21v-67h-98l3 71c-122 10 -196 100 -196 248c0 172 80 273 220 285l1 76h93zM270 491c-56 -2 -94 -62 -94 -167
c0 -89 35 -145 86 -150c5 112 7 218 8 317z" />
    <glyph glyph-name="sterling" unicode="&#xa3;" horiz-adv-x="588" 
d="M62 290l17 100h57l-10 33c-9 29 -20 61 -20 100c0 94 71 148 207 148c65 0 126 -10 182 -29v-104c-64 23 -116 33 -155 33c-70 0 -108 -28 -108 -74c0 -19 5 -42 12 -70l9 -37h216l-18 -100h-175c3 -14 4 -28 4 -40c0 -40 -13 -78 -40 -113c6 1 13 1 19 1
c67 0 128 -41 187 -41c33 0 70 15 104 45l-14 -139c-33 -15 -69 -22 -108 -22c-79 0 -158 56 -236 56c-46 0 -83 -19 -128 -56l2 101c76 42 115 97 115 156c0 11 -3 28 -8 52h-111z" />
    <glyph glyph-name="fraction" unicode="&#x2044;" horiz-adv-x="167" 
d="M-167 -14l422 676h78l-422 -676h-78z" />
    <glyph glyph-name="yen" unicode="&#xa5;" horiz-adv-x="588" 
d="M214 0c5 64 8 101 8 112l6 188h-57c-51 0 -99 -1 -145 -2l3 72c29 -1 82 -1 160 -1l-33 61h-36c-29 0 -58 0 -88 -1l3 72c21 -1 49 -1 83 -1l-89 162h155c6 -25 17 -48 29 -73l83 -176l102 174c10 16 20 42 34 75h151l-104 -162h22c18 0 37 0 58 1l-4 -72
c-18 1 -43 1 -76 1h-45l-39 -61c79 0 131 1 157 2l-3 -73c-52 1 -102 2 -149 2h-50l-5 -215v-15c0 -21 1 -44 2 -70h-133z" />
    <glyph glyph-name="florin" unicode="&#x192;" horiz-adv-x="588" 
d="M514 574c-25 11 -45 17 -62 17c-46 0 -64 -42 -77 -137l-9 -61h121v-102h-135l-47 -254c-34 -181 -68 -260 -191 -260c-47 0 -89 11 -124 33l33 106c26 -20 51 -30 77 -30c36 0 59 25 68 73l59 332h-110v102h129l12 77c25 155 66 230 170 230c38 0 72 -7 105 -22z" />
    <glyph glyph-name="section" unicode="&#xa7;" horiz-adv-x="581" 
d="M351 92c27 29 41 53 41 80c0 28 -24 57 -72 92l-95 68c-27 -26 -41 -51 -41 -77c0 -36 26 -60 73 -94zM89 -224l-3 125c61 -26 120 -37 163 -37c50 0 78 20 78 50c0 41 -44 61 -105 102c-109 72 -166 131 -166 216c0 62 34 116 100 175c-29 38 -43 75 -43 111
c0 94 75 158 206 158c51 0 109 -10 176 -29l-3 -118c-72 26 -127 40 -166 40c-43 0 -71 -30 -71 -62c0 -45 40 -65 98 -104c111 -75 171 -127 171 -197c0 -59 -37 -112 -107 -175c40 -39 59 -76 59 -119c0 -94 -78 -162 -212 -162c-56 0 -114 9 -175 26z" />
    <glyph glyph-name="currency" unicode="&#xa4;" horiz-adv-x="606" 
d="M84 702l100 -99c33 24 71 38 119 38c45 0 85 -12 121 -38l99 99l51 -52l-99 -100c24 -34 37 -73 37 -118c0 -43 -12 -82 -37 -118l99 -100l-51 -51l-99 99c-33 -24 -72 -38 -120 -38c-46 0 -85 12 -120 38l-100 -99l-51 51l99 100c-25 35 -37 73 -37 118s13 84 37 118
l-99 100zM304 567c-74 0 -135 -62 -135 -135c0 -74 60 -134 135 -134c74 0 135 60 135 134c0 73 -61 135 -135 135z" />
    <glyph glyph-name="quotesingle" unicode="'" horiz-adv-x="172" 
d="M39 702h94v-273h-94v273z" />
    <glyph glyph-name="quotedblleft" unicode="&#x201c;" horiz-adv-x="477" 
d="M263 662l-59 -194h-141l101 194h99zM447 662l-58 -194h-142l102 194h98z" />
    <glyph glyph-name="guillemotleft" unicode="&#xab;" horiz-adv-x="524" 
d="M257 74h-102l-75 182l95 181h105l-83 -181zM450 74h-101l-76 182l95 181h105l-83 -181z" />
    <glyph glyph-name="guilsinglleft" unicode="&#x2039;" horiz-adv-x="331" 
d="M257 74h-102l-75 182l95 181h105l-83 -181z" />
    <glyph glyph-name="guilsinglright" unicode="&#x203a;" horiz-adv-x="331" 
d="M84 437h101l76 -181l-95 -182h-105l83 182z" />
    <glyph glyph-name="fi" unicode="&#xfb01;" horiz-adv-x="565" 
d="M19 509h71v33c0 93 51 134 160 134c30 0 60 -2 89 -8l9 -106c-23 6 -43 9 -64 9c-49 0 -68 -11 -68 -51v-11h99l-4 -106h-89c-6 -99 -11 -233 -16 -403h-138c13 112 21 247 23 403h-72v106zM517 500c-11 -213 -15 -380 -15 -500h-143c15 163 22 330 22 500h136zM384 540
l5 122h135l-5 -122h-135z" />
    <glyph glyph-name="fl" unicode="&#xfb02;" horiz-adv-x="565" 
d="M527 662c-16 -147 -24 -287 -26 -418l-3 -244h-148c16 119 31 340 35 662h142zM19 509h71v33c0 93 51 134 160 134c30 0 60 -2 89 -8l9 -106c-23 6 -43 9 -64 9c-49 0 -68 -11 -68 -51v-11h99l-4 -106h-89c-6 -99 -11 -233 -16 -403h-138c13 112 21 247 23 403h-72v106z
" />
    <glyph glyph-name="endash" unicode="&#x2013;" 
d="M509 314l-9 -104h-500l9 104h500z" />
    <glyph glyph-name="dagger" unicode="&#x2020;" horiz-adv-x="581" 
d="M76 355l8 136l178 -46l-26 217h135l-49 -217l183 45l-8 -136l-175 36c-1 -7 -1 -13 -1 -20c0 -44 13 -95 37 -157c-43 -259 -69 -406 -69 -440v-5h-35c-22 245 -37 393 -48 445c33 59 51 117 56 177z" />
    <glyph glyph-name="daggerdbl" unicode="&#x2021;" horiz-adv-x="581" 
d="M195 -232l49 215l-183 -45l8 135l175 -36c1 7 1 14 1 21c0 41 -13 92 -36 155c33 59 51 117 56 177l-185 -35l7 136l178 -46l-25 217h135l-49 -217l183 45l-8 -136l-175 36c-1 -7 -1 -13 -1 -20c0 -44 13 -95 37 -157c-33 -56 -52 -114 -57 -176l185 36l-8 -135l-177 45
l25 -215h-135z" />
    <glyph glyph-name="periodcentered" unicode="&#xb7;" horiz-adv-x="294" 
d="M70 331c0 43 34 76 77 76s77 -34 77 -76c0 -43 -34 -77 -77 -77c-44 0 -77 33 -77 77z" />
    <glyph glyph-name="paragraph" unicode="&#xb6;" 
d="M480 722v-54h-55v-668h-74v668h-78v-668h-74v383c-111 4 -179 73 -179 169c0 100 73 170 191 170h269z" />
    <glyph glyph-name="bullet" unicode="&#x2022;" horiz-adv-x="590" 
d="M150 372c0 80 65 144 145 144c79 0 144 -64 144 -144c0 -79 -65 -145 -145 -145s-144 65 -144 145z" />
    <glyph glyph-name="quotesinglbase" unicode="&#x201a;" horiz-adv-x="294" 
d="M41 -91l58 194h142l-102 -194h-98z" />
    <glyph glyph-name="quotedblbase" unicode="&#x201e;" horiz-adv-x="477" 
d="M41 -91l59 194h141l-101 -194h-99zM225 -91l59 194h141l-101 -194h-99z" />
    <glyph glyph-name="quotedblright" unicode="&#x201d;" horiz-adv-x="477" 
d="M66 468l59 194h141l-101 -194h-99zM250 468l59 194h142l-102 -194h-99z" />
    <glyph glyph-name="guillemotright" unicode="&#xbb;" horiz-adv-x="524" 
d="M84 437h101l76 -181l-95 -182h-105l83 182zM277 437h102l75 -181l-95 -182h-105l83 182z" />
    <glyph glyph-name="ellipsis" unicode="&#x2026;" horiz-adv-x="1000" 
d="M101 148h139l-8 -148h-139zM434 148h139l-8 -148h-139zM768 148h139l-8 -148h-139z" />
    <glyph glyph-name="perthousand" unicode="&#x2030;" horiz-adv-x="1194" 
d="M617 662l-331 -662h-78l330 662h79zM203 602c-53 0 -77 -43 -77 -130c0 -70 19 -104 66 -104c56 0 79 43 79 133c0 68 -20 101 -68 101zM33 463c0 140 60 214 172 214c102 0 159 -63 159 -177c0 -138 -60 -209 -176 -209c-98 0 -155 61 -155 172zM465 164
c0 140 60 214 172 214c102 0 159 -63 159 -177c0 -138 -57 -209 -169 -209c-105 0 -162 60 -162 172zM636 302c-53 0 -78 -43 -78 -130c0 -70 20 -104 67 -104c56 0 78 43 78 133c0 68 -19 101 -67 101zM1012 302c-53 0 -78 -43 -78 -130c0 -70 20 -104 67 -104
c56 0 78 43 78 133c0 68 -19 101 -67 101zM841 164c0 140 60 214 172 214c102 0 159 -63 159 -177c0 -138 -57 -209 -169 -209c-105 0 -162 60 -162 172z" />
    <glyph glyph-name="questiondown" unicode="&#xbf;" horiz-adv-x="546" 
d="M370 489l-4 -82c-2 -44 -7 -64 -49 -99c-76 -63 -123 -93 -123 -135c0 -49 49 -74 146 -74c52 0 108 8 170 24l-25 -126c-52 -7 -105 -11 -159 -11c-186 0 -280 61 -280 166c0 71 42 112 104 174c50 50 82 64 85 105l3 58h132zM375 520h-139l8 148h139z" />
    <glyph glyph-name="grave" unicode="`" 
d="M334 577h-64l-145 170h109z" />
    <glyph glyph-name="acute" unicode="&#xb4;" 
d="M190 577l100 170h108l-145 -170h-63z" />
    <glyph glyph-name="circumflex" unicode="&#x2c6;" 
d="M116 577l93 170h105l92 -170h-63l-82 102l-82 -102h-63z" />
    <glyph glyph-name="tilde" unicode="&#x2dc;" 
d="M408 716c-14 -71 -42 -110 -97 -110c-11 0 -22 1 -33 4l-41 12c-12 3 -23 6 -31 6c-22 0 -35 -11 -42 -33h-49c13 72 44 106 94 106c11 0 25 -2 41 -6l43 -12c8 -2 16 -4 25 -4c20 0 36 13 42 37h48z" />
    <glyph glyph-name="macron" unicode="&#xaf;" 
d="M127 621v72h270v-72h-270z" />
    <glyph glyph-name="breve" unicode="&#x2d8;" 
d="M116 733h59c3 -49 30 -70 87 -70s84 21 86 70h58c-6 -97 -52 -142 -145 -142s-139 45 -145 142z" />
    <glyph glyph-name="dotaccent" unicode="&#x2d9;" 
d="M209 598v117h105v-117h-105z" />
    <glyph glyph-name="dieresis" unicode="&#xa8;" 
d="M129 601v111h100v-111h-100zM294 601v111h100v-111h-100z" />
    <glyph glyph-name="ring" unicode="&#x2da;" 
d="M136 694c0 70 55 125 125 125s126 -55 126 -125c0 -71 -55 -127 -126 -127s-125 56 -125 127zM200 693c0 -35 27 -62 62 -62s62 27 62 62s-27 63 -62 63s-62 -28 -62 -63z" />
    <glyph glyph-name="cedilla" unicode="&#xb8;" 
d="M122 -212v58c54 -14 95 -21 124 -21c35 0 53 13 53 37c0 28 -22 39 -69 39c-7 0 -14 -1 -21 -1v100h45v-46h7c77 0 115 -31 115 -94c0 -58 -43 -93 -122 -93c-33 0 -77 6 -132 21z" />
    <glyph glyph-name="hungarumlaut" unicode="&#x2dd;" 
d="M211 577h-51l65 170h91zM288 577l79 170h96l-124 -170h-51z" />
    <glyph glyph-name="ogonek" unicode="&#x2db;" 
d="M293 0c-42 -36 -63 -68 -63 -104c0 -28 12 -39 43 -39h45v-76h-47c-76 0 -112 27 -112 88c0 43 30 85 91 131h43z" />
    <glyph glyph-name="caron" unicode="&#x2c7;" 
d="M116 747h64l82 -103l81 103h64l-93 -170h-105z" />
    <glyph glyph-name="emdash" unicode="&#x2014;" horiz-adv-x="1000" 
d="M1009 314l-9 -104h-1000l9 104h1000z" />
    <glyph glyph-name="AE" unicode="&#xc6;" horiz-adv-x="909" 
d="M224 241c-45 -81 -84 -162 -118 -241h-167c61 96 98 156 111 180l173 306c35 63 63 121 84 176h587l-6 -121c-63 3 -102 4 -117 4h-243c2 -30 5 -55 10 -75l15 -64h182c38 0 75 0 111 4l-5 -125c-32 3 -63 3 -94 3h-46h-121l16 -72c2 -9 9 -40 20 -93h97c38 0 88 3 150 8
l-6 -131h-370c-13 87 -27 167 -42 241h-221zM278 350h149l-30 141c-6 26 -10 51 -12 75c-10 -29 -22 -52 -33 -73z" />
    <glyph glyph-name="ordfeminine" unicode="&#xaa;" horiz-adv-x="399" 
d="M244 306c5 22 7 48 8 74l7 100c-11 -7 -23 -12 -37 -17l-49 -15c-36 -10 -54 -18 -54 -43c0 -23 18 -37 48 -37c15 0 34 4 59 11l-23 -73c-24 -6 -46 -9 -65 -9c-76 0 -121 40 -121 103c0 54 31 87 96 105l78 21c45 12 68 21 68 42c0 23 -20 37 -56 37
c-38 0 -82 -13 -135 -36l12 86c48 11 93 18 144 18c100 0 138 -29 138 -100v-31l-8 -177c-1 -9 -1 -29 -1 -59h-109z" />
    <glyph glyph-name="Lslash" unicode="&#x141;" horiz-adv-x="491" 
d="M44 0c9 83 16 165 20 244c-29 -19 -50 -33 -62 -41l7 116c19 12 39 25 60 38c5 102 8 204 9 305h154c-7 -41 -11 -83 -13 -127l-5 -101c59 37 103 66 133 87l-6 -117c-38 -24 -82 -52 -132 -84l-4 -74c-1 -29 -2 -53 -2 -71c0 -17 1 -36 2 -56c24 -1 48 -3 70 -3
c85 0 156 5 215 15l-11 -131h-435z" />
    <glyph glyph-name="Oslash" unicode="&#xd8;" horiz-adv-x="824" 
d="M244 153l238 403c-24 5 -48 7 -70 7c-150 0 -232 -89 -232 -248c0 -71 19 -122 64 -162zM577 511l-240 -406c27 -5 51 -8 73 -8c147 0 232 88 232 245c0 76 -19 130 -65 169zM114 -67l64 107c-96 61 -142 150 -142 272c0 227 141 364 376 364c42 0 86 -5 133 -14l40 69
h121l-63 -108c96 -59 147 -153 147 -274c0 -226 -141 -363 -388 -363c-41 0 -83 5 -127 15l-40 -68h-121z" />
    <glyph glyph-name="OE" unicode="&#x152;" horiz-adv-x="1038" 
d="M531 551c-37 9 -74 14 -113 14c-162 0 -240 -78 -240 -245c0 -143 70 -215 208 -215c41 0 82 3 122 9c13 159 21 305 23 437zM538 0c-54 0 -119 -8 -198 -8c-194 0 -306 124 -306 330c0 220 125 350 347 350c67 0 138 -10 210 -10h433l-6 -121c-63 3 -103 4 -118 4h-225
c-5 -18 -8 -43 -10 -75l-3 -64h202c37 0 73 0 109 4l-4 -125c-31 3 -61 3 -92 3h-46h-174l-5 -69c-2 -26 -4 -53 -4 -82v-14c28 -1 59 -2 94 -2c97 0 181 3 251 10l-6 -131h-449z" />
    <glyph glyph-name="ordmasculine" unicode="&#xba;" horiz-adv-x="450" 
d="M26 476c0 121 78 196 206 196c123 0 193 -65 193 -178c0 -125 -78 -198 -208 -198c-122 0 -191 65 -191 180zM230 594c-66 0 -99 -39 -99 -117c0 -69 30 -104 90 -104c66 0 98 39 98 118c0 69 -29 103 -89 103z" />
    <glyph glyph-name="ae" unicode="&#xe6;" horiz-adv-x="833" 
d="M492 334h181c0 58 -29 89 -81 89c-51 0 -90 -34 -100 -89zM487 247c-1 -7 -1 -15 -1 -21c0 -81 49 -124 141 -124c49 0 93 10 137 31l-26 -125c-57 -14 -107 -22 -149 -22c-154 0 -245 91 -247 249c-12 -7 -24 -12 -35 -15l-64 -17c-56 -15 -83 -27 -83 -62
c0 -32 26 -52 75 -52c23 0 54 6 93 15l-27 -104c-37 -9 -70 -13 -98 -13c-114 0 -181 58 -181 148c0 76 46 129 129 149l119 29c64 15 95 33 95 61c0 32 -27 53 -80 53s-115 -17 -189 -51l17 122c66 16 131 26 199 26c71 0 120 -15 145 -43c43 28 92 41 151 41
c130 0 200 -75 200 -220c0 -17 -1 -36 -3 -55h-318z" />
    <glyph glyph-name="dotlessi" unicode="&#x131;" horiz-adv-x="248" 
d="M200 500c-11 -213 -15 -380 -15 -500h-143c15 164 22 330 22 500h136z" />
    <glyph glyph-name="lslash" unicode="&#x142;" horiz-adv-x="262" 
d="M219 662c-8 -63 -13 -144 -18 -243c32 22 58 38 77 51l-3 -87c-23 -14 -49 -30 -78 -49c-4 -80 -6 -191 -6 -334h-148c11 81 18 169 22 265c-31 -20 -53 -34 -65 -43l5 89c19 11 41 23 64 39c6 117 8 221 8 312h142z" />
    <glyph glyph-name="oslash" unicode="&#xf8;" horiz-adv-x="600" 
d="M55 -70l61 109c-55 46 -83 113 -83 201c0 178 103 283 280 283c17 0 38 -3 61 -7l26 53h114l-46 -88c65 -42 98 -114 98 -213c0 -179 -102 -282 -279 -282c-27 0 -55 3 -83 9l-32 -65h-117zM191 146l148 267c-17 2 -31 4 -45 4c-76 0 -124 -61 -124 -177
c0 -35 6 -66 21 -94zM396 382l-155 -281c19 -7 37 -10 55 -10c89 0 133 58 133 175c0 52 -9 89 -33 116z" />
    <glyph glyph-name="oe" unicode="&#x153;" horiz-adv-x="907" 
d="M306 412c-87 0 -132 -56 -132 -168c0 -98 41 -148 121 -148c87 0 130 55 130 168c0 99 -39 148 -119 148zM879 246h-312c-1 -8 -1 -15 -1 -22c0 -80 47 -122 137 -122c48 0 91 9 135 31l-26 -125c-58 -14 -106 -22 -147 -22c-76 0 -138 22 -182 65
c-51 -45 -115 -66 -196 -66c-161 0 -253 95 -253 258c0 173 103 280 275 280c78 0 141 -21 191 -67c46 43 107 66 176 66c138 0 206 -73 206 -218c0 -19 -1 -38 -3 -58zM571 334h175c0 55 -28 85 -79 85c-50 0 -86 -32 -96 -85z" />
    <glyph glyph-name="germandbls" unicode="&#xdf;" horiz-adv-x="590" 
d="M36 0c30 317 23 497 33 538c23 97 90 138 218 138c149 0 220 -44 220 -144c0 -61 -9 -88 -37 -96c-26 -8 -69 1 -69 -45c0 -14 8 -28 24 -39l84 -55c40 -26 65 -76 65 -141c0 -112 -69 -172 -202 -172c-48 0 -85 9 -116 16l-8 112c38 -10 75 -15 112 -15
c55 0 83 25 83 67c0 29 -11 47 -37 67l-104 81c-30 23 -44 52 -44 90c0 64 31 94 101 100c3 8 4 16 4 24c0 39 -24 59 -72 59c-69 0 -89 -47 -93 -148l-11 -299c-1 -29 -1 -75 -2 -138h-149z" />
    <glyph glyph-name="Aacute" unicode="&#xc1;" horiz-adv-x="667" 
d="M-46 0l274 581c9 18 19 45 29 81h200c10 -38 21 -76 34 -112l198 -550h-160c-7 39 -12 65 -17 78l-67 184h-230l-74 -162c-13 -27 -24 -60 -35 -100h-152zM344 572l-88 -203h159zM286 717l100 170h108l-145 -170h-63z" />
    <glyph glyph-name="Acircumflex" unicode="&#xc2;" horiz-adv-x="667" 
d="M-46 0l274 581c9 18 19 45 29 81h200c10 -38 21 -76 34 -112l198 -550h-160c-7 39 -12 65 -17 78l-67 184h-230l-74 -162c-13 -27 -24 -60 -35 -100h-152zM344 572l-88 -203h159zM212 717l93 170h105l92 -170h-63l-82 102l-82 -102h-63z" />
    <glyph glyph-name="Adieresis" unicode="&#xc4;" horiz-adv-x="667" 
d="M-46 0l274 581c9 18 19 45 29 81h200c10 -38 21 -76 34 -112l198 -550h-160c-7 39 -12 65 -17 78l-67 184h-230l-74 -162c-13 -27 -24 -60 -35 -100h-152zM344 572l-88 -203h159zM225 741v111h100v-111h-100zM390 741v111h100v-111h-100z" />
    <glyph glyph-name="Agrave" unicode="&#xc0;" horiz-adv-x="667" 
d="M-46 0l274 581c9 18 19 45 29 81h200c10 -38 21 -76 34 -112l198 -550h-160c-7 39 -12 65 -17 78l-67 184h-230l-74 -162c-13 -27 -24 -60 -35 -100h-152zM344 572l-88 -203h159zM430 717h-64l-145 170h109z" />
    <glyph glyph-name="Aring" unicode="&#xc5;" horiz-adv-x="667" 
d="M226 581c9 18 19 45 29 81h205c10 -38 21 -76 34 -112l197 -550h-159c-6 35 -12 61 -18 78l-67 184h-230l-73 -162c-13 -27 -25 -60 -36 -100h-156zM347 572l-88 -203h159zM231 821c0 70 56 125 126 125s126 -55 126 -125c0 -71 -55 -127 -126 -127s-126 56 -126 127z
M295 820c0 -35 27 -62 62 -62s63 27 63 62s-28 63 -63 63s-62 -28 -62 -63z" />
    <glyph glyph-name="Atilde" unicode="&#xc3;" horiz-adv-x="667" 
d="M-46 0l274 581c9 18 19 45 29 81h200c10 -38 21 -76 34 -112l198 -550h-160c-7 39 -12 65 -17 78l-67 184h-230l-74 -162c-13 -27 -24 -60 -35 -100h-152zM344 572l-88 -203h159zM504 856c-14 -71 -42 -110 -97 -110c-11 0 -22 1 -33 4l-41 12c-12 3 -23 6 -31 6
c-22 0 -35 -11 -42 -33h-49c13 72 44 106 94 106c11 0 25 -2 41 -6l43 -12c8 -2 16 -4 25 -4c20 0 36 13 42 37h48z" />
    <glyph glyph-name="Ccedilla" unicode="&#xc7;" horiz-adv-x="633" 
d="M605 536c-53 18 -115 30 -185 30c-154 0 -243 -86 -243 -234c0 -143 86 -219 247 -219c52 0 108 8 168 24l-15 -137c-59 -8 -117 -15 -175 -15c-241 0 -366 116 -366 331c0 233 139 361 401 361c41 0 95 -5 162 -15zM232 -212v58c54 -14 95 -21 124 -21c35 0 53 13 53 37
c0 28 -22 39 -69 39c-7 0 -14 -1 -21 -1v100h45v-46h7c77 0 115 -31 115 -94c0 -58 -43 -93 -122 -93c-33 0 -77 6 -132 21z" />
    <glyph glyph-name="Eacute" unicode="&#xc9;" horiz-adv-x="579" 
d="M40 0c18 163 30 384 34 662h492l-5 -121c-63 3 -103 4 -118 4h-226c-5 -18 -7 -43 -9 -75l-3 -64h202c38 0 75 0 111 4l-4 -125c-32 3 -64 3 -95 3h-46h-173l-5 -69c-2 -26 -4 -53 -4 -82v-14c28 -1 59 -2 94 -2c95 0 179 3 252 10l-5 -131h-492zM259 717l100 170h108
l-145 -170h-63z" />
    <glyph glyph-name="Ecircumflex" unicode="&#xca;" horiz-adv-x="579" 
d="M40 0c18 163 30 384 34 662h492l-5 -121c-63 3 -103 4 -118 4h-226c-5 -18 -7 -43 -9 -75l-3 -64h202c38 0 75 0 111 4l-4 -125c-32 3 -64 3 -95 3h-46h-173l-5 -69c-2 -26 -4 -53 -4 -82v-14c28 -1 59 -2 94 -2c95 0 179 3 252 10l-5 -131h-492zM185 717l93 170h105
l92 -170h-63l-82 102l-82 -102h-63z" />
    <glyph glyph-name="Edieresis" unicode="&#xcb;" horiz-adv-x="579" 
d="M40 0c18 163 30 384 34 662h492l-5 -121c-63 3 -103 4 -118 4h-226c-5 -18 -7 -43 -9 -75l-3 -64h202c38 0 75 0 111 4l-4 -125c-32 3 -64 3 -95 3h-46h-173l-5 -69c-2 -26 -4 -53 -4 -82v-14c28 -1 59 -2 94 -2c95 0 179 3 252 10l-5 -131h-492zM198 741v111h100v-111
h-100zM363 741v111h100v-111h-100z" />
    <glyph glyph-name="Egrave" unicode="&#xc8;" horiz-adv-x="579" 
d="M40 0c18 163 30 384 34 662h492l-5 -121c-63 3 -103 4 -118 4h-226c-5 -18 -7 -43 -9 -75l-3 -64h202c38 0 75 0 111 4l-4 -125c-32 3 -64 3 -95 3h-46h-173l-5 -69c-2 -26 -4 -53 -4 -82v-14c28 -1 59 -2 94 -2c95 0 179 3 252 10l-5 -131h-492zM403 717h-64l-145 170
h109z" />
    <glyph glyph-name="Iacute" unicode="&#xcd;" horiz-adv-x="278" 
d="M234 662c-6 -48 -11 -94 -13 -138l-20 -377c-1 -14 -1 -30 -1 -50c0 -26 0 -59 1 -97h-157c18 151 31 372 35 662h155zM91 717l100 170h108l-145 -170h-63z" />
    <glyph glyph-name="Icircumflex" unicode="&#xce;" horiz-adv-x="278" 
d="M234 662c-6 -48 -11 -94 -13 -138l-20 -377c-1 -14 -1 -30 -1 -50c0 -26 0 -59 1 -97h-157c18 151 31 372 35 662h155zM17 717l93 170h105l92 -170h-63l-82 102l-82 -102h-63z" />
    <glyph glyph-name="Idieresis" unicode="&#xcf;" horiz-adv-x="278" 
d="M234 662c-6 -48 -11 -94 -13 -138l-20 -377c-1 -14 -1 -30 -1 -50c0 -26 0 -59 1 -97h-157c18 151 31 372 35 662h155zM30 741v111h100v-111h-100zM195 741v111h100v-111h-100z" />
    <glyph glyph-name="Igrave" unicode="&#xcc;" horiz-adv-x="278" 
d="M234 662c-6 -48 -11 -94 -13 -138l-20 -377c-1 -14 -1 -30 -1 -50c0 -26 0 -59 1 -97h-157c18 151 31 372 35 662h155zM235 717h-64l-145 170h109z" />
    <glyph glyph-name="Ntilde" unicode="&#xd1;" horiz-adv-x="745" 
d="M440 0c-19 59 -46 119 -74 184l-165 376l-17 -354c-4 -76 -5 -145 -6 -206h-137c17 135 27 356 39 662h220l246 -555l18 400c2 37 4 75 4 117c0 12 -1 25 -1 38h137c-6 -48 -11 -94 -13 -138l-19 -377c-1 -19 -2 -43 -2 -74c0 -21 1 -46 1 -73h-231zM543 856
c-14 -71 -42 -110 -97 -110c-11 0 -22 1 -33 4l-41 12c-12 3 -23 6 -31 6c-22 0 -35 -11 -42 -33h-49c13 72 44 106 94 106c11 0 25 -2 41 -6l43 -12c8 -2 16 -4 25 -4c20 0 36 13 42 37h48z" />
    <glyph glyph-name="Oacute" unicode="&#xd3;" horiz-adv-x="824" 
d="M412 -14c-242 0 -376 120 -376 331c0 222 142 359 376 359c243 0 376 -120 376 -332c0 -221 -142 -358 -376 -358zM186 318c0 -137 81 -216 219 -216c150 0 232 84 232 241c0 140 -78 216 -224 216s-227 -85 -227 -241zM364 717l100 170h108l-145 -170h-63z" />
    <glyph glyph-name="Ocircumflex" unicode="&#xd4;" horiz-adv-x="824" 
d="M412 -14c-242 0 -376 120 -376 331c0 222 142 359 376 359c243 0 376 -120 376 -332c0 -221 -142 -358 -376 -358zM186 318c0 -137 81 -216 219 -216c150 0 232 84 232 241c0 140 -78 216 -224 216s-227 -85 -227 -241zM290 717l93 170h105l92 -170h-63l-82 102l-82 -102
h-63z" />
    <glyph glyph-name="Odieresis" unicode="&#xd6;" horiz-adv-x="824" 
d="M412 -14c-242 0 -376 120 -376 331c0 222 142 359 376 359c243 0 376 -120 376 -332c0 -221 -142 -358 -376 -358zM186 318c0 -137 81 -216 219 -216c150 0 232 84 232 241c0 140 -78 216 -224 216s-227 -85 -227 -241zM303 741v111h100v-111h-100zM468 741v111h100v-111
h-100z" />
    <glyph glyph-name="Ograve" unicode="&#xd2;" horiz-adv-x="824" 
d="M412 -14c-242 0 -376 120 -376 331c0 222 142 359 376 359c243 0 376 -120 376 -332c0 -221 -142 -358 -376 -358zM186 318c0 -137 81 -216 219 -216c150 0 232 84 232 241c0 140 -78 216 -224 216s-227 -85 -227 -241zM508 717h-64l-145 170h109z" />
    <glyph glyph-name="Otilde" unicode="&#xd5;" horiz-adv-x="824" 
d="M412 -14c-242 0 -376 120 -376 331c0 222 142 359 376 359c243 0 376 -120 376 -332c0 -221 -142 -358 -376 -358zM186 318c0 -137 81 -216 219 -216c150 0 232 84 232 241c0 140 -78 216 -224 216s-227 -85 -227 -241zM582 856c-14 -71 -42 -110 -97 -110
c-11 0 -22 1 -33 4l-41 12c-12 3 -23 6 -31 6c-22 0 -35 -11 -42 -33h-49c13 72 44 106 94 106c11 0 25 -2 41 -6l43 -12c8 -2 16 -4 25 -4c20 0 36 13 42 37h48z" />
    <glyph glyph-name="Scaron" unicode="&#x160;" horiz-adv-x="487" 
d="M140 343c-69 57 -101 102 -101 170c0 102 75 162 221 162c52 0 107 -6 166 -16l8 -118c-55 19 -101 31 -143 31c-73 0 -111 -26 -111 -67c0 -16 7 -31 21 -43l161 -134c68 -56 102 -105 102 -168c0 -103 -87 -175 -236 -175c-87 0 -158 16 -197 36l-8 128
c81 -37 148 -54 195 -54c68 0 107 26 107 66c0 18 -13 40 -38 61zM122 887h64l82 -103l81 103h64l-93 -170h-105z" />
    <glyph glyph-name="Uacute" unicode="&#xda;" horiz-adv-x="694" 
d="M218 662c-5 -46 -7 -89 -9 -126l-12 -252c0 -10 -1 -25 -1 -43c0 -94 38 -136 143 -136c128 0 155 62 159 190l7 214c1 18 1 40 1 65c0 26 0 55 -1 88h152c-7 -51 -11 -97 -13 -138l-12 -230c-4 -74 -1 -135 -21 -182c-34 -80 -132 -126 -283 -126
c-181 0 -276 75 -276 218c0 70 15 223 17 458h149zM299 717l100 170h108l-145 -170h-63z" />
    <glyph glyph-name="Ucircumflex" unicode="&#xdb;" horiz-adv-x="694" 
d="M218 662c-5 -46 -7 -89 -9 -126l-12 -252c0 -10 -1 -25 -1 -43c0 -94 38 -136 143 -136c128 0 155 62 159 190l7 214c1 18 1 40 1 65c0 26 0 55 -1 88h152c-7 -51 -11 -97 -13 -138l-12 -230c-4 -74 -1 -135 -21 -182c-34 -80 -132 -126 -283 -126
c-181 0 -276 75 -276 218c0 70 15 223 17 458h149zM225 717l93 170h105l92 -170h-63l-82 102l-82 -102h-63z" />
    <glyph glyph-name="Udieresis" unicode="&#xdc;" horiz-adv-x="694" 
d="M218 662c-5 -46 -7 -89 -9 -126l-12 -252c0 -10 -1 -25 -1 -43c0 -94 38 -136 143 -136c128 0 155 62 159 190l7 214c1 18 1 40 1 65c0 26 0 55 -1 88h152c-7 -51 -11 -97 -13 -138l-12 -230c-4 -74 -1 -135 -21 -182c-34 -80 -132 -126 -283 -126
c-181 0 -276 75 -276 218c0 70 15 223 17 458h149zM238 741v111h100v-111h-100zM403 741v111h100v-111h-100z" />
    <glyph glyph-name="Ugrave" unicode="&#xd9;" horiz-adv-x="694" 
d="M218 662c-5 -46 -7 -89 -9 -126l-12 -252c0 -10 -1 -25 -1 -43c0 -94 38 -136 143 -136c128 0 155 62 159 190l7 214c1 18 1 40 1 65c0 26 0 55 -1 88h152c-7 -51 -11 -97 -13 -138l-12 -230c-4 -74 -1 -135 -21 -182c-34 -80 -132 -126 -283 -126
c-181 0 -276 75 -276 218c0 70 15 223 17 458h149zM443 717h-64l-145 170h109z" />
    <glyph glyph-name="Ydieresis" unicode="&#x178;" horiz-adv-x="472" 
d="M-39 662h171c7 -27 18 -50 27 -70l79 -167l97 166c8 15 20 38 33 71h166l-233 -362l-5 -215v-23c0 -19 0 -39 1 -62h-150c5 64 7 101 7 112l7 186zM127 741v111h100v-111h-100zM292 741v111h100v-111h-100z" />
    <glyph glyph-name="Zcaron" unicode="&#x17d;" horiz-adv-x="571" 
d="M192 124h234c12 0 45 2 100 6l-7 -130h-506l5 130l361 416h-245c-15 0 -44 -2 -86 -5l9 121h493l-5 -131zM164 887h64l82 -103l81 103h64l-93 -170h-105z" />
    <glyph glyph-name="aacute" unicode="&#xe1;" horiz-adv-x="532" 
d="M325 0c7 32 9 68 11 106l9 143c-15 -10 -31 -18 -49 -24l-66 -22c-47 -15 -71 -26 -71 -62c0 -32 23 -52 64 -52c19 0 45 6 78 15l-30 -104c-33 -9 -62 -13 -87 -13c-101 0 -162 57 -162 147c0 78 42 125 129 150l104 31c59 17 90 30 90 60c0 32 -26 52 -75 52
c-50 0 -109 -18 -179 -51l16 122c63 16 124 26 191 26c134 0 185 -41 185 -142c0 -11 0 -26 -1 -45l-10 -253c-1 -13 -1 -41 -1 -84h-146zM225 577l100 170h108l-145 -170h-63z" />
    <glyph glyph-name="acircumflex" unicode="&#xe2;" horiz-adv-x="532" 
d="M325 0c7 32 9 68 11 106l9 143c-15 -10 -31 -18 -49 -24l-66 -22c-47 -15 -71 -26 -71 -62c0 -32 23 -52 64 -52c19 0 45 6 78 15l-30 -104c-33 -9 -62 -13 -87 -13c-101 0 -162 57 -162 147c0 78 42 125 129 150l104 31c59 17 90 30 90 60c0 32 -26 52 -75 52
c-50 0 -109 -18 -179 -51l16 122c63 16 124 26 191 26c134 0 185 -41 185 -142c0 -11 0 -26 -1 -45l-10 -253c-1 -13 -1 -41 -1 -84h-146zM151 577l93 170h105l92 -170h-63l-82 102l-82 -102h-63z" />
    <glyph glyph-name="adieresis" unicode="&#xe4;" horiz-adv-x="532" 
d="M325 0c7 32 9 68 11 106l9 143c-15 -10 -31 -18 -49 -24l-66 -22c-47 -15 -71 -26 -71 -62c0 -32 23 -52 64 -52c19 0 45 6 78 15l-30 -104c-33 -9 -62 -13 -87 -13c-101 0 -162 57 -162 147c0 78 42 125 129 150l104 31c59 17 90 30 90 60c0 32 -26 52 -75 52
c-50 0 -109 -18 -179 -51l16 122c63 16 124 26 191 26c134 0 185 -41 185 -142c0 -11 0 -26 -1 -45l-10 -253c-1 -13 -1 -41 -1 -84h-146zM164 601v111h100v-111h-100zM329 601v111h100v-111h-100z" />
    <glyph glyph-name="agrave" unicode="&#xe0;" horiz-adv-x="532" 
d="M325 0c7 32 9 68 11 106l9 143c-15 -10 -31 -18 -49 -24l-66 -22c-47 -15 -71 -26 -71 -62c0 -32 23 -52 64 -52c19 0 45 6 78 15l-30 -104c-33 -9 -62 -13 -87 -13c-101 0 -162 57 -162 147c0 78 42 125 129 150l104 31c59 17 90 30 90 60c0 32 -26 52 -75 52
c-50 0 -109 -18 -179 -51l16 122c63 16 124 26 191 26c134 0 185 -41 185 -142c0 -11 0 -26 -1 -45l-10 -253c-1 -13 -1 -41 -1 -84h-146zM369 577h-64l-145 170h109z" />
    <glyph glyph-name="aring" unicode="&#xe5;" horiz-adv-x="532" 
d="M325 0c7 32 9 68 11 106l9 143c-15 -10 -31 -18 -49 -24l-66 -22c-47 -15 -71 -26 -71 -62c0 -32 23 -52 64 -52c19 0 45 6 78 15l-30 -104c-33 -9 -62 -13 -87 -13c-101 0 -162 57 -162 147c0 78 42 125 129 150l104 31c59 17 90 30 90 60c0 32 -26 52 -75 52
c-50 0 -109 -18 -179 -51l16 122c63 16 124 26 191 26c134 0 185 -41 185 -142c0 -11 0 -26 -1 -45l-10 -253c-1 -13 -1 -41 -1 -84h-146zM175 682c0 70 56 125 126 125s126 -55 126 -125c0 -71 -55 -126 -126 -126s-126 55 -126 126zM239 681c0 -35 27 -62 62 -62
s63 27 63 62s-28 63 -63 63s-62 -28 -62 -63z" />
    <glyph glyph-name="atilde" unicode="&#xe3;" horiz-adv-x="532" 
d="M325 0c7 32 9 68 11 106l9 143c-15 -10 -31 -18 -49 -24l-66 -22c-47 -15 -71 -26 -71 -62c0 -32 23 -52 64 -52c19 0 45 6 78 15l-30 -104c-33 -9 -62 -13 -87 -13c-101 0 -162 57 -162 147c0 78 42 125 129 150l104 31c59 17 90 30 90 60c0 32 -26 52 -75 52
c-50 0 -109 -18 -179 -51l16 122c63 16 124 26 191 26c134 0 185 -41 185 -142c0 -11 0 -26 -1 -45l-10 -253c-1 -13 -1 -41 -1 -84h-146zM443 716c-14 -71 -42 -110 -97 -110c-11 0 -22 1 -33 4l-41 12c-12 3 -23 6 -31 6c-22 0 -35 -11 -42 -33h-49c13 72 44 106 94 106
c11 0 25 -2 41 -6l43 -12c8 -2 16 -4 25 -4c20 0 36 13 42 37h48z" />
    <glyph glyph-name="ccedilla" unicode="&#xe7;" horiz-adv-x="461" 
d="M439 385c-45 13 -84 22 -119 22c-98 0 -151 -57 -151 -163c0 -92 48 -140 140 -140c36 0 78 10 128 25l-19 -121c-51 -14 -96 -22 -137 -22c-157 0 -247 93 -247 256c0 175 101 280 267 280c41 0 87 -6 138 -19v-118zM132 -212v58c54 -14 95 -21 124 -21
c35 0 53 13 53 37c0 28 -22 39 -69 39c-7 0 -14 -1 -21 -1v100h45v-46h7c77 0 115 -31 115 -94c0 -58 -43 -93 -122 -93c-33 0 -77 6 -132 21z" />
    <glyph glyph-name="eacute" unicode="&#xe9;" horiz-adv-x="523" 
d="M495 246h-317c-1 -13 -1 -21 -1 -24c0 -77 49 -120 140 -120c49 0 94 10 138 31l-27 -125c-57 -14 -107 -22 -149 -22c-155 0 -247 93 -247 252c0 175 105 284 260 284c138 0 206 -73 206 -218c0 -19 -1 -38 -3 -58zM183 334h181c0 58 -30 89 -82 89
c-51 0 -89 -34 -99 -89zM231 577l100 170h108l-145 -170h-63z" />
    <glyph glyph-name="ecircumflex" unicode="&#xea;" horiz-adv-x="523" 
d="M495 246h-317c-1 -13 -1 -21 -1 -24c0 -77 49 -120 140 -120c49 0 94 10 138 31l-27 -125c-57 -14 -107 -22 -149 -22c-155 0 -247 93 -247 252c0 175 105 284 260 284c138 0 206 -73 206 -218c0 -19 -1 -38 -3 -58zM183 334h181c0 58 -30 89 -82 89
c-51 0 -89 -34 -99 -89zM157 577l93 170h105l92 -170h-63l-82 102l-82 -102h-63z" />
    <glyph glyph-name="edieresis" unicode="&#xeb;" horiz-adv-x="523" 
d="M495 246h-317c-1 -13 -1 -21 -1 -24c0 -77 49 -120 140 -120c49 0 94 10 138 31l-27 -125c-57 -14 -107 -22 -149 -22c-155 0 -247 93 -247 252c0 175 105 284 260 284c138 0 206 -73 206 -218c0 -19 -1 -38 -3 -58zM183 334h181c0 58 -30 89 -82 89
c-51 0 -89 -34 -99 -89zM170 601v111h100v-111h-100zM335 601v111h100v-111h-100z" />
    <glyph glyph-name="egrave" unicode="&#xe8;" horiz-adv-x="523" 
d="M495 246h-317c-1 -13 -1 -21 -1 -24c0 -77 49 -120 140 -120c49 0 94 10 138 31l-27 -125c-57 -14 -107 -22 -149 -22c-155 0 -247 93 -247 252c0 175 105 284 260 284c138 0 206 -73 206 -218c0 -19 -1 -38 -3 -58zM183 334h181c0 58 -30 89 -82 89
c-51 0 -89 -34 -99 -89zM375 577h-64l-145 170h109z" />
    <glyph glyph-name="iacute" unicode="&#xed;" horiz-adv-x="248" 
d="M200 500c-11 -213 -15 -380 -15 -500h-143c15 164 22 330 22 500h136zM64 577l100 170h108l-145 -170h-63z" />
    <glyph glyph-name="icircumflex" unicode="&#xee;" horiz-adv-x="248" 
d="M200 500c-11 -213 -15 -380 -15 -500h-143c15 164 22 330 22 500h136zM-10 577l93 170h105l92 -170h-63l-82 102l-82 -102h-63z" />
    <glyph glyph-name="idieresis" unicode="&#xef;" horiz-adv-x="248" 
d="M200 500c-11 -213 -15 -380 -15 -500h-143c15 164 22 330 22 500h136zM3 601v111h100v-111h-100zM168 601v111h100v-111h-100z" />
    <glyph glyph-name="igrave" unicode="&#xec;" horiz-adv-x="248" 
d="M200 500c-11 -213 -15 -380 -15 -500h-143c15 164 22 330 22 500h136zM208 577h-64l-145 170h109z" />
    <glyph glyph-name="ntilde" unicode="&#xf1;" horiz-adv-x="609" 
d="M37 0c17 161 25 331 25 509h130v-62c45 55 97 76 173 76c140 0 194 -52 194 -171c0 -57 -7 -158 -7 -302v-50h-141c13 153 16 252 16 294c0 86 -22 123 -94 123c-124 0 -155 -107 -155 -342c0 -24 0 -49 1 -75h-142zM477 716c-14 -71 -42 -110 -97 -110
c-11 0 -22 1 -33 4l-41 12c-12 3 -23 6 -31 6c-22 0 -35 -11 -42 -33h-49c13 72 44 106 94 106c11 0 25 -2 41 -6l43 -12c8 -2 16 -4 25 -4c20 0 36 13 42 37h48z" />
    <glyph glyph-name="oacute" unicode="&#xf3;" horiz-adv-x="600" 
d="M34 243c0 173 104 280 275 280c164 0 257 -93 257 -255c0 -178 -103 -282 -277 -282c-163 0 -255 93 -255 257zM306 412c-87 0 -132 -56 -132 -168c0 -98 41 -148 121 -148c87 0 130 55 130 168c0 99 -39 148 -119 148zM240 577l100 170h108l-145 -170h-63z" />
    <glyph glyph-name="ocircumflex" unicode="&#xf4;" horiz-adv-x="600" 
d="M34 243c0 173 104 280 275 280c164 0 257 -93 257 -255c0 -178 -103 -282 -277 -282c-163 0 -255 93 -255 257zM306 412c-87 0 -132 -56 -132 -168c0 -98 41 -148 121 -148c87 0 130 55 130 168c0 99 -39 148 -119 148zM166 577l93 170h105l92 -170h-63l-82 102l-82 -102
h-63z" />
    <glyph glyph-name="odieresis" unicode="&#xf6;" horiz-adv-x="600" 
d="M34 243c0 173 104 280 275 280c164 0 257 -93 257 -255c0 -178 -103 -282 -277 -282c-163 0 -255 93 -255 257zM306 412c-87 0 -132 -56 -132 -168c0 -98 41 -148 121 -148c87 0 130 55 130 168c0 99 -39 148 -119 148zM179 601v111h100v-111h-100zM344 601v111h100v-111
h-100z" />
    <glyph glyph-name="ograve" unicode="&#xf2;" horiz-adv-x="600" 
d="M34 243c0 173 104 280 275 280c164 0 257 -93 257 -255c0 -178 -103 -282 -277 -282c-163 0 -255 93 -255 257zM306 412c-87 0 -132 -56 -132 -168c0 -98 41 -148 121 -148c87 0 130 55 130 168c0 99 -39 148 -119 148zM384 577h-64l-145 170h109z" />
    <glyph glyph-name="otilde" unicode="&#xf5;" horiz-adv-x="600" 
d="M34 243c0 173 104 280 275 280c164 0 257 -93 257 -255c0 -178 -103 -282 -277 -282c-163 0 -255 93 -255 257zM306 412c-87 0 -132 -56 -132 -168c0 -98 41 -148 121 -148c87 0 130 55 130 168c0 99 -39 148 -119 148zM458 716c-14 -71 -42 -110 -97 -110
c-11 0 -22 1 -33 4l-41 12c-12 3 -23 6 -31 6c-22 0 -35 -11 -42 -33h-49c13 72 44 106 94 106c11 0 25 -2 41 -6l43 -12c8 -2 16 -4 25 -4c20 0 36 13 42 37h48z" />
    <glyph glyph-name="scaron" unicode="&#x161;" horiz-adv-x="415" 
d="M25 143c67 -32 122 -47 159 -47c51 0 76 13 76 43c0 13 -8 28 -18 36l-111 88c-56 44 -90 76 -90 132c0 73 69 128 182 128c42 0 90 -7 147 -21l9 -115c-54 19 -98 30 -134 30c-39 0 -60 -11 -60 -29c0 -8 6 -20 16 -28l105 -82c57 -45 87 -81 87 -138
c0 -95 -68 -154 -196 -154c-47 0 -100 10 -160 30zM74 747h64l82 -103l81 103h64l-93 -170h-105z" />
    <glyph glyph-name="uacute" unicode="&#xfa;" horiz-adv-x="609" 
d="M569 509c-17 -161 -24 -331 -24 -509h-130v62c-45 -55 -97 -76 -173 -76c-140 0 -195 52 -195 171c0 57 8 160 8 307v45h140c-13 -153 -15 -251 -15 -293c0 -86 22 -124 94 -124c124 0 154 107 154 341c0 24 0 49 -1 76h142zM245 577l100 170h108l-145 -170h-63z" />
    <glyph glyph-name="ucircumflex" unicode="&#xfb;" horiz-adv-x="609" 
d="M569 509c-17 -161 -24 -331 -24 -509h-130v62c-45 -55 -97 -76 -173 -76c-140 0 -195 52 -195 171c0 57 8 160 8 307v45h140c-13 -153 -15 -251 -15 -293c0 -86 22 -124 94 -124c124 0 154 107 154 341c0 24 0 49 -1 76h142zM171 577l93 170h105l92 -170h-63l-82 102
l-82 -102h-63z" />
    <glyph glyph-name="udieresis" unicode="&#xfc;" horiz-adv-x="609" 
d="M569 509c-17 -161 -24 -331 -24 -509h-130v62c-45 -55 -97 -76 -173 -76c-140 0 -195 52 -195 171c0 57 8 160 8 307v45h140c-13 -153 -15 -251 -15 -293c0 -86 22 -124 94 -124c124 0 154 107 154 341c0 24 0 49 -1 76h142zM184 601v111h100v-111h-100zM349 601v111h100
v-111h-100z" />
    <glyph glyph-name="ugrave" unicode="&#xf9;" horiz-adv-x="609" 
d="M569 509c-17 -161 -24 -331 -24 -509h-130v62c-45 -55 -97 -76 -173 -76c-140 0 -195 52 -195 171c0 57 8 160 8 307v45h140c-13 -153 -15 -251 -15 -293c0 -86 22 -124 94 -124c124 0 154 107 154 341c0 24 0 49 -1 76h142zM389 577h-64l-145 170h109z" />
    <glyph glyph-name="ydieresis" unicode="&#xff;" horiz-adv-x="497" 
d="M151 509l89 -302c3 -11 8 -34 15 -69c7 25 15 48 23 70l70 183c14 36 25 75 34 118h150l-240 -545c-60 -137 -120 -190 -254 -190c-34 0 -67 2 -101 8l-6 118c33 -8 66 -12 100 -12c50 0 88 22 113 64l29 50l-123 356c-9 27 -29 78 -57 151h158zM128 601v111h100v-111
h-100zM293 601v111h100v-111h-100z" />
    <glyph glyph-name="zcaron" unicode="&#x17e;" horiz-adv-x="461" 
d="M180 113h136c25 0 63 2 116 6l-5 -119h-417l4 111l260 292h-161c-29 0 -56 -1 -82 -3l7 109h406l-4 -104zM97 747h64l82 -103l81 103h64l-93 -170h-105z" />
    <glyph glyph-name="trademark" unicode="&#x2122;" horiz-adv-x="833" 
d="M101 714h237v-55h-82v-212h-73v212h-82v55zM392 714h96l62 -162l60 162h96v-267h-66v200l-75 -200h-30l-77 200v-200h-66v267z" />
    <glyph glyph-name="copyright" unicode="&#xa9;" horiz-adv-x="833" 
d="M416 722c99 0 189 -37 259 -107c68 -68 105 -159 105 -257c0 -100 -37 -187 -105 -254c-72 -70 -164 -109 -259 -109c-96 0 -185 38 -255 108c-69 69 -107 159 -107 255s37 187 107 258c68 69 156 106 255 106zM417 662c-83 0 -157 -30 -214 -88
c-58 -59 -89 -135 -89 -215c0 -81 31 -156 89 -214s134 -89 214 -89s156 31 216 90c57 56 87 130 87 213c0 82 -31 157 -88 214c-58 58 -132 89 -215 89zM592 438h-92c-5 46 -36 72 -84 72c-57 0 -95 -53 -95 -151c0 -96 35 -147 99 -147c47 0 77 28 83 79h94
c-5 -90 -76 -150 -180 -150c-120 0 -196 81 -196 215c0 136 79 220 197 220c100 0 169 -56 174 -138z" />
    <glyph glyph-name="logicalnot" unicode="&#xac;" horiz-adv-x="833" 
d="M124 422h585v-245h-97v149h-488v96z" />
    <glyph glyph-name="registered" unicode="&#xae;" horiz-adv-x="833" 
d="M416 722c100 0 191 -38 261 -109c67 -68 103 -158 103 -255c0 -100 -38 -190 -107 -257c-71 -69 -163 -106 -257 -106c-97 0 -188 39 -258 110c-68 69 -104 159 -104 253c0 65 17 128 53 189c65 110 178 175 309 175zM417 662c-82 0 -154 -29 -211 -86
c-59 -59 -92 -137 -92 -217s30 -155 87 -212c58 -59 135 -92 215 -92c79 0 155 32 215 89c57 55 89 131 89 209c0 87 -29 160 -86 218c-59 60 -133 91 -217 91zM266 567h158c115 0 172 -39 172 -116c0 -53 -33 -93 -88 -107l90 -180h-109l-77 165h-48v-165h-98v403zM364 505
v-117h48c56 0 83 17 83 57c0 42 -29 60 -88 60h-43z" />
    <glyph glyph-name="minus" unicode="&#x2212;" horiz-adv-x="833" 
d="M124 348h585v-99h-585v99z" />
    <glyph glyph-name="Eth" unicode="&#xd0;" horiz-adv-x="731" 
d="M44 0c10 90 18 188 23 295h-49h-19l5 94c18 -1 41 -1 68 -1c4 51 4 143 6 274h300c84 0 149 -2 208 -46c70 -52 109 -141 109 -259c0 -220 -131 -357 -346 -357h-305zM204 116h72c74 0 131 1 184 40c56 42 86 108 86 195c0 78 -20 134 -57 166c-34 29 -80 29 -147 29
h-123l-7 -158h62c46 0 79 0 101 1l-5 -95c-23 1 -57 1 -102 1h-61l-1 -39c-1 -22 -2 -56 -2 -104v-36z" />
    <glyph glyph-name="Thorn" unicode="&#xde;" horiz-adv-x="558" 
d="M73 662h156c-8 -55 -12 -100 -13 -137h108h18c49 0 88 -1 119 -16c54 -27 82 -79 82 -154c0 -130 -86 -218 -223 -218c-22 0 -45 3 -69 8l-26 107c24 -7 48 -10 73 -10c72 0 113 41 113 101c0 58 -36 74 -114 74h-86c-3 -26 -5 -58 -7 -96l-5 -119c-1 -21 -3 -88 -5 -202
h-155c18 156 30 377 34 662z" />
    <glyph glyph-name="Yacute" unicode="&#xdd;" horiz-adv-x="472" 
d="M-39 662h171c7 -27 18 -50 27 -70l79 -167l97 166c8 15 20 38 33 71h166l-233 -362l-5 -215v-23c0 -19 0 -39 1 -62h-150c5 64 7 101 7 112l7 186zM188 717l100 170h108l-145 -170h-63z" />
    <glyph glyph-name="brokenbar" unicode="&#xa6;" 
d="M200 699h101v-370h-101v370zM200 199h101v-370h-101v370z" />
    <glyph glyph-name="degree" unicode="&#xb0;" horiz-adv-x="329" 
d="M165 715c82 0 148 -67 148 -149c0 -81 -66 -148 -149 -148c-82 0 -147 65 -147 148s66 149 148 149zM165 652c-47 0 -86 -38 -86 -85c0 -48 38 -86 86 -86s85 40 85 86c0 47 -38 85 -85 85z" />
    <glyph glyph-name="divide" unicode="&#xf7;" horiz-adv-x="833" 
d="M417 564c40 0 74 -33 74 -74c0 -40 -32 -74 -74 -74c-41 0 -74 33 -74 74c0 42 34 74 74 74zM124 347h585v-97h-585v97zM417 180c40 0 74 -33 74 -74c0 -39 -33 -73 -74 -73s-74 32 -74 73c0 42 34 74 74 74z" />
    <glyph glyph-name="eth" unicode="&#xf0;" horiz-adv-x="600" 
d="M338 555c-52 -11 -97 -21 -136 -32l-19 75c36 5 75 11 114 21l-45 57l123 20l37 -45c33 7 67 15 103 25l20 -73c-21 -4 -47 -10 -79 -17c73 -109 109 -221 109 -333c0 -167 -105 -267 -266 -267c-174 0 -266 86 -266 245s98 261 250 261c33 0 64 -6 95 -18
c-11 27 -24 54 -40 81zM306 393c-87 0 -132 -53 -132 -158c0 -93 41 -140 121 -140c87 0 130 52 130 158c0 94 -39 140 -119 140z" />
    <glyph glyph-name="mu" unicode="&#xb5;" horiz-adv-x="610" 
d="M100 533h141l-37 -212c-12 -66 -15 -111 -15 -131c0 -61 27 -90 83 -90c70 0 99 57 121 182l44 251h141l-94 -533h-131l9 57c-27 -50 -59 -73 -105 -73c-44 0 -77 19 -104 59l-44 -257h-140z" />
    <glyph glyph-name="multiply" unicode="&#xd7;" horiz-adv-x="833" 
d="M203 587l220 -220l220 220l69 -68l-220 -221l220 -220l-69 -68l-220 220l-220 -220l-68 68l220 220l-220 221z" />
    <glyph glyph-name="onehalf" unicode="&#xbd;" horiz-adv-x="908" 
d="M220 291h-86c3 21 5 44 7 69l11 157c1 13 2 29 2 46v20c-13 -5 -32 -14 -56 -27l5 75c19 8 40 19 63 31h75c-4 -27 -5 -57 -7 -91l-10 -164c-2 -28 -4 -66 -4 -116zM203 -14l422 676h78l-422 -676h-78zM581 -1v69l52 40c101 76 153 129 153 165c0 28 -26 43 -75 43
c-35 0 -74 -6 -120 -16l13 65c45 8 84 12 116 12c100 0 153 -33 153 -91c0 -47 -48 -101 -139 -176l-60 -48h99c30 0 59 1 86 5l-3 -68h-275z" />
    <glyph glyph-name="onequarter" unicode="&#xbc;" horiz-adv-x="908" 
d="M220 291h-86c3 21 5 44 7 69l11 157c1 13 2 29 2 46v20c-13 -5 -32 -14 -56 -27l5 75c19 8 40 19 63 31h75c-4 -27 -5 -57 -7 -91l-10 -164c-2 -28 -4 -66 -4 -116zM203 -14l422 676h78l-422 -676h-78zM840 371c-6 -31 -9 -66 -11 -108l-4 -90h25c10 0 24 1 44 4l-2 -66
c-9 1 -19 1 -31 1h-39l-2 -45c-1 -12 -1 -24 -1 -35s0 -22 1 -32h-92c5 36 7 59 7 69l1 43h-185v67l134 153c3 3 13 16 30 39h125zM639 171h105l11 147z" />
    <glyph glyph-name="onesuperior" unicode="&#xb9;" horiz-adv-x="388" 
d="M231 265h-90c3 23 5 47 7 74l12 168c1 14 1 31 1 50v21c-13 -5 -33 -15 -58 -29l5 80c20 9 42 21 66 33h79c-4 -29 -6 -61 -8 -97l-10 -176c-2 -29 -4 -71 -4 -124z" />
    <glyph glyph-name="plusminus" unicode="&#xb1;" horiz-adv-x="833" 
d="M367 597h99v-159h243v-97h-243v-159h-99v159h-243v97h243v159zM124 96h585v-97h-585v97z" />
    <glyph glyph-name="thorn" unicode="&#xfe;" horiz-adv-x="607" 
d="M72 662h143c-5 -41 -9 -89 -14 -145c33 4 65 7 94 7c183 0 276 -87 276 -255c0 -170 -105 -283 -249 -283c-59 0 -108 19 -145 53l-6 -109c-2 -45 -3 -92 -4 -141h-142c22 147 40 438 47 873zM197 394c-8 -41 -10 -82 -10 -126c0 -113 32 -166 116 -166
c79 0 127 58 127 163c0 99 -45 147 -137 147c-32 0 -65 -6 -96 -18z" />
    <glyph glyph-name="threequarters" unicode="&#xbe;" horiz-adv-x="908" 
d="M21 365c27 -9 62 -15 101 -15c79 0 119 20 119 56c0 32 -36 45 -110 45c-13 0 -25 0 -40 -1l5 55c92 0 136 16 136 55c0 32 -31 48 -93 48c-38 0 -72 -5 -100 -13l18 61c44 9 86 14 128 14c96 0 143 -30 143 -90c0 -48 -29 -81 -87 -94c63 -9 94 -40 94 -90
c0 -70 -62 -113 -172 -113c-43 0 -90 6 -133 18zM203 -14l422 676h78l-422 -676h-78zM840 371c-6 -31 -9 -66 -11 -108l-4 -90h25c10 0 24 1 44 4l-2 -66c-9 1 -19 1 -31 1h-39l-2 -45c-1 -12 -1 -24 -1 -35s0 -22 1 -32h-92c5 36 7 59 7 69l1 43h-185v67l134 153
c3 3 13 16 30 39h125zM639 171h105l11 147z" />
    <glyph glyph-name="threesuperior" unicode="&#xb3;" horiz-adv-x="388" 
d="M22 344c28 -9 64 -15 106 -15c83 0 125 21 125 59c0 35 -38 49 -116 49c-13 0 -26 -1 -41 -2l4 60c97 0 144 17 144 59c0 34 -33 51 -99 51c-39 0 -75 -6 -104 -14l19 65c46 10 90 15 134 15c100 0 150 -32 150 -96c0 -52 -31 -87 -91 -101c65 -10 98 -43 98 -97
c0 -74 -65 -120 -180 -120c-45 0 -94 6 -140 18z" />
    <glyph glyph-name="twosuperior" unicode="&#xb2;" horiz-adv-x="388" 
d="M46 264v74l55 43c106 81 160 138 160 177c0 30 -27 46 -79 46c-37 0 -78 -7 -125 -18l14 70c46 9 87 13 120 13c106 0 161 -35 161 -97c0 -51 -50 -109 -146 -189l-62 -52h104c31 0 61 2 89 5l-3 -72h-288z" />
    <glyph glyph-name="yacute" unicode="&#xfd;" horiz-adv-x="497" 
d="M151 509l89 -302c3 -11 8 -34 15 -69c7 25 15 48 23 70l70 183c14 36 25 75 34 118h150l-240 -545c-60 -137 -120 -190 -254 -190c-34 0 -67 2 -101 8l-6 118c33 -8 66 -12 100 -12c50 0 88 22 113 64l29 50l-123 356c-9 27 -29 78 -57 151h158zM189 577l100 170h108
l-145 -170h-63z" />
    </font>
</defs>
</svg>
